G04*
G04 #@! TF.GenerationSoftware,Altium Limited,Altium Designer,24.0.1 (36)*
G04*
G04 Layer_Color=32896*
%FSAX44Y44*%
%MOMM*%
G71*
G04*
G04 #@! TF.SameCoordinates,AD116AE3-DE06-480B-A5EE-D1CFDF242DD9*
G04*
G04*
G04 #@! TF.FilePolarity,Positive*
G04*
G01*
G75*
%ADD10C,0.2000*%
%ADD17C,0.1000*%
D10*
X00855490Y00874477D02*
G03*
X00865490Y00864477I00010000J00000000D01*
G01*
X00912990Y00834487D02*
G03*
X00882990Y00864487I-00030000J00000000D01*
G01*
X00912981Y00816987D02*
G03*
X00922981Y00806987I00010000J00000000D01*
G01*
X01927990Y01654487D02*
G03*
X01957990Y01624487I00030000J00000000D01*
G01*
X01918000Y00806986D02*
G03*
X01928000Y00816987I00000000J00010000D01*
G01*
X00922981Y01681987D02*
G03*
X00912981Y01671987I00000000J-00010000D01*
G01*
X00865490Y01624496D02*
G03*
X00855490Y01614496I00000000J-00010000D01*
G01*
X01985491D02*
G03*
X01975491Y01624496I-00010000J00000000D01*
G01*
Y00864477D02*
G03*
X01985491Y00874477I00000000J00010000D01*
G01*
X01928000Y01671987D02*
G03*
X01918000Y01681987I-00010000J00000000D01*
G01*
X00882990Y01624487D02*
G03*
X00912990Y01654487I00000000J00030000D01*
G01*
X01957990Y00864487D02*
G03*
X01927990Y00834487I00000000J-00030000D01*
G01*
X01207790Y00820487D02*
X01433190Y00820487D01*
X01563190D01*
X01433190Y00950487D02*
X01563190D01*
X01207790Y00950487D02*
X01433190Y00950487D01*
X01563190Y00820487D02*
Y00950487D01*
X01207790Y00820487D02*
Y00950487D01*
X00865481Y00864487D02*
X00882990D01*
X00912990Y00816977D02*
Y00834487D01*
X01927990Y00816977D02*
Y00834487D01*
X01957990Y01624487D02*
X01975500D01*
X01487991Y01681987D02*
X01918000Y01681987D01*
X01927990Y01654487D02*
Y01671996D01*
X01352990Y01517487D02*
Y01669287D01*
X00912990Y01654487D02*
Y01671996D01*
X01957990Y00864487D02*
X01975500D01*
X00922981Y01681987D02*
X01352990D01*
X00922981Y00806987D02*
X01918000Y00806987D01*
X00855490Y00874477D02*
X00855490Y01614496D01*
X01352990Y01669287D02*
Y01681987D01*
X00865481Y01624487D02*
X00882990D01*
X01487991Y01517487D02*
Y01681987D01*
X01433190Y01517487D02*
X01487991D01*
X01352990D02*
X01433190D01*
X01985490Y00874477D02*
X01985490Y01614496D01*
D17*
X01015490Y01264477D02*
G03*
X01005490Y01254477I00000000J-00010000D01*
G01*
Y00974477D02*
G03*
X01015490Y00964477I00010000J00000000D01*
G01*
X01755490Y00969487D02*
G03*
X01765490Y00979487I00000000J00010000D01*
G01*
X01490491D02*
G03*
X01500491Y00969487I00010000J00000000D01*
G01*
Y01259487D02*
G03*
X01490491Y01249487I00000000J-00010000D01*
G01*
X01765490Y01249477D02*
G03*
X01755490Y01259477I-00010000J00000000D01*
G01*
X01770490Y01254477D02*
G03*
X01760490Y01264477I-00010000J00000000D01*
G01*
X01775490Y01004487D02*
G03*
X01775490Y01004487I-00005000J00000000D01*
G01*
Y00991987D02*
G03*
X01775490Y00991987I-00005000J00000000D01*
G01*
Y01041987D02*
G03*
X01775490Y01041987I-00005000J00000000D01*
G01*
Y01029487D02*
G03*
X01775490Y01029487I-00005000J00000000D01*
G01*
Y01016987D02*
G03*
X01775490Y01016987I-00005000J00000000D01*
G01*
Y01079487D02*
G03*
X01775490Y01079487I-00005000J00000000D01*
G01*
Y01066987D02*
G03*
X01775490Y01066987I-00005000J00000000D01*
G01*
Y01054487D02*
G03*
X01775490Y01054487I-00005000J00000000D01*
G01*
Y01116987D02*
G03*
X01775490Y01116987I-00005000J00000000D01*
G01*
Y01104487D02*
G03*
X01775490Y01104487I-00005000J00000000D01*
G01*
Y01091987D02*
G03*
X01775490Y01091987I-00005000J00000000D01*
G01*
Y01129487D02*
G03*
X01775490Y01129487I-00005000J00000000D01*
G01*
Y01141987D02*
G03*
X01775490Y01141987I-00005000J00000000D01*
G01*
Y01154487D02*
G03*
X01775490Y01154487I-00005000J00000000D01*
G01*
Y01166987D02*
G03*
X01775490Y01166987I-00005000J00000000D01*
G01*
Y01179487D02*
G03*
X01775490Y01179487I-00005000J00000000D01*
G01*
Y01191987D02*
G03*
X01775490Y01191987I-00005000J00000000D01*
G01*
Y01204487D02*
G03*
X01775490Y01204487I-00005000J00000000D01*
G01*
Y01216987D02*
G03*
X01775490Y01216987I-00005000J00000000D01*
G01*
Y01229487D02*
G03*
X01775490Y01229487I-00005000J00000000D01*
G01*
Y01241987D02*
G03*
X01775490Y01241987I-00005000J00000000D01*
G01*
X01760490Y00964477D02*
G03*
X01770490Y00974477I00000000J00010000D01*
G01*
X01005490D02*
Y01254477D01*
X01765490Y00979487D02*
Y00991997D01*
X01500491Y00969487D02*
X01755490Y00969487D01*
X01490491Y00979487D02*
Y01249487D01*
X01500491Y01259477D02*
X01755490Y01259477D01*
X01765490Y01241987D02*
Y01249477D01*
X01770490Y00974477D02*
Y00986987D01*
Y01246987D02*
Y01254477D01*
X01015490Y01264477D02*
X01760490Y01264477D01*
X01015490Y00964477D02*
X01760490Y00964477D01*
M02*
