G04*
G04 #@! TF.GenerationSoftware,Altium Limited,Altium Designer,24.0.1 (36)*
G04*
G04 Layer_Physical_Order=1*
G04 Layer_Color=255*
%FSAX44Y44*%
%MOMM*%
G71*
G04*
G04 #@! TF.SameCoordinates,BC1AE164-091E-45D8-8033-5DBA2348E9FA*
G04*
G04*
G04 #@! TF.FilePolarity,Positive*
G04*
G01*
G75*
%ADD10C,0.2000*%
%ADD11C,1.0000*%
%ADD17C,0.1000*%
%ADD18R,1.3000X0.7000*%
%ADD19R,0.7000X1.3000*%
%ADD20R,1.6000X0.9000*%
%ADD21R,0.9000X1.6000*%
%ADD22R,1.8000X0.7000*%
%ADD23R,1.2000X1.4000*%
%ADD24R,3.5000X1.4000*%
%ADD25R,1.2000X0.6000*%
%ADD26R,0.7000X1.8000*%
%ADD27R,1.2000X0.5500*%
%ADD28R,1.2000X1.2000*%
%ADD29R,1.5000X1.6000*%
%ADD30R,1.4000X1.6000*%
%ADD31C,0.2540*%
%ADD53C,0.5000*%
%ADD54C,0.3000*%
%ADD55C,1.6000*%
%ADD56R,1.6000X1.6000*%
%ADD57R,3.0000X3.0000*%
%ADD58C,1.5000*%
%ADD59C,2.2500*%
%ADD60R,1.6000X1.6000*%
%ADD61C,3.0000*%
%ADD62C,0.5000*%
G36*
X01918000Y01678928D02*
X01918684D01*
X01920025Y01678661D01*
X01921288Y01678138D01*
X01922425Y01677379D01*
X01923392Y01676411D01*
X01924151Y01675275D01*
X01924675Y01674011D01*
X01924941Y01672670D01*
Y01671988D01*
X01924932Y01654488D01*
X01924942Y01654438D01*
X01924933Y01654387D01*
X01924998Y01652424D01*
X01925032Y01652277D01*
X01925022Y01652125D01*
X01925534Y01648235D01*
X01925599Y01648044D01*
X01925612Y01647842D01*
X01926628Y01644052D01*
X01926717Y01643871D01*
X01926757Y01643673D01*
X01928258Y01640047D01*
X01928371Y01639880D01*
X01928435Y01639689D01*
X01930397Y01636290D01*
X01930531Y01636139D01*
X01930620Y01635958D01*
X01933009Y01632844D01*
X01933160Y01632711D01*
X01933273Y01632543D01*
X01936047Y01629769D01*
X01936215Y01629657D01*
X01936348Y01629505D01*
X01939461Y01627116D01*
X01939642Y01627027D01*
X01939794Y01626894D01*
X01943192Y01624932D01*
X01943383Y01624867D01*
X01943551Y01624755D01*
X01947177Y01623253D01*
X01947375Y01623214D01*
X01947556Y01623124D01*
X01951346Y01622109D01*
X01951547Y01622095D01*
X01951738Y01622031D01*
X01955629Y01621518D01*
X01955780Y01621528D01*
X01955928Y01621494D01*
X01957890Y01621430D01*
X01957941Y01621438D01*
X01957990Y01621428D01*
X01975500Y01621428D01*
X01975515Y01621431D01*
X01975530Y01621428D01*
X01976189Y01621435D01*
X01977515Y01621171D01*
X01978778Y01620647D01*
X01979915Y01619888D01*
X01980882Y01618921D01*
X01981642Y01617784D01*
X01982165Y01616521D01*
X01982432Y01615180D01*
X01982432Y01614496D01*
X01982432Y00874477D01*
Y00873793D01*
X01982165Y00872452D01*
X01981642Y00871189D01*
X01980882Y00870052D01*
X01979915Y00869085D01*
X01978778Y00868326D01*
X01977515Y00867803D01*
X01976174Y00867536D01*
X01975492D01*
X01957992Y00867545D01*
X01957941Y00867535D01*
X01957890Y00867544D01*
X01955928Y00867479D01*
X01955780Y00867445D01*
X01955629Y00867455D01*
X01951738Y00866943D01*
X01951547Y00866878D01*
X01951346Y00866865D01*
X01947556Y00865849D01*
X01947375Y00865760D01*
X01947177Y00865720D01*
X01943551Y00864219D01*
X01943383Y00864107D01*
X01943192Y00864042D01*
X01939794Y00862080D01*
X01939642Y00861946D01*
X01939461Y00861857D01*
X01936348Y00859468D01*
X01936215Y00859317D01*
X01936047Y00859205D01*
X01933273Y00856430D01*
X01933160Y00856262D01*
X01933009Y00856129D01*
X01930620Y00853016D01*
X01930531Y00852835D01*
X01930397Y00852683D01*
X01928435Y00849285D01*
X01928371Y00849093D01*
X01928258Y00848926D01*
X01926757Y00845300D01*
X01926717Y00845102D01*
X01926628Y00844921D01*
X01925612Y00841131D01*
X01925599Y00840930D01*
X01925534Y00840739D01*
X01925022Y00836848D01*
X01925032Y00836697D01*
X01924998Y00836549D01*
X01924933Y00834587D01*
X01924942Y00834537D01*
X01924932Y00834487D01*
X01924932Y00816977D01*
X01924935Y00816962D01*
X01924932Y00816947D01*
X01924938Y00816288D01*
X01924675Y00814962D01*
X01924151Y00813699D01*
X01923392Y00812562D01*
X01922425Y00811595D01*
X01921288Y00810835D01*
X01920025Y00810312D01*
X01918684Y00810045D01*
X01918000Y00810045D01*
X00922981Y00810045D01*
X00922297D01*
X00920956Y00810312D01*
X00919693Y00810835D01*
X00918556Y00811595D01*
X00917589Y00812562D01*
X00916830Y00813699D01*
X00916306Y00814962D01*
X00916040Y00816303D01*
Y00816985D01*
X00916049Y00834485D01*
X00916039Y00834536D01*
X00916047Y00834587D01*
X00915983Y00836549D01*
X00915949Y00836696D01*
X00915959Y00836848D01*
X00915446Y00840739D01*
X00915382Y00840930D01*
X00915368Y00841131D01*
X00914353Y00844921D01*
X00914263Y00845102D01*
X00914224Y00845300D01*
X00912722Y00848926D01*
X00912610Y00849093D01*
X00912545Y00849285D01*
X00910583Y00852683D01*
X00910450Y00852835D01*
X00910361Y00853016D01*
X00907972Y00856129D01*
X00907821Y00856262D01*
X00907708Y00856430D01*
X00904934Y00859205D01*
X00904766Y00859317D01*
X00904633Y00859468D01*
X00901519Y00861857D01*
X00901339Y00861946D01*
X00901187Y00862080D01*
X00897788Y00864042D01*
X00897597Y00864107D01*
X00897430Y00864219D01*
X00893804Y00865720D01*
X00893606Y00865760D01*
X00893425Y00865849D01*
X00889635Y00866865D01*
X00889434Y00866878D01*
X00889242Y00866943D01*
X00885352Y00867455D01*
X00885200Y00867445D01*
X00885053Y00867479D01*
X00883091Y00867544D01*
X00883039Y00867535D01*
X00882989Y00867545D01*
X00865489Y00867536D01*
X00864807D01*
X00863466Y00867803D01*
X00862202Y00868326D01*
X00861066Y00869085D01*
X00860099Y00870052D01*
X00859339Y00871189D01*
X00858816Y00872452D01*
X00858549Y00873793D01*
Y00874477D01*
Y01614496D01*
Y01615180D01*
X00858816Y01616521D01*
X00859339Y01617784D01*
X00860099Y01618921D01*
X00861066Y01619888D01*
X00862202Y01620647D01*
X00863466Y01621171D01*
X00864807Y01621438D01*
X00865489D01*
X00882989Y01621428D01*
X00883039Y01621438D01*
X00883091Y01621430D01*
X00885053Y01621494D01*
X00885200Y01621528D01*
X00885352Y01621518D01*
X00889242Y01622031D01*
X00889433Y01622095D01*
X00889635Y01622109D01*
X00893425Y01623124D01*
X00893606Y01623214D01*
X00893804Y01623253D01*
X00897430Y01624755D01*
X00897597Y01624867D01*
X00897788Y01624932D01*
X00901187Y01626894D01*
X00901339Y01627027D01*
X00901519Y01627116D01*
X00904633Y01629505D01*
X00904766Y01629657D01*
X00904934Y01629769D01*
X00907708Y01632543D01*
X00907821Y01632711D01*
X00907972Y01632844D01*
X00910361Y01635958D01*
X00910450Y01636138D01*
X00910583Y01636290D01*
X00912545Y01639689D01*
X00912610Y01639880D01*
X00912722Y01640047D01*
X00914224Y01643673D01*
X00914263Y01643871D01*
X00914353Y01644052D01*
X00915368Y01647842D01*
X00915382Y01648044D01*
X00915446Y01648235D01*
X00915959Y01652125D01*
X00915949Y01652277D01*
X00915983Y01652424D01*
X00916047Y01654387D01*
X00916039Y01654437D01*
X00916049Y01654487D01*
X00916049Y01671996D01*
X00916046Y01672011D01*
X00916049Y01672026D01*
X00916042Y01672685D01*
X00916306Y01674011D01*
X00916830Y01675275D01*
X00917589Y01676411D01*
X00918556Y01677379D01*
X00919693Y01678138D01*
X00920956Y01678661D01*
X00922297Y01678928D01*
X01349932D01*
Y01517487D01*
X01350164Y01516316D01*
X01350827Y01515324D01*
X01351820Y01514661D01*
X01352990Y01514428D01*
X01487990D01*
X01489161Y01514661D01*
X01490153Y01515324D01*
X01490816Y01516316D01*
X01491049Y01517487D01*
Y01678928D01*
X01918000Y01678928D01*
D02*
G37*
%LPC*%
G36*
X01230030Y01632277D02*
X01217950D01*
Y01628375D01*
X01213991D01*
X01213990Y01628375D01*
X01213494Y01628277D01*
X01212988D01*
X01212520Y01628083D01*
X01212024Y01627984D01*
X01211603Y01627703D01*
X01211135Y01627509D01*
X01210778Y01627151D01*
X01210357Y01626870D01*
X01210076Y01626449D01*
X01209718Y01626091D01*
X01209524Y01625624D01*
X01209243Y01625203D01*
X01209144Y01624707D01*
X01208950Y01624239D01*
Y01623733D01*
X01208852Y01623237D01*
X01208950Y01622740D01*
Y01622234D01*
X01209144Y01621767D01*
X01209243Y01621270D01*
X01209524Y01620849D01*
X01209718Y01620382D01*
X01210076Y01620024D01*
X01210357Y01619603D01*
X01210778Y01619322D01*
X01211135Y01618964D01*
X01211603Y01618770D01*
X01212024Y01618489D01*
X01212520Y01618390D01*
X01212988Y01618197D01*
X01213494D01*
X01213990Y01618098D01*
X01217950D01*
Y01614197D01*
X01230030D01*
Y01632277D01*
D02*
G37*
G36*
X01269990Y01665121D02*
X01091740D01*
X01090254Y01664826D01*
X01088994Y01663983D01*
X01067244Y01642233D01*
X01066402Y01640973D01*
X01066106Y01639487D01*
Y01514096D01*
X01050881Y01498871D01*
X01018726D01*
X01018341Y01500309D01*
X01016525Y01503454D01*
X01013958Y01506021D01*
X01010813Y01507837D01*
X01007306Y01508777D01*
X01003675D01*
X01000168Y01507837D01*
X00997023Y01506021D01*
X00994456Y01503454D01*
X00992640Y01500309D01*
X00991701Y01496802D01*
Y01493171D01*
X00992640Y01489664D01*
X00994456Y01486519D01*
X00997023Y01483952D01*
X01000168Y01482136D01*
X01003675Y01481197D01*
X01007306D01*
X01010813Y01482136D01*
X01013958Y01483952D01*
X01016525Y01486519D01*
X01018341Y01489664D01*
X01018726Y01491102D01*
X01052490D01*
X01053977Y01491398D01*
X01055237Y01492240D01*
X01072737Y01509740D01*
X01073579Y01511000D01*
X01073875Y01512487D01*
Y01637878D01*
X01093350Y01657352D01*
X01268381D01*
X01271106Y01654628D01*
Y01642777D01*
X01268951D01*
Y01624697D01*
X01281030D01*
Y01642777D01*
X01278875D01*
Y01656237D01*
X01278579Y01657723D01*
X01277737Y01658983D01*
X01272737Y01663983D01*
X01271477Y01664826D01*
X01269990Y01665121D01*
D02*
G37*
G36*
X01837306Y01633777D02*
X01833675D01*
X01830168Y01632837D01*
X01827023Y01631021D01*
X01824456Y01628454D01*
X01822640Y01625309D01*
X01821700Y01621802D01*
Y01618171D01*
X01822640Y01614664D01*
X01824456Y01611519D01*
X01827023Y01608952D01*
X01830168Y01607136D01*
X01833675Y01606197D01*
X01837306D01*
X01840813Y01607136D01*
X01843958Y01608952D01*
X01846525Y01611519D01*
X01848341Y01614664D01*
X01849280Y01618171D01*
Y01621802D01*
X01848341Y01625309D01*
X01846525Y01628454D01*
X01843958Y01631021D01*
X01840813Y01632837D01*
X01837306Y01633777D01*
D02*
G37*
G36*
X01170306D02*
X01166675D01*
X01163168Y01632837D01*
X01160023Y01631021D01*
X01157456Y01628454D01*
X01155640Y01625309D01*
X01154700Y01621802D01*
Y01618171D01*
X01155640Y01614664D01*
X01157456Y01611519D01*
X01160023Y01608952D01*
X01163168Y01607136D01*
X01166675Y01606197D01*
X01170306D01*
X01173813Y01607136D01*
X01176958Y01608952D01*
X01179525Y01611519D01*
X01181341Y01614664D01*
X01182280Y01618171D01*
Y01621802D01*
X01181341Y01625309D01*
X01179525Y01628454D01*
X01176958Y01631021D01*
X01173813Y01632837D01*
X01170306Y01633777D01*
D02*
G37*
G36*
X01249030Y01651277D02*
X01236951D01*
Y01633197D01*
X01236950D01*
Y01632276D01*
X01236951D01*
Y01614197D01*
X01236105Y01613277D01*
X01230950D01*
Y01612375D01*
X01207505D01*
X01205538Y01611984D01*
X01203871Y01610870D01*
X01195539Y01602539D01*
X01194425Y01600871D01*
X01194034Y01598905D01*
Y01570737D01*
X01194133Y01570240D01*
Y01569734D01*
X01194327Y01569267D01*
X01194425Y01568770D01*
X01194706Y01568349D01*
X01194900Y01567882D01*
X01195258Y01567524D01*
X01195539Y01567103D01*
X01195960Y01566822D01*
X01196318Y01566464D01*
X01196786Y01566270D01*
X01197206Y01565989D01*
X01197703Y01565890D01*
X01198170Y01565697D01*
X01198677D01*
X01199173Y01565598D01*
X01199669Y01565697D01*
X01200175D01*
X01200643Y01565890D01*
X01201139Y01565989D01*
X01201560Y01566270D01*
X01202028Y01566464D01*
X01202386Y01566822D01*
X01202806Y01567103D01*
X01203088Y01567524D01*
X01203446Y01567882D01*
X01203639Y01568349D01*
X01203921Y01568770D01*
X01204019Y01569267D01*
X01204213Y01569734D01*
Y01570240D01*
X01204312Y01570737D01*
Y01596776D01*
X01209633Y01602098D01*
X01230950D01*
Y01601197D01*
X01249030D01*
X01249950Y01600352D01*
Y01592447D01*
X01254606D01*
Y01590230D01*
X01254218Y01589841D01*
X01253450Y01587989D01*
Y01585984D01*
X01254218Y01584132D01*
X01255636Y01582714D01*
X01257488Y01581947D01*
X01259493D01*
X01261345Y01582714D01*
X01262763Y01584132D01*
X01263530Y01585984D01*
Y01587989D01*
X01262763Y01589841D01*
X01262375Y01590230D01*
Y01592447D01*
X01265356D01*
Y01572205D01*
X01264530Y01571277D01*
X01252450D01*
Y01553197D01*
X01254606D01*
Y01551646D01*
X01253752Y01550610D01*
X01249030D01*
Y01560777D01*
X01249031D01*
Y01561697D01*
X01249030D01*
Y01579777D01*
X01236951D01*
Y01561697D01*
X01236950D01*
Y01560777D01*
X01236951D01*
Y01542697D01*
X01236105Y01541777D01*
X01230950D01*
Y01540875D01*
X01226990D01*
X01226494Y01540777D01*
X01225988D01*
X01225520Y01540583D01*
X01225024Y01540484D01*
X01224603Y01540203D01*
X01224136Y01540009D01*
X01223778Y01539651D01*
X01223357Y01539370D01*
X01223076Y01538949D01*
X01222718Y01538591D01*
X01222524Y01538124D01*
X01222243Y01537703D01*
X01222144Y01537207D01*
X01221950Y01536739D01*
Y01536233D01*
X01221852Y01535737D01*
X01221950Y01535240D01*
Y01534734D01*
X01222144Y01534267D01*
X01222243Y01533770D01*
X01222524Y01533349D01*
X01222718Y01532882D01*
X01223076Y01532524D01*
X01223357Y01532103D01*
X01223778Y01531822D01*
X01224136Y01531464D01*
X01224603Y01531270D01*
X01225024Y01530989D01*
X01225520Y01530890D01*
X01225988Y01530697D01*
X01226494D01*
X01226990Y01530598D01*
X01230950D01*
Y01529697D01*
X01249030D01*
X01249950Y01528852D01*
Y01520947D01*
X01254606D01*
Y01518730D01*
X01254218Y01518342D01*
X01253450Y01516489D01*
Y01514484D01*
X01254218Y01512632D01*
X01255636Y01511214D01*
X01257488Y01510447D01*
X01259493D01*
X01261345Y01511214D01*
X01262763Y01512632D01*
X01263530Y01514484D01*
Y01516489D01*
X01262763Y01518342D01*
X01262375Y01518730D01*
Y01520947D01*
X01265356D01*
Y01400737D01*
X01265651Y01399250D01*
X01266494Y01397990D01*
X01280494Y01383990D01*
X01281754Y01383148D01*
X01283241Y01382852D01*
X01716026D01*
X01716458Y01382297D01*
X01715836Y01381027D01*
X01686450D01*
Y01345947D01*
X01721530D01*
Y01376044D01*
X01722704Y01376530D01*
X01750106Y01349128D01*
Y01303837D01*
X01747826Y01302521D01*
X01745956Y01300651D01*
X01744635Y01298362D01*
X01743950Y01295808D01*
Y01293165D01*
X01744635Y01290611D01*
X01745956Y01288322D01*
X01747826Y01286453D01*
X01750115Y01285131D01*
X01752669Y01284447D01*
X01755312D01*
X01757866Y01285131D01*
X01760155Y01286453D01*
X01762024Y01288322D01*
X01763346Y01290611D01*
X01764030Y01293165D01*
Y01295808D01*
X01763346Y01298362D01*
X01762024Y01300651D01*
X01760155Y01302521D01*
X01757875Y01303837D01*
Y01349562D01*
X01759145Y01350088D01*
X01771494Y01337740D01*
X01772754Y01336898D01*
X01774240Y01336602D01*
X01823200D01*
Y01331447D01*
X01835280D01*
Y01349527D01*
X01823200D01*
Y01344371D01*
X01775849D01*
X01720987Y01399234D01*
X01719727Y01400076D01*
X01718241Y01400371D01*
X01295349D01*
X01290375Y01405346D01*
Y01458244D01*
X01290763Y01458632D01*
X01291530Y01460484D01*
Y01462489D01*
X01290763Y01464341D01*
X01289345Y01465759D01*
X01287493Y01466527D01*
X01285488D01*
X01283636Y01465759D01*
X01282218Y01464341D01*
X01281450Y01462489D01*
Y01460484D01*
X01282218Y01458632D01*
X01282606Y01458244D01*
Y01403737D01*
X01282901Y01402250D01*
X01283744Y01400990D01*
X01290994Y01393740D01*
X01292254Y01392898D01*
X01293740Y01392602D01*
X01716393D01*
X01717025Y01391805D01*
X01716504Y01390621D01*
X01284850D01*
X01273125Y01402346D01*
Y01553197D01*
X01283530D01*
Y01558352D01*
X01322544D01*
X01335606Y01545291D01*
Y01433237D01*
X01335901Y01431750D01*
X01336744Y01430490D01*
X01351939Y01415295D01*
X01351453Y01414121D01*
X01338849D01*
X01314125Y01438846D01*
Y01517197D01*
X01325030D01*
Y01521098D01*
X01328990D01*
X01329487Y01521197D01*
X01329993D01*
X01330461Y01521390D01*
X01330957Y01521489D01*
X01331378Y01521770D01*
X01331845Y01521964D01*
X01332203Y01522322D01*
X01332624Y01522603D01*
X01332905Y01523024D01*
X01333263Y01523382D01*
X01333457Y01523849D01*
X01333738Y01524270D01*
X01333837Y01524766D01*
X01334030Y01525234D01*
Y01525740D01*
X01334129Y01526237D01*
X01334030Y01526733D01*
Y01527239D01*
X01333837Y01527707D01*
X01333738Y01528203D01*
X01333457Y01528624D01*
X01333263Y01529091D01*
X01332905Y01529449D01*
X01332624Y01529870D01*
X01332203Y01530151D01*
X01331845Y01530509D01*
X01331378Y01530703D01*
X01330957Y01530984D01*
X01330461Y01531083D01*
X01329993Y01531277D01*
X01329487D01*
X01328990Y01531375D01*
X01325030D01*
Y01535277D01*
X01314125D01*
Y01537237D01*
X01313829Y01538723D01*
X01312987Y01539984D01*
X01304987Y01547984D01*
X01303727Y01548826D01*
X01302240Y01549121D01*
X01293030D01*
Y01550527D01*
X01275950D01*
Y01539947D01*
X01293030D01*
Y01541352D01*
X01300631D01*
X01305437Y01536547D01*
X01304911Y01535277D01*
X01293950D01*
Y01532372D01*
X01293030Y01531527D01*
X01275950D01*
Y01520947D01*
X01293030D01*
X01293950Y01520102D01*
Y01517197D01*
X01295027D01*
X01295379Y01516633D01*
X01295649Y01515927D01*
X01294950Y01514239D01*
Y01512234D01*
X01295718Y01510382D01*
X01297135Y01508964D01*
X01298988Y01508197D01*
X01300993D01*
X01302845Y01508964D01*
X01304263Y01510382D01*
X01305030Y01512234D01*
Y01514239D01*
X01304332Y01515927D01*
X01304602Y01516633D01*
X01304826Y01516992D01*
X01306102Y01516947D01*
X01306356Y01516061D01*
Y01437237D01*
X01306651Y01435750D01*
X01307494Y01434490D01*
X01334494Y01407490D01*
X01335754Y01406648D01*
X01337240Y01406352D01*
X01504241D01*
X01505727Y01406648D01*
X01506987Y01407490D01*
X01517987Y01418490D01*
X01518829Y01419750D01*
X01519125Y01421237D01*
Y01488002D01*
X01519399Y01488180D01*
X01520582Y01488104D01*
X01520700Y01487927D01*
Y01476197D01*
X01538780D01*
Y01488277D01*
X01538781D01*
Y01489197D01*
X01538780D01*
Y01501277D01*
X01520701D01*
Y01501277D01*
X01519780D01*
Y01501277D01*
X01501700D01*
Y01489197D01*
X01511356D01*
Y01474196D01*
X01510182Y01473710D01*
X01500375Y01483517D01*
Y01528378D01*
X01504099Y01532102D01*
X01520700D01*
Y01521197D01*
X01538780D01*
Y01523352D01*
X01540381D01*
X01543306Y01520428D01*
Y01512277D01*
X01541150D01*
Y01489197D01*
X01549855D01*
X01550700Y01488277D01*
X01550700Y01487927D01*
Y01470197D01*
X01552856D01*
Y01468096D01*
X01551881Y01467121D01*
X01538780D01*
Y01469277D01*
X01520700D01*
Y01457197D01*
X01524777D01*
X01525129Y01456633D01*
X01525399Y01455927D01*
X01524700Y01454239D01*
Y01452234D01*
X01525468Y01450382D01*
X01526886Y01448964D01*
X01528738Y01448197D01*
X01530743D01*
X01532595Y01448964D01*
X01534013Y01450382D01*
X01534780Y01452234D01*
Y01454239D01*
X01534081Y01455927D01*
X01534352Y01456633D01*
X01534704Y01457197D01*
X01538780D01*
Y01459352D01*
X01553490D01*
X01554977Y01459648D01*
X01556237Y01460490D01*
X01556975Y01461227D01*
X01558220Y01460979D01*
X01558468Y01460382D01*
X01559886Y01458964D01*
X01561738Y01458197D01*
X01563743D01*
X01565430Y01458896D01*
X01566350Y01458544D01*
X01566700Y01458349D01*
Y01457197D01*
X01584430D01*
X01584780Y01457197D01*
X01585700D01*
X01586050Y01457197D01*
X01603780D01*
Y01459352D01*
X01811881D01*
X01831856Y01439377D01*
Y01384480D01*
X01831468Y01384091D01*
X01830700Y01382239D01*
Y01380234D01*
X01831468Y01378382D01*
X01832885Y01376964D01*
X01834738Y01376197D01*
X01836743D01*
X01838595Y01376964D01*
X01840013Y01378382D01*
X01840780Y01380234D01*
Y01382239D01*
X01840013Y01384091D01*
X01839625Y01384480D01*
Y01440987D01*
X01839329Y01442473D01*
X01838487Y01443734D01*
X01816237Y01465983D01*
X01814977Y01466826D01*
X01813490Y01467121D01*
X01603780D01*
Y01469277D01*
X01601625D01*
X01600780Y01470197D01*
Y01488277D01*
X01592175D01*
X01591330Y01489197D01*
X01591330Y01489547D01*
Y01495598D01*
X01596990D01*
X01597487Y01495697D01*
X01597993D01*
X01598461Y01495890D01*
X01598957Y01495989D01*
X01599378Y01496270D01*
X01599845Y01496464D01*
X01600203Y01496822D01*
X01600624Y01497103D01*
X01600905Y01497524D01*
X01601263Y01497882D01*
X01601457Y01498349D01*
X01601738Y01498770D01*
X01601837Y01499267D01*
X01602030Y01499734D01*
Y01500240D01*
X01602129Y01500737D01*
X01602030Y01501233D01*
Y01501739D01*
X01601837Y01502207D01*
X01601738Y01502703D01*
X01601457Y01503124D01*
X01601263Y01503592D01*
X01600905Y01503949D01*
X01600624Y01504370D01*
X01600203Y01504651D01*
X01599845Y01505009D01*
X01599378Y01505203D01*
X01598957Y01505484D01*
X01598461Y01505583D01*
X01597993Y01505777D01*
X01597487D01*
X01596990Y01505875D01*
X01591330D01*
Y01512277D01*
X01579900D01*
X01579250Y01512277D01*
X01577980Y01512277D01*
X01566550D01*
Y01512277D01*
X01565930D01*
Y01512277D01*
X01554500D01*
X01553850Y01512277D01*
X01552580Y01512277D01*
X01551075D01*
Y01522037D01*
X01550779Y01523523D01*
X01549937Y01524783D01*
X01544737Y01529984D01*
X01543477Y01530826D01*
X01543445Y01530832D01*
X01543570Y01532102D01*
X01570540D01*
X01572027Y01532398D01*
X01572590Y01532774D01*
X01573154Y01532398D01*
X01574640Y01532102D01*
X01583240D01*
X01584727Y01532398D01*
X01585987Y01533240D01*
X01588037Y01535290D01*
X01588879Y01536550D01*
X01589175Y01538037D01*
Y01545197D01*
X01591330D01*
Y01568277D01*
X01588625D01*
X01587780Y01569197D01*
X01587780Y01569547D01*
Y01581277D01*
X01569700D01*
Y01581277D01*
X01568780D01*
Y01581277D01*
X01550701D01*
Y01569197D01*
X01553006D01*
X01553850Y01568277D01*
Y01545197D01*
X01565280D01*
X01565930Y01545197D01*
X01567200Y01545197D01*
X01568706D01*
Y01539871D01*
X01539916D01*
X01538780Y01540197D01*
X01538780Y01541141D01*
Y01552277D01*
X01533860D01*
Y01589280D01*
X01534697Y01590117D01*
X01550701D01*
Y01588197D01*
X01568430D01*
X01568780Y01588197D01*
X01569700D01*
X01570051Y01588197D01*
X01587780D01*
Y01600277D01*
X01587780D01*
Y01600352D01*
X01589050Y01601197D01*
X01606780D01*
Y01601197D01*
X01607701D01*
Y01601197D01*
X01625780D01*
Y01613277D01*
X01607701D01*
Y01613277D01*
X01606780D01*
Y01613277D01*
X01588701D01*
Y01613277D01*
X01587780D01*
Y01613277D01*
X01569700D01*
Y01601547D01*
X01568855Y01600277D01*
X01568430Y01600277D01*
X01550701D01*
Y01598356D01*
X01532990D01*
X01531414Y01598042D01*
X01530078Y01597149D01*
X01526828Y01593899D01*
X01525935Y01592563D01*
X01525621Y01590987D01*
Y01552277D01*
X01520700D01*
Y01550356D01*
X01504999D01*
X01504845Y01550509D01*
X01502993Y01551277D01*
X01500988D01*
X01499135Y01550509D01*
X01497718Y01549091D01*
X01496950Y01547239D01*
Y01545234D01*
X01497718Y01543382D01*
X01499135Y01541964D01*
X01500988Y01541197D01*
X01502993D01*
X01504845Y01541964D01*
X01504999Y01542117D01*
X01519802D01*
X01520522Y01541398D01*
X01520348Y01540096D01*
X01519565Y01539871D01*
X01502490D01*
X01501004Y01539576D01*
X01499744Y01538734D01*
X01493744Y01532733D01*
X01492901Y01531473D01*
X01492606Y01529987D01*
Y01481908D01*
X01492901Y01480421D01*
X01493744Y01479161D01*
X01505856Y01467049D01*
Y01427346D01*
X01499131Y01420621D01*
X01357599D01*
X01343375Y01434846D01*
Y01546900D01*
X01343079Y01548386D01*
X01342237Y01549646D01*
X01326900Y01564984D01*
X01325640Y01565826D01*
X01324153Y01566121D01*
X01283530D01*
Y01571277D01*
X01273125D01*
Y01608878D01*
X01275002Y01610755D01*
X01275950Y01611447D01*
Y01611447D01*
X01275950Y01611447D01*
X01293030D01*
Y01622027D01*
X01275950D01*
Y01620621D01*
X01275490D01*
X01274004Y01620325D01*
X01272744Y01619483D01*
X01268204Y01614944D01*
X01267030Y01615430D01*
Y01622027D01*
X01259875D01*
Y01624697D01*
X01262030D01*
Y01642777D01*
X01249950D01*
X01249030Y01643622D01*
Y01651277D01*
D02*
G37*
G36*
X01306030Y01607027D02*
X01293950D01*
Y01603872D01*
X01293030Y01603027D01*
X01275950D01*
Y01592447D01*
X01293030D01*
X01293950Y01591602D01*
Y01588947D01*
X01295027D01*
X01295379Y01588383D01*
X01295649Y01587677D01*
X01294950Y01585989D01*
Y01583984D01*
X01295718Y01582132D01*
X01297135Y01580714D01*
X01298988Y01579947D01*
X01300993D01*
X01302845Y01580714D01*
X01304263Y01582132D01*
X01305030Y01583984D01*
Y01585989D01*
X01304332Y01587677D01*
X01304602Y01588383D01*
X01304954Y01588947D01*
X01306030D01*
Y01607027D01*
D02*
G37*
G36*
X01230030Y01579777D02*
X01217950D01*
Y01575875D01*
X01213991D01*
X01213990Y01575875D01*
X01213494Y01575777D01*
X01212988D01*
X01212520Y01575583D01*
X01212024Y01575484D01*
X01211603Y01575203D01*
X01211135Y01575009D01*
X01210778Y01574651D01*
X01210357Y01574370D01*
X01210076Y01573949D01*
X01209718Y01573591D01*
X01209524Y01573124D01*
X01209243Y01572703D01*
X01209144Y01572207D01*
X01208950Y01571739D01*
Y01571233D01*
X01208852Y01570737D01*
X01208950Y01570240D01*
Y01569734D01*
X01209144Y01569267D01*
X01209243Y01568770D01*
X01209524Y01568349D01*
X01209718Y01567882D01*
X01210076Y01567524D01*
X01210357Y01567103D01*
X01210778Y01566822D01*
X01211135Y01566464D01*
X01211603Y01566270D01*
X01212024Y01565989D01*
X01212520Y01565890D01*
X01212988Y01565697D01*
X01213494D01*
X01213990Y01565598D01*
X01217950D01*
Y01561697D01*
X01230030D01*
Y01579777D01*
D02*
G37*
G36*
X01837306Y01571277D02*
X01833675D01*
X01830168Y01570337D01*
X01827023Y01568521D01*
X01824456Y01565954D01*
X01822640Y01562809D01*
X01821700Y01559302D01*
Y01555671D01*
X01822640Y01552164D01*
X01824456Y01549019D01*
X01827023Y01546452D01*
X01830168Y01544636D01*
X01833675Y01543697D01*
X01837306D01*
X01840813Y01544636D01*
X01843958Y01546452D01*
X01846525Y01549019D01*
X01848341Y01552164D01*
X01849280Y01555671D01*
Y01559302D01*
X01848341Y01562809D01*
X01846525Y01565954D01*
X01843958Y01568521D01*
X01840813Y01570337D01*
X01837306Y01571277D01*
D02*
G37*
G36*
X01674306D02*
X01670675D01*
X01667168Y01570337D01*
X01664023Y01568521D01*
X01661456Y01565954D01*
X01659640Y01562809D01*
X01658700Y01559302D01*
Y01555671D01*
X01659640Y01552164D01*
X01661456Y01549019D01*
X01664023Y01546452D01*
X01667168Y01544636D01*
X01670675Y01543697D01*
X01674306D01*
X01677813Y01544636D01*
X01680958Y01546452D01*
X01683525Y01549019D01*
X01685341Y01552164D01*
X01686280Y01555671D01*
Y01559302D01*
X01685341Y01562809D01*
X01683525Y01565954D01*
X01680958Y01568521D01*
X01677813Y01570337D01*
X01674306Y01571277D01*
D02*
G37*
G36*
X01170306D02*
X01166675D01*
X01163168Y01570337D01*
X01160023Y01568521D01*
X01157456Y01565954D01*
X01155640Y01562809D01*
X01154700Y01559302D01*
Y01555671D01*
X01155640Y01552164D01*
X01157456Y01549019D01*
X01160023Y01546452D01*
X01163168Y01544636D01*
X01166675Y01543697D01*
X01170306D01*
X01173813Y01544636D01*
X01176958Y01546452D01*
X01179525Y01549019D01*
X01181341Y01552164D01*
X01182280Y01555671D01*
Y01559302D01*
X01181341Y01562809D01*
X01179525Y01565954D01*
X01176958Y01568521D01*
X01173813Y01570337D01*
X01170306Y01571277D01*
D02*
G37*
G36*
X01007306D02*
X01003675D01*
X01000168Y01570337D01*
X00997023Y01568521D01*
X00994456Y01565954D01*
X00992640Y01562809D01*
X00991701Y01559302D01*
Y01555671D01*
X00992640Y01552164D01*
X00994456Y01549019D01*
X00997023Y01546452D01*
X01000168Y01544636D01*
X01003675Y01543697D01*
X01007306D01*
X01010813Y01544636D01*
X01013958Y01546452D01*
X01016525Y01549019D01*
X01018341Y01552164D01*
X01019280Y01555671D01*
Y01559302D01*
X01018341Y01562809D01*
X01016525Y01565954D01*
X01013958Y01568521D01*
X01010813Y01570337D01*
X01007306Y01571277D01*
D02*
G37*
G36*
X01510741Y01529375D02*
X01510244Y01529277D01*
X01509738D01*
X01509270Y01529083D01*
X01508774Y01528984D01*
X01508353Y01528703D01*
X01507885Y01528509D01*
X01507528Y01528151D01*
X01507107Y01527870D01*
X01506826Y01527449D01*
X01506468Y01527092D01*
X01506274Y01526624D01*
X01505993Y01526203D01*
X01505894Y01525707D01*
X01505701Y01525239D01*
Y01524733D01*
X01505602Y01524237D01*
Y01520277D01*
X01501700D01*
Y01508197D01*
X01519780D01*
Y01520277D01*
X01515879D01*
Y01524237D01*
X01515780Y01524733D01*
Y01525239D01*
X01515587Y01525707D01*
X01515488Y01526203D01*
X01515207Y01526624D01*
X01515013Y01527092D01*
X01514655Y01527449D01*
X01514374Y01527870D01*
X01513953Y01528151D01*
X01513595Y01528509D01*
X01513128Y01528703D01*
X01512707Y01528984D01*
X01512211Y01529083D01*
X01511743Y01529277D01*
X01511237D01*
X01510741Y01529375D01*
D02*
G37*
G36*
X01837306Y01508777D02*
X01833675D01*
X01830168Y01507837D01*
X01827023Y01506021D01*
X01824456Y01503454D01*
X01822640Y01500309D01*
X01821700Y01496802D01*
Y01493171D01*
X01822640Y01489664D01*
X01824456Y01486519D01*
X01827023Y01483952D01*
X01830168Y01482136D01*
X01833675Y01481197D01*
X01837306D01*
X01840813Y01482136D01*
X01843958Y01483952D01*
X01846525Y01486519D01*
X01848341Y01489664D01*
X01849280Y01493171D01*
Y01496802D01*
X01848341Y01500309D01*
X01846525Y01503454D01*
X01843958Y01506021D01*
X01840813Y01507837D01*
X01837306Y01508777D01*
D02*
G37*
G36*
X01625780Y01632277D02*
X01607700D01*
Y01620197D01*
X01625780D01*
Y01622352D01*
X01631381D01*
X01635356Y01618378D01*
Y01506987D01*
X01635652Y01505500D01*
X01636494Y01504240D01*
X01648494Y01492240D01*
X01649754Y01491398D01*
X01651240Y01491102D01*
X01659255D01*
X01659640Y01489664D01*
X01661456Y01486519D01*
X01664023Y01483952D01*
X01667168Y01482136D01*
X01670675Y01481197D01*
X01674306D01*
X01677813Y01482136D01*
X01680958Y01483952D01*
X01683525Y01486519D01*
X01685341Y01489664D01*
X01686280Y01493171D01*
Y01496802D01*
X01685341Y01500309D01*
X01683525Y01503454D01*
X01680958Y01506021D01*
X01677813Y01507837D01*
X01674306Y01508777D01*
X01670675D01*
X01667168Y01507837D01*
X01664023Y01506021D01*
X01661456Y01503454D01*
X01659640Y01500309D01*
X01659255Y01498871D01*
X01652849D01*
X01643125Y01508596D01*
Y01619987D01*
X01642829Y01621473D01*
X01641987Y01622733D01*
X01635737Y01628983D01*
X01634477Y01629826D01*
X01632990Y01630121D01*
X01625780D01*
Y01632277D01*
D02*
G37*
G36*
X01170306Y01508777D02*
X01166675D01*
X01163168Y01507837D01*
X01160023Y01506021D01*
X01157456Y01503454D01*
X01155640Y01500309D01*
X01154700Y01496802D01*
Y01493171D01*
X01155640Y01489664D01*
X01157456Y01486519D01*
X01160023Y01483952D01*
X01163168Y01482136D01*
X01166675Y01481197D01*
X01170306D01*
X01173813Y01482136D01*
X01176958Y01483952D01*
X01179525Y01486519D01*
X01181341Y01489664D01*
X01182280Y01493171D01*
Y01496802D01*
X01181341Y01500309D01*
X01179525Y01503454D01*
X01176958Y01506021D01*
X01173813Y01507837D01*
X01170306Y01508777D01*
D02*
G37*
G36*
X01584780Y01450277D02*
Y01450277D01*
X01584467Y01450277D01*
X01566700D01*
Y01438197D01*
X01584780D01*
Y01438197D01*
X01585701D01*
Y01438197D01*
X01603780D01*
Y01450277D01*
X01586014D01*
X01585701Y01450277D01*
Y01450277D01*
X01584780D01*
D02*
G37*
G36*
X01479243Y01494027D02*
X01477238D01*
X01475385Y01493259D01*
X01473968Y01491841D01*
X01473200Y01489989D01*
Y01487984D01*
X01473968Y01486132D01*
X01474121Y01485978D01*
Y01461027D01*
X01472200D01*
Y01442947D01*
X01472200D01*
Y01442872D01*
X01470930Y01442027D01*
X01459200D01*
Y01423947D01*
X01471280D01*
Y01423947D01*
X01472200D01*
Y01423947D01*
X01484280D01*
Y01442027D01*
X01484281D01*
Y01442947D01*
X01484280D01*
Y01461027D01*
X01482360D01*
Y01485978D01*
X01482513Y01486132D01*
X01483280Y01487984D01*
Y01489989D01*
X01482513Y01491841D01*
X01481095Y01493259D01*
X01479243Y01494027D01*
D02*
G37*
G36*
X01443730Y01510027D02*
X01422650D01*
Y01488947D01*
X01428052D01*
Y01483027D01*
X01423650D01*
Y01461947D01*
X01426306D01*
X01427150Y01461027D01*
Y01443276D01*
X01427150Y01442947D01*
X01427150D01*
X01427200Y01442027D01*
X01427200D01*
Y01423947D01*
X01439280D01*
Y01423947D01*
X01440201D01*
Y01423947D01*
X01452280D01*
Y01442027D01*
X01451379D01*
Y01445987D01*
X01451280Y01446483D01*
Y01446989D01*
X01451087Y01447457D01*
X01450988Y01447953D01*
X01450707Y01448374D01*
X01450513Y01448842D01*
X01450155Y01449200D01*
X01449874Y01449620D01*
X01449453Y01449901D01*
X01449095Y01450259D01*
X01448628Y01450453D01*
X01448207Y01450734D01*
X01447711Y01450833D01*
X01447243Y01451027D01*
X01446737D01*
X01446240Y01451125D01*
X01445744Y01451027D01*
X01445238D01*
X01444770Y01450833D01*
X01444274Y01450734D01*
X01443853Y01450453D01*
X01443385Y01450259D01*
X01443028Y01449901D01*
X01442607Y01449620D01*
X01442326Y01449199D01*
X01441968Y01448842D01*
X01441774Y01448374D01*
X01441493Y01447953D01*
X01441394Y01447457D01*
X01441200Y01446989D01*
Y01446483D01*
X01441102Y01445987D01*
Y01442917D01*
X01441045Y01442861D01*
X01439402Y01443023D01*
X01439230Y01443276D01*
Y01461027D01*
X01440075Y01461947D01*
X01442730D01*
Y01483027D01*
X01438329D01*
Y01488947D01*
X01443730D01*
Y01510027D01*
D02*
G37*
G36*
X01821530Y01381027D02*
X01786450D01*
Y01345947D01*
X01821530D01*
Y01381027D01*
D02*
G37*
G36*
X01276860D02*
X01241780D01*
Y01345947D01*
X01276860D01*
Y01381027D01*
D02*
G37*
G36*
X01154530D02*
X01119450D01*
Y01345947D01*
X01154530D01*
Y01381027D01*
D02*
G37*
G36*
X01054530D02*
X01019450D01*
Y01345947D01*
X01054530D01*
Y01381027D01*
D02*
G37*
G36*
X01599200D02*
X01564120D01*
Y01346641D01*
X01564120Y01345947D01*
X01563089Y01345371D01*
X01500232D01*
X01499200Y01345947D01*
X01499200Y01346641D01*
Y01381027D01*
X01464120D01*
Y01347961D01*
X01463030Y01347527D01*
X01462850Y01347527D01*
X01444951D01*
Y01345371D01*
X01377892D01*
X01376860Y01345947D01*
X01376860Y01346641D01*
Y01381027D01*
X01341780D01*
Y01346641D01*
X01341780Y01345947D01*
X01340749Y01345371D01*
X01323241D01*
X01321754Y01345076D01*
X01320494Y01344234D01*
X01306574Y01330313D01*
X01305732Y01329053D01*
X01305436Y01327567D01*
Y01303837D01*
X01303156Y01302521D01*
X01301286Y01300651D01*
X01299965Y01298362D01*
X01299280Y01295808D01*
Y01293165D01*
X01299965Y01290611D01*
X01301286Y01288322D01*
X01303156Y01286453D01*
X01305445Y01285131D01*
X01307999Y01284447D01*
X01310642D01*
X01313196Y01285131D01*
X01315485Y01286453D01*
X01317354Y01288322D01*
X01318676Y01290611D01*
X01319360Y01293165D01*
Y01295808D01*
X01318676Y01298362D01*
X01317354Y01300651D01*
X01315485Y01302521D01*
X01313205Y01303837D01*
Y01325957D01*
X01324850Y01337602D01*
X01444951D01*
Y01335447D01*
X01463030D01*
Y01337602D01*
X01661381D01*
X01664106Y01334877D01*
Y01279737D01*
X01664402Y01278250D01*
X01665244Y01276990D01*
X01670558Y01271675D01*
X01671819Y01270833D01*
X01673305Y01270537D01*
X01790659D01*
Y01265382D01*
X01802739D01*
Y01283462D01*
X01790659D01*
Y01278307D01*
X01674914D01*
X01671875Y01281346D01*
Y01336487D01*
X01671579Y01337973D01*
X01670737Y01339234D01*
X01665737Y01344234D01*
X01664477Y01345076D01*
X01662990Y01345371D01*
X01600232D01*
X01599200Y01345947D01*
X01599200Y01346641D01*
Y01381027D01*
D02*
G37*
G36*
X01949280Y01328527D02*
Y01328527D01*
X01948967Y01328527D01*
X01931201D01*
Y01316447D01*
X01949280D01*
Y01316447D01*
X01950201D01*
Y01316447D01*
X01968280D01*
Y01328527D01*
X01950514D01*
X01950201Y01328527D01*
Y01328527D01*
X01949280D01*
D02*
G37*
G36*
X01387993Y01324527D02*
X01385988D01*
X01384135Y01323759D01*
X01382718Y01322341D01*
X01381950Y01320489D01*
Y01318484D01*
X01382649Y01316797D01*
X01382379Y01316090D01*
X01382027Y01315527D01*
X01377950D01*
Y01303447D01*
X01396030D01*
Y01315527D01*
X01391954D01*
X01391602Y01316090D01*
X01391331Y01316797D01*
X01392030Y01318484D01*
Y01320489D01*
X01391263Y01322341D01*
X01389845Y01323759D01*
X01387993Y01324527D01*
D02*
G37*
G36*
X01463030Y01328527D02*
X01444951D01*
Y01316447D01*
X01444950D01*
Y01315527D01*
X01444951D01*
Y01303447D01*
X01463030D01*
Y01305602D01*
X01504445D01*
X01504612Y01304332D01*
X01502785Y01303842D01*
X01500496Y01302521D01*
X01498626Y01300651D01*
X01497310Y01298371D01*
X01477490D01*
X01476004Y01298076D01*
X01474743Y01297233D01*
X01471881Y01294371D01*
X01463030D01*
Y01296527D01*
X01444951D01*
Y01296527D01*
X01444030D01*
Y01296527D01*
X01425950D01*
Y01284447D01*
X01444030D01*
Y01284447D01*
X01444951D01*
Y01284447D01*
X01463030D01*
Y01286602D01*
X01473490D01*
X01474977Y01286898D01*
X01476237Y01287740D01*
X01479099Y01290602D01*
X01497310D01*
X01498626Y01288322D01*
X01500496Y01286453D01*
X01502785Y01285131D01*
X01505339Y01284447D01*
X01507982D01*
X01510536Y01285131D01*
X01512825Y01286453D01*
X01514694Y01288322D01*
X01516016Y01290611D01*
X01516700Y01293165D01*
Y01295808D01*
X01516016Y01298362D01*
X01514694Y01300651D01*
X01512825Y01302521D01*
X01510536Y01303842D01*
X01508708Y01304332D01*
X01508876Y01305602D01*
X01515051D01*
X01522302Y01298351D01*
X01521620Y01295808D01*
Y01293165D01*
X01522305Y01290611D01*
X01523626Y01288322D01*
X01525496Y01286453D01*
X01527785Y01285131D01*
X01530339Y01284447D01*
X01532982D01*
X01535536Y01285131D01*
X01537825Y01286453D01*
X01539694Y01288322D01*
X01541016Y01290611D01*
X01541700Y01293165D01*
Y01295808D01*
X01541019Y01298351D01*
X01548270Y01305602D01*
X01554445D01*
X01554612Y01304332D01*
X01552785Y01303842D01*
X01550496Y01302521D01*
X01548626Y01300651D01*
X01547305Y01298362D01*
X01546620Y01295808D01*
Y01293165D01*
X01547305Y01290611D01*
X01548626Y01288322D01*
X01550496Y01286453D01*
X01552785Y01285131D01*
X01555339Y01284447D01*
X01557982D01*
X01560536Y01285131D01*
X01562825Y01286453D01*
X01564694Y01288322D01*
X01566011Y01290602D01*
X01584131D01*
X01586994Y01287740D01*
X01588254Y01286898D01*
X01589740Y01286602D01*
X01600200D01*
Y01284447D01*
X01618280D01*
Y01284447D01*
X01619200Y01284447D01*
Y01284447D01*
X01637280D01*
Y01296527D01*
X01619200D01*
Y01296527D01*
X01618280Y01296527D01*
Y01296527D01*
X01600200D01*
Y01294371D01*
X01591349D01*
X01588487Y01297233D01*
X01587227Y01298076D01*
X01585741Y01298371D01*
X01566011D01*
X01564694Y01300651D01*
X01562825Y01302521D01*
X01560536Y01303842D01*
X01558708Y01304332D01*
X01558876Y01305602D01*
X01600200D01*
Y01303447D01*
X01617930D01*
X01618280Y01303447D01*
X01619550Y01303447D01*
X01637280D01*
Y01315527D01*
X01633204D01*
X01632852Y01316090D01*
X01632581Y01316797D01*
X01633280Y01318484D01*
Y01320489D01*
X01632513Y01322342D01*
X01631095Y01323759D01*
X01629243Y01324527D01*
X01627238D01*
X01625385Y01323759D01*
X01623968Y01322342D01*
X01623200Y01320489D01*
Y01318484D01*
X01623899Y01316797D01*
X01623629Y01316090D01*
X01623277Y01315527D01*
X01619550D01*
X01619200Y01315527D01*
X01617930Y01315527D01*
X01600200D01*
Y01313371D01*
X01546660D01*
X01545174Y01313076D01*
X01543914Y01312233D01*
X01535525Y01303845D01*
X01532982Y01304527D01*
X01530339D01*
X01527796Y01303845D01*
X01519407Y01312233D01*
X01518147Y01313076D01*
X01516660Y01313371D01*
X01463030D01*
Y01315527D01*
X01463031D01*
Y01316447D01*
X01463030D01*
Y01328527D01*
D02*
G37*
G36*
X01968280Y01309527D02*
X01950201D01*
Y01297447D01*
X01950200D01*
Y01296895D01*
X01949310Y01295625D01*
X01946281D01*
Y01296527D01*
X01929200D01*
Y01277447D01*
X01946281D01*
Y01285348D01*
X01950201D01*
Y01284447D01*
X01968280D01*
Y01296527D01*
X01968280D01*
Y01297447D01*
X01968280D01*
Y01309527D01*
D02*
G37*
G36*
X01285642Y01304527D02*
X01282999D01*
X01280445Y01303842D01*
X01278156Y01302521D01*
X01276286Y01300651D01*
X01274970Y01298371D01*
X01255240D01*
X01253754Y01298076D01*
X01252494Y01297233D01*
X01249631Y01294371D01*
X01240780D01*
Y01296527D01*
X01222701D01*
Y01284447D01*
X01240780D01*
Y01286602D01*
X01251240D01*
X01252727Y01286898D01*
X01253987Y01287740D01*
X01256850Y01290602D01*
X01274970D01*
X01276286Y01288322D01*
X01278156Y01286453D01*
X01280445Y01285131D01*
X01282999Y01284447D01*
X01285642D01*
X01288196Y01285131D01*
X01290485Y01286453D01*
X01292354Y01288322D01*
X01293676Y01290611D01*
X01294360Y01293165D01*
Y01295808D01*
X01293676Y01298362D01*
X01292354Y01300651D01*
X01290485Y01302521D01*
X01288196Y01303842D01*
X01285642Y01304527D01*
D02*
G37*
G36*
X01840280Y01319527D02*
X01823200D01*
Y01308447D01*
X01827102D01*
Y01296527D01*
X01823200D01*
Y01284447D01*
X01841280D01*
Y01296527D01*
X01837379D01*
Y01308447D01*
X01840280D01*
Y01319527D01*
D02*
G37*
G36*
X01335642Y01304527D02*
X01332999D01*
X01330445Y01303842D01*
X01328156Y01302521D01*
X01326286Y01300651D01*
X01324965Y01298362D01*
X01324280Y01295808D01*
Y01293165D01*
X01324965Y01290611D01*
X01326286Y01288322D01*
X01328156Y01286453D01*
X01330445Y01285131D01*
X01332999Y01284447D01*
X01335642D01*
X01338196Y01285131D01*
X01340485Y01286453D01*
X01342354Y01288322D01*
X01343671Y01290602D01*
X01361881D01*
X01364744Y01287740D01*
X01366004Y01286898D01*
X01367491Y01286602D01*
X01377950D01*
Y01284447D01*
X01396030D01*
Y01296527D01*
X01377950D01*
Y01294371D01*
X01369099D01*
X01366237Y01297233D01*
X01364977Y01298076D01*
X01363490Y01298371D01*
X01343671D01*
X01342354Y01300651D01*
X01340485Y01302521D01*
X01338196Y01303842D01*
X01335642Y01304527D01*
D02*
G37*
G36*
X01113312D02*
X01110669D01*
X01108115Y01303842D01*
X01105826Y01302521D01*
X01103956Y01300651D01*
X01102635Y01298362D01*
X01101951Y01295808D01*
Y01293165D01*
X01102635Y01290611D01*
X01103956Y01288322D01*
X01105826Y01286453D01*
X01108115Y01285131D01*
X01110669Y01284447D01*
X01113312D01*
X01115866Y01285131D01*
X01118155Y01286453D01*
X01120024Y01288322D01*
X01121346Y01290611D01*
X01122030Y01293165D01*
Y01295808D01*
X01121346Y01298362D01*
X01120024Y01300651D01*
X01118155Y01302521D01*
X01115866Y01303842D01*
X01113312Y01304527D01*
D02*
G37*
G36*
X01088312D02*
X01085669D01*
X01083115Y01303842D01*
X01080826Y01302521D01*
X01078956Y01300651D01*
X01077635Y01298362D01*
X01076950Y01295808D01*
Y01293165D01*
X01077635Y01290611D01*
X01078956Y01288322D01*
X01080826Y01286453D01*
X01083115Y01285131D01*
X01085669Y01284447D01*
X01088312D01*
X01090866Y01285131D01*
X01093155Y01286453D01*
X01095024Y01288322D01*
X01096346Y01290611D01*
X01097030Y01293165D01*
Y01295808D01*
X01096346Y01298362D01*
X01095024Y01300651D01*
X01093155Y01302521D01*
X01090866Y01303842D01*
X01088312Y01304527D01*
D02*
G37*
G36*
X01063312D02*
X01060669D01*
X01058115Y01303842D01*
X01055826Y01302521D01*
X01053956Y01300651D01*
X01052635Y01298362D01*
X01051950Y01295808D01*
Y01293165D01*
X01052635Y01290611D01*
X01053956Y01288322D01*
X01055826Y01286453D01*
X01058115Y01285131D01*
X01060669Y01284447D01*
X01063312D01*
X01065866Y01285131D01*
X01068155Y01286453D01*
X01070024Y01288322D01*
X01071346Y01290611D01*
X01072030Y01293165D01*
Y01295808D01*
X01071346Y01298362D01*
X01070024Y01300651D01*
X01068155Y01302521D01*
X01065866Y01303842D01*
X01063312Y01304527D01*
D02*
G37*
G36*
X01015490Y01268039D02*
X01015484Y01268038D01*
X01015479Y01268039D01*
X01014445Y01268038D01*
X01014150Y01267979D01*
X01013848Y01267979D01*
X01011821Y01267574D01*
X01011543Y01267459D01*
X01011247Y01267400D01*
X01009337Y01266607D01*
X01009087Y01266440D01*
X01008809Y01266324D01*
X01007090Y01265175D01*
X01006877Y01264961D01*
X01006627Y01264794D01*
X01005165Y01263331D01*
X01004998Y01263081D01*
X01004785Y01262868D01*
X01003637Y01261148D01*
X01003522Y01260870D01*
X01003355Y01260620D01*
X01002564Y01258709D01*
X01002505Y01258413D01*
X01002390Y01258135D01*
X01001987Y01256107D01*
X01001987Y01255806D01*
X01001928Y01255511D01*
Y01254477D01*
Y00974477D01*
Y00973442D01*
X01001987Y00973147D01*
Y00972845D01*
X01002390Y00970816D01*
X01002505Y00970538D01*
X01002564Y00970242D01*
X01003356Y00968331D01*
X01003523Y00968080D01*
X01003639Y00967802D01*
X01004788Y00966081D01*
X01005001Y00965869D01*
X01005169Y00965618D01*
X01006632Y00964155D01*
X01006882Y00963988D01*
X01007095Y00963774D01*
X01008816Y00962625D01*
X01009094Y00962510D01*
X01009344Y00962342D01*
X01011256Y00961551D01*
X01011552Y00961492D01*
X01011830Y00961376D01*
X01013859Y00960973D01*
X01014160D01*
X01014456Y00960914D01*
X01015490D01*
X01015495Y00960915D01*
X01015499Y00960914D01*
X01765490Y00960914D01*
X01766525D01*
X01766820Y00960973D01*
X01767122D01*
X01769151Y00961376D01*
X01769429Y00961492D01*
X01769725Y00961551D01*
X01771636Y00962342D01*
X01771887Y00962510D01*
X01772165Y00962625D01*
X01773886Y00963774D01*
X01774099Y00963988D01*
X01774349Y00964155D01*
X01775812Y00965618D01*
X01775980Y00965869D01*
X01776192Y00966081D01*
X01777342Y00967802D01*
X01777457Y00968080D01*
X01777625Y00968331D01*
X01778416Y00970242D01*
X01778475Y00970538D01*
X01778591Y00970816D01*
X01778994Y00972845D01*
Y00973147D01*
X01779053Y00973442D01*
Y01005581D01*
X01778820Y01006752D01*
X01777982Y01008775D01*
X01777319Y01009767D01*
X01775993Y01011093D01*
X01776892Y01011991D01*
X01777555Y01012984D01*
X01778316Y01014821D01*
X01778549Y01015992D01*
Y01017981D01*
X01778316Y01019152D01*
X01777555Y01020989D01*
X01776892Y01021982D01*
X01775637Y01023237D01*
X01776892Y01024491D01*
X01777555Y01025484D01*
X01778316Y01027321D01*
X01778549Y01028492D01*
Y01030481D01*
X01778316Y01031652D01*
X01777555Y01033489D01*
X01776892Y01034482D01*
X01775637Y01035737D01*
X01776892Y01036991D01*
X01777555Y01037984D01*
X01778316Y01039821D01*
X01778549Y01040992D01*
Y01042981D01*
X01778316Y01044152D01*
X01777555Y01045989D01*
X01776892Y01046982D01*
X01775637Y01048237D01*
X01776892Y01049491D01*
X01777555Y01050484D01*
X01778316Y01052321D01*
X01778549Y01053492D01*
Y01055481D01*
X01778316Y01056652D01*
X01777555Y01058489D01*
X01776892Y01059482D01*
X01775637Y01060737D01*
X01776892Y01061991D01*
X01777555Y01062984D01*
X01778316Y01064821D01*
X01778549Y01065992D01*
Y01067981D01*
X01778316Y01069152D01*
X01777555Y01070989D01*
X01776892Y01071982D01*
X01775637Y01073237D01*
X01776892Y01074492D01*
X01777555Y01075484D01*
X01778316Y01077321D01*
X01778435Y01077919D01*
X01779783Y01078187D01*
X01780107Y01077703D01*
X01789950Y01067859D01*
Y01054047D01*
X01811030D01*
Y01059448D01*
X01816950D01*
Y01055447D01*
X01829030D01*
Y01073527D01*
X01816950D01*
Y01069725D01*
X01811030D01*
Y01075127D01*
X01797218D01*
X01794071Y01078273D01*
X01794557Y01079447D01*
X01811030D01*
Y01084848D01*
X01848951D01*
Y01080947D01*
X01848950D01*
X01848950Y01080026D01*
X01848950D01*
Y01061947D01*
X01861030D01*
Y01080026D01*
X01861030D01*
X01861030Y01080947D01*
X01861030D01*
Y01099027D01*
X01848951D01*
Y01095125D01*
X01811030D01*
Y01100527D01*
X01789951D01*
X01788879Y01101006D01*
Y01104367D01*
X01789951Y01104847D01*
X01811030D01*
Y01125927D01*
X01794557D01*
X01794071Y01127100D01*
X01797218Y01130247D01*
X01811030D01*
Y01135648D01*
X01820450D01*
Y01129947D01*
X01833263D01*
X01836357Y01126853D01*
X01838024Y01125739D01*
X01839990Y01125348D01*
X01854450D01*
Y01121947D01*
X01871530D01*
Y01125348D01*
X01875950D01*
Y01124447D01*
X01894030D01*
Y01124447D01*
X01894951D01*
Y01124447D01*
X01913030D01*
Y01124447D01*
X01913951D01*
Y01124447D01*
X01932030D01*
Y01136527D01*
X01913951D01*
Y01136527D01*
X01913030D01*
Y01136527D01*
X01894951D01*
Y01136527D01*
X01894030D01*
Y01136527D01*
X01875950D01*
Y01135625D01*
X01871530D01*
Y01139027D01*
X01854450D01*
Y01135625D01*
X01842119D01*
X01840530Y01137214D01*
Y01151027D01*
X01820450D01*
Y01145925D01*
X01811030D01*
Y01151327D01*
X01789950D01*
Y01137514D01*
X01780107Y01127670D01*
X01779393Y01126602D01*
X01778267Y01127203D01*
X01778316Y01127321D01*
X01778549Y01128492D01*
Y01130481D01*
X01778316Y01131652D01*
X01777555Y01133489D01*
X01776892Y01134482D01*
X01775637Y01135737D01*
X01776892Y01136992D01*
X01777555Y01137984D01*
X01778316Y01139821D01*
X01778549Y01140992D01*
Y01142981D01*
X01778316Y01144152D01*
X01777555Y01145989D01*
X01776892Y01146982D01*
X01775637Y01148237D01*
X01776892Y01149492D01*
X01777555Y01150484D01*
X01778316Y01152321D01*
X01778549Y01153492D01*
Y01155481D01*
X01778316Y01156652D01*
X01777555Y01158489D01*
X01776892Y01159482D01*
X01775637Y01160737D01*
X01776892Y01161992D01*
X01777555Y01162984D01*
X01778316Y01164821D01*
X01778549Y01165992D01*
Y01167981D01*
X01778316Y01169152D01*
X01777555Y01170989D01*
X01776892Y01171982D01*
X01775637Y01173237D01*
X01776892Y01174492D01*
X01777555Y01175484D01*
X01778316Y01177321D01*
X01778549Y01178492D01*
Y01180481D01*
X01778316Y01181652D01*
X01777555Y01183489D01*
X01776892Y01184482D01*
X01775637Y01185737D01*
X01776892Y01186992D01*
X01777555Y01187984D01*
X01778316Y01189821D01*
X01778549Y01190992D01*
Y01192981D01*
X01778316Y01194152D01*
X01777555Y01195989D01*
X01776892Y01196982D01*
X01775637Y01198237D01*
X01776892Y01199492D01*
X01777555Y01200484D01*
X01778316Y01202321D01*
X01778549Y01203492D01*
Y01205481D01*
X01778316Y01206652D01*
X01777555Y01208489D01*
X01776892Y01209482D01*
X01775637Y01210737D01*
X01776892Y01211992D01*
X01777555Y01212984D01*
X01778316Y01214821D01*
X01778549Y01215992D01*
Y01217981D01*
X01778316Y01219152D01*
X01777555Y01220989D01*
X01776892Y01221982D01*
X01776627Y01222247D01*
X01776668Y01223516D01*
X01776896Y01223717D01*
X01777230Y01224152D01*
X01777577Y01224577D01*
X01778520Y01226348D01*
X01778678Y01226873D01*
X01778853Y01227393D01*
X01778965Y01228257D01*
X01778983Y01228339D01*
X01778989Y01228667D01*
X01779053Y01228989D01*
Y01255511D01*
X01778994Y01255807D01*
Y01256108D01*
X01778591Y01258137D01*
X01778475Y01258416D01*
X01778416Y01258711D01*
X01777625Y01260623D01*
X01777457Y01260873D01*
X01777342Y01261151D01*
X01776192Y01262872D01*
X01775979Y01263085D01*
X01775812Y01263335D01*
X01774349Y01264798D01*
X01774099Y01264966D01*
X01773885Y01265179D01*
X01772165Y01266328D01*
X01771887Y01266443D01*
X01771636Y01266611D01*
X01769725Y01267403D01*
X01769429Y01267461D01*
X01769151Y01267577D01*
X01767122Y01267980D01*
X01766821D01*
X01766525Y01268039D01*
X01765490Y01268039D01*
X01015490Y01268039D01*
D02*
G37*
G36*
X01780312Y01304527D02*
X01777669D01*
X01775115Y01303842D01*
X01772826Y01302521D01*
X01770956Y01300651D01*
X01769635Y01298362D01*
X01768950Y01295808D01*
Y01293165D01*
X01769635Y01290611D01*
X01770956Y01288322D01*
X01772826Y01286453D01*
X01775115Y01285131D01*
X01777669Y01284447D01*
X01780312D01*
X01782866Y01285131D01*
X01785155Y01286453D01*
X01787024Y01288322D01*
X01788341Y01290602D01*
X01806881D01*
X01811814Y01285669D01*
Y01283462D01*
X01809659D01*
Y01265382D01*
X01821739D01*
Y01283462D01*
X01819583D01*
Y01287278D01*
X01819288Y01288765D01*
X01818446Y01290025D01*
X01811237Y01297233D01*
X01809977Y01298076D01*
X01808490Y01298371D01*
X01788341D01*
X01787024Y01300651D01*
X01785155Y01302521D01*
X01782866Y01303842D01*
X01780312Y01304527D01*
D02*
G37*
G36*
X01854280Y01349527D02*
X01842200D01*
Y01331447D01*
X01854280D01*
Y01336602D01*
X01860381D01*
X01863666Y01333318D01*
Y01312906D01*
X01860787Y01310027D01*
X01849200D01*
Y01298947D01*
X01865102D01*
Y01296527D01*
X01861201D01*
Y01284447D01*
X01870744D01*
X01871241Y01284348D01*
X01883201D01*
Y01277447D01*
X01886602D01*
Y01261625D01*
X01856240D01*
X01854274Y01261234D01*
X01852607Y01260120D01*
X01848607Y01256120D01*
X01847493Y01254453D01*
X01847102Y01252487D01*
Y01244615D01*
X01840862Y01238375D01*
X01831131D01*
X01830791Y01239645D01*
X01832362Y01240553D01*
X01834324Y01242515D01*
X01835712Y01244918D01*
X01836430Y01247599D01*
Y01250374D01*
X01835712Y01253055D01*
X01835505Y01253413D01*
X01839124Y01257032D01*
X01840238Y01258699D01*
X01840629Y01260666D01*
Y01265447D01*
X01841280D01*
Y01277527D01*
X01823200D01*
Y01265447D01*
X01830352D01*
Y01262794D01*
X01827084Y01259527D01*
X01824503D01*
X01821822Y01258808D01*
X01819419Y01257421D01*
X01817456Y01255458D01*
X01816069Y01253055D01*
X01815350Y01250374D01*
Y01247599D01*
X01816069Y01244918D01*
X01817456Y01242515D01*
X01819419Y01240553D01*
X01820990Y01239645D01*
X01820650Y01238375D01*
X01812271D01*
X01811030Y01238447D01*
Y01259527D01*
X01789950D01*
Y01238447D01*
X01795352D01*
Y01236237D01*
X01795743Y01234270D01*
X01796857Y01232603D01*
X01799857Y01229603D01*
X01801064Y01228797D01*
X01800678Y01227527D01*
X01789950D01*
Y01206447D01*
X01811030D01*
Y01216348D01*
X01815862D01*
X01820227Y01211983D01*
Y01175990D01*
X01815562Y01171325D01*
X01811030D01*
Y01176727D01*
X01789950D01*
Y01155647D01*
X01811030D01*
Y01161048D01*
X01817690D01*
X01819657Y01161439D01*
X01821324Y01162553D01*
X01828999Y01170228D01*
X01830113Y01171895D01*
X01830504Y01173862D01*
Y01211983D01*
X01834869Y01216348D01*
X01861201D01*
Y01215447D01*
X01879281D01*
Y01216348D01*
X01894700D01*
Y01215447D01*
X01934780D01*
Y01216348D01*
X01950201D01*
Y01215447D01*
X01968280D01*
Y01227527D01*
X01950201D01*
Y01226625D01*
X01934780D01*
Y01234527D01*
X01922345D01*
Y01277447D01*
X01923280D01*
Y01296527D01*
X01906201D01*
Y01277447D01*
X01907135D01*
Y01234527D01*
X01894700D01*
Y01226625D01*
X01879281D01*
Y01227527D01*
X01861201D01*
Y01226625D01*
X01832740D01*
X01830774Y01226234D01*
X01829107Y01225120D01*
X01825365Y01221379D01*
X01821624Y01225120D01*
X01819957Y01226234D01*
X01817990Y01226625D01*
X01812025D01*
X01811962Y01226870D01*
X01812957Y01228098D01*
X01842990D01*
X01844957Y01228489D01*
X01846624Y01229603D01*
X01855874Y01238853D01*
X01856988Y01240520D01*
X01857379Y01242487D01*
Y01250358D01*
X01858369Y01251348D01*
X01888811D01*
X01890778Y01251739D01*
X01892445Y01252853D01*
X01895374Y01255782D01*
X01896488Y01257449D01*
X01896879Y01259416D01*
Y01277447D01*
X01900280D01*
Y01296527D01*
X01883201D01*
Y01294625D01*
X01879281D01*
Y01296527D01*
X01875379D01*
Y01300487D01*
X01875280Y01300983D01*
Y01301489D01*
X01875087Y01301957D01*
X01874988Y01302453D01*
X01874707Y01302874D01*
X01874513Y01303342D01*
X01874155Y01303700D01*
X01873874Y01304120D01*
X01873454Y01304401D01*
X01873095Y01304759D01*
X01872628Y01304953D01*
X01872207Y01305234D01*
X01871711Y01305333D01*
X01871243Y01305527D01*
X01870737D01*
X01870240Y01305625D01*
X01869744Y01305527D01*
X01869238D01*
X01869080Y01305592D01*
X01868722Y01306974D01*
X01870297Y01308550D01*
X01871139Y01309810D01*
X01871435Y01311297D01*
Y01334927D01*
X01871139Y01336413D01*
X01870297Y01337673D01*
X01864737Y01343233D01*
X01863477Y01344076D01*
X01861990Y01344371D01*
X01854280D01*
Y01349527D01*
D02*
G37*
G36*
X01968280Y01277527D02*
X01950201D01*
Y01265447D01*
X01954102D01*
Y01246527D01*
X01950201D01*
Y01234447D01*
X01968280D01*
Y01246527D01*
X01964379D01*
Y01265447D01*
X01968280D01*
Y01277527D01*
D02*
G37*
G36*
X01914491Y01101487D02*
X01897491D01*
Y01080027D01*
X01893875D01*
X01893031Y01080947D01*
X01893031Y01081297D01*
Y01099027D01*
X01880950D01*
Y01099027D01*
X01880030D01*
Y01099027D01*
X01867950D01*
Y01081297D01*
X01867950Y01080027D01*
X01867950Y01079677D01*
Y01061947D01*
X01880030D01*
Y01065102D01*
X01880950Y01065947D01*
X01902030D01*
Y01065947D01*
X01902950D01*
Y01065947D01*
X01924030D01*
Y01065947D01*
X01924951D01*
Y01065947D01*
X01946030D01*
Y01080027D01*
X01924951D01*
Y01080027D01*
X01924030D01*
Y01080027D01*
X01914491D01*
Y01082422D01*
X01963107D01*
X01965176Y01080353D01*
Y00998870D01*
X01964107Y00997801D01*
X01923030D01*
Y01014027D01*
X01923875Y01014947D01*
X01924030D01*
Y01020348D01*
X01927990D01*
X01928487Y01020447D01*
X01928993D01*
X01929461Y01020640D01*
X01929957Y01020739D01*
X01930378Y01021020D01*
X01930845Y01021214D01*
X01931203Y01021572D01*
X01931624Y01021853D01*
X01931905Y01022274D01*
X01932263Y01022632D01*
X01932457Y01023099D01*
X01932738Y01023520D01*
X01932837Y01024016D01*
X01933030Y01024484D01*
Y01024990D01*
X01933129Y01025487D01*
X01933030Y01025983D01*
Y01026489D01*
X01932837Y01026957D01*
X01932738Y01027453D01*
X01932457Y01027874D01*
X01932263Y01028342D01*
X01931905Y01028699D01*
X01931624Y01029120D01*
X01931203Y01029401D01*
X01930845Y01029759D01*
X01930378Y01029953D01*
X01929957Y01030234D01*
X01929461Y01030333D01*
X01928993Y01030527D01*
X01928487D01*
X01927990Y01030625D01*
X01924030D01*
Y01036027D01*
X01909950D01*
Y01014947D01*
X01910105D01*
X01910950Y01014027D01*
Y00997801D01*
X01889990D01*
Y00999737D01*
X01881555D01*
Y01002487D01*
X01882490D01*
Y01014947D01*
X01895030D01*
Y01036027D01*
X01880950D01*
X01880030Y01036872D01*
Y01042027D01*
X01867950D01*
Y01025487D01*
X01865491D01*
Y01002487D01*
X01866426D01*
Y00999737D01*
X01863990D01*
Y00997801D01*
X01831490D01*
X01829532Y00997543D01*
X01827708Y00996788D01*
X01826141Y00995586D01*
X01816641Y00986086D01*
X01815439Y00984519D01*
X01814683Y00982694D01*
X01814426Y00980737D01*
Y00977737D01*
X01809990D01*
Y00951737D01*
X01812450D01*
Y00932197D01*
X01812450D01*
Y00931276D01*
X01812450D01*
Y00925875D01*
X01806030D01*
Y00931277D01*
X01791950D01*
Y00910197D01*
X01806030D01*
Y00915598D01*
X01812450D01*
Y00910546D01*
X01812450Y00910197D01*
Y00909277D01*
X01812450Y00908927D01*
Y00888197D01*
X01812450D01*
Y00887276D01*
X01812450D01*
Y00881875D01*
X01806030D01*
Y00887277D01*
X01791950D01*
Y00866197D01*
X01806030D01*
Y00871598D01*
X01812450D01*
Y00866546D01*
X01812450Y00866197D01*
Y00865276D01*
X01812450Y00864927D01*
Y00844196D01*
X01812450D01*
X01812450Y00843277D01*
X01812450D01*
Y00837875D01*
X01806030D01*
Y00843277D01*
X01791950D01*
Y00822197D01*
X01806030D01*
Y00827598D01*
X01812450D01*
Y00822197D01*
X01831530D01*
Y00843277D01*
X01831530D01*
X01831530Y00844196D01*
X01831530D01*
Y00864927D01*
X01831530Y00865276D01*
Y00866197D01*
X01831530Y00866546D01*
Y00887276D01*
X01831530D01*
Y00888197D01*
X01831530D01*
Y00908927D01*
X01831530Y00909277D01*
Y00910197D01*
X01831530Y00910546D01*
Y00931276D01*
X01831530D01*
Y00932197D01*
X01831530D01*
Y00951737D01*
X01833990D01*
Y00977737D01*
X01831348D01*
X01830862Y00978910D01*
X01834624Y00982672D01*
X01863990D01*
Y00980737D01*
X01889990D01*
Y00982672D01*
X01967240D01*
X01969198Y00982930D01*
X01971023Y00983685D01*
X01972590Y00984887D01*
X01978089Y00990388D01*
X01979292Y00991954D01*
X01980047Y00993779D01*
X01980305Y00995737D01*
Y01083486D01*
X01980305Y01083487D01*
X01980176Y01084466D01*
X01980047Y01085444D01*
X01979292Y01087269D01*
X01978089Y01088836D01*
X01971590Y01095336D01*
X01970023Y01096538D01*
X01968198Y01097294D01*
X01966241Y01097551D01*
X01914491D01*
Y01101487D01*
D02*
G37*
G36*
X00920280Y01068277D02*
X00908200D01*
Y01064375D01*
X00904240D01*
X00904240Y01064375D01*
X00903744Y01064277D01*
X00903238D01*
X00902770Y01064083D01*
X00902274Y01063984D01*
X00901853Y01063703D01*
X00901385Y01063509D01*
X00901028Y01063151D01*
X00900607Y01062870D01*
X00900326Y01062449D01*
X00899968Y01062092D01*
X00899774Y01061624D01*
X00899493Y01061203D01*
X00899394Y01060707D01*
X00899200Y01060239D01*
Y01059733D01*
X00899102Y01059237D01*
X00899200Y01058740D01*
Y01058234D01*
X00899394Y01057766D01*
X00899493Y01057270D01*
X00899774Y01056849D01*
X00899968Y01056382D01*
X00900326Y01056024D01*
X00900607Y01055603D01*
X00901028Y01055322D01*
X00901385Y01054964D01*
X00901853Y01054770D01*
X00902274Y01054489D01*
X00902770Y01054390D01*
X00903238Y01054197D01*
X00903744D01*
X00904240Y01054098D01*
X00908200D01*
Y01050197D01*
X00908200D01*
X00908150Y01049277D01*
X00908150D01*
X00908150Y01048947D01*
Y01026197D01*
X00920230D01*
Y01049277D01*
X00920230D01*
X00920281Y01050197D01*
X00920280D01*
X00920280Y01050526D01*
Y01068277D01*
D02*
G37*
G36*
X01946030Y01051027D02*
X01924951D01*
Y01036947D01*
X01946030D01*
Y01038848D01*
X01949990D01*
X01950487Y01038947D01*
X01950993D01*
X01951461Y01039140D01*
X01951957Y01039239D01*
X01952378Y01039520D01*
X01952845Y01039714D01*
X01953203Y01040072D01*
X01953624Y01040353D01*
X01953905Y01040774D01*
X01954263Y01041132D01*
X01954457Y01041599D01*
X01954738Y01042020D01*
X01954837Y01042516D01*
X01955030Y01042984D01*
Y01043490D01*
X01955129Y01043987D01*
X01955030Y01044483D01*
Y01044989D01*
X01954837Y01045457D01*
X01954738Y01045953D01*
X01954457Y01046374D01*
X01954263Y01046842D01*
X01953905Y01047199D01*
X01953624Y01047620D01*
X01953203Y01047901D01*
X01952845Y01048259D01*
X01952378Y01048453D01*
X01951957Y01048734D01*
X01951461Y01048833D01*
X01950993Y01049027D01*
X01950487D01*
X01949990Y01049125D01*
X01946030D01*
Y01051027D01*
D02*
G37*
G36*
X01811030Y01049727D02*
X01789950D01*
Y01028647D01*
X01811030D01*
Y01049727D01*
D02*
G37*
G36*
X00958330Y01049277D02*
X00946250D01*
Y01026197D01*
X00958330D01*
Y01049277D01*
D02*
G37*
G36*
X01829030Y01042027D02*
X01816950D01*
Y01023947D01*
X01816950D01*
Y01023027D01*
X01816950D01*
Y01019125D01*
X01811030D01*
Y01024327D01*
X01789950D01*
Y01003247D01*
X01811030D01*
Y01008848D01*
X01816950D01*
Y01004947D01*
X01829030D01*
Y01023027D01*
X01829030D01*
Y01023947D01*
X01829030D01*
Y01042027D01*
D02*
G37*
G36*
X01848030Y01042027D02*
Y01042027D01*
X01847717Y01042027D01*
X01835950D01*
Y01024297D01*
X01835950Y01023947D01*
Y01023027D01*
X01835950Y01022677D01*
Y01004947D01*
X01848030D01*
Y01004947D01*
X01848951D01*
Y01004947D01*
X01861030D01*
Y01022677D01*
X01861030Y01023027D01*
Y01023947D01*
X01861030Y01024297D01*
Y01042027D01*
X01849264D01*
X01848951Y01042027D01*
Y01042027D01*
X01848030D01*
D02*
G37*
G36*
X00958330Y00993277D02*
X00946250D01*
Y00970197D01*
X00958330D01*
Y00993277D01*
D02*
G37*
G36*
X01865530Y00975277D02*
X01846450D01*
Y00954197D01*
X01846450D01*
Y00953277D01*
X01846450D01*
Y00932547D01*
X01846450Y00932197D01*
Y00931276D01*
X01846450Y00930927D01*
Y00910197D01*
X01846450D01*
Y00909277D01*
X01846450D01*
Y00888547D01*
X01846450Y00888196D01*
Y00887277D01*
X01846450Y00886926D01*
Y00866197D01*
X01846450D01*
Y00865276D01*
X01846450D01*
Y00844547D01*
X01846450Y00844196D01*
X01846450Y00842926D01*
Y00822197D01*
X01865530D01*
Y00827598D01*
X01869240D01*
X01869737Y00827697D01*
X01870243D01*
X01870710Y00827890D01*
X01871207Y00827989D01*
X01871628Y00828270D01*
X01872095Y00828464D01*
X01872453Y00828822D01*
X01872874Y00829103D01*
X01873155Y00829524D01*
X01873513Y00829882D01*
X01873707Y00830349D01*
X01873988Y00830770D01*
X01874087Y00831266D01*
X01874280Y00831734D01*
Y00832240D01*
X01874379Y00832737D01*
X01874280Y00833233D01*
Y00833739D01*
X01874087Y00834207D01*
X01873988Y00834703D01*
X01873707Y00835124D01*
X01873513Y00835592D01*
X01873155Y00835949D01*
X01872874Y00836370D01*
X01872453Y00836651D01*
X01872095Y00837009D01*
X01871628Y00837203D01*
X01871207Y00837484D01*
X01870710Y00837583D01*
X01870243Y00837777D01*
X01869737D01*
X01869240Y00837875D01*
X01865530D01*
Y00842926D01*
X01865530Y00843277D01*
X01865530Y00844547D01*
Y00849598D01*
X01871950D01*
Y00844197D01*
X01886030D01*
Y00865277D01*
X01871950D01*
Y00859875D01*
X01865530D01*
Y00865276D01*
X01865530D01*
Y00866197D01*
X01865530D01*
Y00886926D01*
X01865530Y00887277D01*
Y00888196D01*
X01865530Y00888547D01*
Y00893598D01*
X01871950D01*
Y00888197D01*
X01886030D01*
Y00909277D01*
X01871950D01*
Y00903875D01*
X01865530D01*
Y00909277D01*
X01865530D01*
Y00910197D01*
X01865530D01*
Y00930927D01*
X01865530Y00931276D01*
Y00932197D01*
X01865530Y00932547D01*
Y00937598D01*
X01871950D01*
Y00932197D01*
X01886030D01*
Y00953277D01*
X01871950D01*
Y00947875D01*
X01865530D01*
Y00953277D01*
X01865530D01*
Y00954197D01*
X01865530D01*
Y00975277D01*
D02*
G37*
G36*
X00920230Y00993277D02*
X00908150D01*
Y00970526D01*
X00908150Y00970197D01*
X00908150D01*
X00908200Y00969277D01*
X00908200D01*
Y00951197D01*
X00909102D01*
Y00938737D01*
X00909493Y00936770D01*
X00910607Y00935103D01*
X00924607Y00921103D01*
X00926274Y00919989D01*
X00928240Y00919598D01*
X00959700D01*
Y00915697D01*
X00961277D01*
X00961803Y00914427D01*
X00961468Y00914091D01*
X00960700Y00912239D01*
Y00910234D01*
X00961399Y00908547D01*
X00961129Y00907840D01*
X00960777Y00907277D01*
X00959700D01*
Y00889197D01*
X00961856D01*
Y00882277D01*
X00959700D01*
Y00864197D01*
X00971780D01*
Y00881109D01*
X00971780Y00881653D01*
X00972838Y00882420D01*
X00973108Y00882375D01*
X00978700Y00876783D01*
Y00864197D01*
X00990780D01*
Y00864197D01*
X00991700D01*
Y00864197D01*
X01003780D01*
X01003856Y00862958D01*
Y00853311D01*
X01002822Y00852277D01*
X00991700D01*
X00990780Y00853121D01*
Y00855777D01*
X00978700D01*
Y00837697D01*
X00990780D01*
Y00840352D01*
X00991700Y00841197D01*
X00996356D01*
Y00832737D01*
X00996651Y00831250D01*
X00997494Y00829990D01*
X01006494Y00820990D01*
X01007754Y00820148D01*
X01009240Y00819852D01*
X01074990D01*
X01076477Y00820148D01*
X01077737Y00820990D01*
X01081987Y00825240D01*
X01082829Y00826500D01*
X01083125Y00827987D01*
Y00832197D01*
X01088280D01*
Y00844277D01*
X01070200D01*
Y00832197D01*
X01075356D01*
Y00829596D01*
X01073381Y00827621D01*
X01010850D01*
X01004125Y00834346D01*
Y00841197D01*
X01008780D01*
Y00846783D01*
X01010487Y00848490D01*
X01011329Y00849750D01*
X01011625Y00851237D01*
Y00864197D01*
X01022780D01*
Y00869352D01*
X01035700D01*
Y00864197D01*
X01035700D01*
X01035700Y00863277D01*
X01035700D01*
Y00845197D01*
X01037856D01*
Y00843346D01*
X01036050Y00841540D01*
X01034780Y00842066D01*
Y00842777D01*
X01017700D01*
Y00831697D01*
X01034780D01*
Y00833352D01*
X01037240D01*
X01038727Y00833648D01*
X01039987Y00834490D01*
X01044487Y00838990D01*
X01045329Y00840250D01*
X01045625Y00841737D01*
Y00845197D01*
X01047780D01*
Y00863277D01*
X01048625Y00864197D01*
X01054780D01*
Y00885277D01*
X01054780D01*
Y00886197D01*
X01054780D01*
Y00907277D01*
X01048625D01*
X01047780Y00908197D01*
Y00926277D01*
X01042545D01*
X01042059Y00927450D01*
X01043961Y00929352D01*
X01070200D01*
Y00927197D01*
X01088280D01*
Y00939277D01*
X01070200D01*
Y00937121D01*
X01042352D01*
X01040866Y00936826D01*
X01039605Y00935984D01*
X01032243Y00928621D01*
X01008780D01*
Y00930277D01*
X00991700D01*
X00990780Y00931122D01*
Y00933777D01*
X00978700D01*
Y00921190D01*
X00973108Y00915598D01*
X00972838Y00915554D01*
X00971780Y00916321D01*
X00971780Y00916829D01*
Y00933777D01*
X00959700D01*
Y00929875D01*
X00930369D01*
X00919379Y00940865D01*
Y00951197D01*
X00920280D01*
Y00968947D01*
X00920280Y00969277D01*
X00920281D01*
X00920230Y00970197D01*
X00920230D01*
Y00993277D01*
D02*
G37*
G36*
X01915030Y00953277D02*
X01900950D01*
Y00932197D01*
X01902852D01*
Y00928237D01*
X01902950Y00927740D01*
Y00927234D01*
X01903144Y00926767D01*
X01903243Y00926270D01*
X01903524Y00925849D01*
X01903718Y00925382D01*
X01904076Y00925024D01*
X01904357Y00924603D01*
X01904778Y00924322D01*
X01905135Y00923964D01*
X01905603Y00923770D01*
X01906024Y00923489D01*
X01906520Y00923390D01*
X01906988Y00923197D01*
X01907494D01*
X01907990Y00923098D01*
X01908487Y00923197D01*
X01908993D01*
X01909461Y00923390D01*
X01909957Y00923489D01*
X01910378Y00923770D01*
X01910845Y00923964D01*
X01911203Y00924322D01*
X01911624Y00924603D01*
X01911905Y00925024D01*
X01912263Y00925382D01*
X01912457Y00925849D01*
X01912738Y00926270D01*
X01912837Y00926766D01*
X01913030Y00927234D01*
Y00927740D01*
X01913129Y00928237D01*
Y00932197D01*
X01915030D01*
Y00953277D01*
D02*
G37*
G36*
X01191280Y00908727D02*
X01170201D01*
Y00902121D01*
X01164280D01*
Y00904277D01*
X01146200D01*
Y00904277D01*
X01145280D01*
Y00904277D01*
X01127200D01*
Y00904277D01*
X01126280Y00904277D01*
Y00904277D01*
X01114200D01*
Y00886197D01*
X01114200D01*
Y00885276D01*
X01114200D01*
Y00867197D01*
X01126280D01*
Y00872352D01*
X01127200Y00873197D01*
X01127550Y00873197D01*
X01131102D01*
Y00869237D01*
X01131200Y00868740D01*
Y00868234D01*
X01131394Y00867766D01*
X01131493Y00867270D01*
X01131774Y00866849D01*
X01131968Y00866382D01*
X01132326Y00866024D01*
X01132607Y00865603D01*
X01133027Y00865322D01*
X01133385Y00864964D01*
X01133853Y00864770D01*
X01134274Y00864489D01*
X01134770Y00864390D01*
X01135238Y00864197D01*
X01135744D01*
X01136240Y00864098D01*
X01136737Y00864197D01*
X01137243D01*
X01137711Y00864390D01*
X01138207Y00864489D01*
X01138628Y00864770D01*
X01139095Y00864964D01*
X01139453Y00865322D01*
X01139874Y00865603D01*
X01140155Y00866024D01*
X01140513Y00866382D01*
X01140707Y00866849D01*
X01140988Y00867270D01*
X01141087Y00867766D01*
X01141280Y00868234D01*
Y00868740D01*
X01141379Y00869237D01*
Y00873197D01*
X01145280D01*
Y00885277D01*
X01127550D01*
X01127125Y00885277D01*
X01126280Y00886547D01*
Y00891352D01*
X01127200Y00892197D01*
X01145280D01*
Y00892197D01*
X01146200D01*
Y00892197D01*
X01164280D01*
Y00894352D01*
X01170201D01*
Y00887647D01*
X01191280D01*
Y00908727D01*
D02*
G37*
G36*
X01672530Y00942877D02*
X01649450D01*
Y00941975D01*
X01636090D01*
X01635594Y00941877D01*
X01635088D01*
X01634621Y00941683D01*
X01634124Y00941584D01*
X01633703Y00941303D01*
X01633235Y00941109D01*
X01632878Y00940751D01*
X01632457Y00940470D01*
X01632176Y00940049D01*
X01631818Y00939691D01*
X01631624Y00939224D01*
X01631343Y00938803D01*
X01631244Y00938307D01*
X01631051Y00937839D01*
Y00937333D01*
X01630952Y00936837D01*
X01630952Y00936836D01*
Y00901387D01*
X01631343Y00899420D01*
X01632457Y00897753D01*
X01635107Y00895103D01*
X01636774Y00893989D01*
X01638740Y00893598D01*
X01648552D01*
X01649450Y00892700D01*
Y00892073D01*
X01648552Y00891175D01*
X01636090D01*
X01635594Y00891077D01*
X01635088D01*
X01634621Y00890883D01*
X01634124Y00890784D01*
X01633703Y00890503D01*
X01633235Y00890309D01*
X01632878Y00889951D01*
X01632457Y00889670D01*
X01632176Y00889249D01*
X01631818Y00888892D01*
X01631624Y00888424D01*
X01631343Y00888003D01*
X01631244Y00887507D01*
X01631051Y00887039D01*
Y00886533D01*
X01630952Y00886037D01*
X01631051Y00885540D01*
Y00885034D01*
X01631244Y00884566D01*
X01631343Y00884070D01*
X01631624Y00883649D01*
X01631818Y00883182D01*
X01632176Y00882824D01*
X01632457Y00882403D01*
X01632878Y00882122D01*
X01633235Y00881764D01*
X01633703Y00881570D01*
X01634124Y00881289D01*
X01634620Y00881190D01*
X01635088Y00880997D01*
X01635594D01*
X01636090Y00880898D01*
X01648552D01*
X01649450Y00880000D01*
X01649450Y00878727D01*
Y00867947D01*
X01649450Y00867297D01*
X01649450Y00866027D01*
Y00854597D01*
X01655852D01*
Y00848937D01*
X01655950Y00848440D01*
Y00847934D01*
X01656144Y00847467D01*
X01656243Y00846970D01*
X01656524Y00846549D01*
X01656718Y00846082D01*
X01657076Y00845724D01*
X01657357Y00845303D01*
X01657778Y00845022D01*
X01658136Y00844664D01*
X01658603Y00844470D01*
X01659024Y00844189D01*
X01659520Y00844090D01*
X01659988Y00843897D01*
X01660494D01*
X01660990Y00843798D01*
X01661487Y00843897D01*
X01661993D01*
X01662461Y00844090D01*
X01662957Y00844189D01*
X01663378Y00844470D01*
X01663845Y00844664D01*
X01664203Y00845022D01*
X01664624Y00845303D01*
X01664905Y00845724D01*
X01665263Y00846082D01*
X01665457Y00846549D01*
X01665738Y00846970D01*
X01665837Y00847467D01*
X01666030Y00847934D01*
Y00848440D01*
X01666129Y00848937D01*
Y00854597D01*
X01672530D01*
Y00866027D01*
X01672530Y00866677D01*
Y00867300D01*
X01673428Y00868198D01*
X01685890D01*
X01686387Y00868297D01*
X01686893D01*
X01687360Y00868490D01*
X01687857Y00868589D01*
X01688278Y00868870D01*
X01688745Y00869064D01*
X01689103Y00869422D01*
X01689524Y00869703D01*
X01689805Y00870124D01*
X01690163Y00870482D01*
X01690357Y00870949D01*
X01690638Y00871370D01*
X01690737Y00871867D01*
X01690930Y00872334D01*
Y00872840D01*
X01691029Y00873337D01*
X01691029Y00873337D01*
Y00908787D01*
X01690638Y00910753D01*
X01689524Y00912420D01*
X01686874Y00915070D01*
X01685207Y00916184D01*
X01683240Y00916575D01*
X01673428D01*
X01672530Y00917473D01*
Y00918100D01*
X01673428Y00918998D01*
X01704552D01*
X01705450Y00918100D01*
X01705450Y00916827D01*
Y00905397D01*
X01705450D01*
Y00904777D01*
X01705450D01*
Y00893347D01*
X01705450Y00892697D01*
X01705450Y00891427D01*
Y00879997D01*
X01705450D01*
Y00879745D01*
X01704560Y00878475D01*
X01704090D01*
X01702124Y00878084D01*
X01700457Y00876970D01*
X01694357Y00870870D01*
X01693243Y00869203D01*
X01692852Y00867237D01*
Y00852027D01*
X01691950D01*
Y00848125D01*
X01683490D01*
X01682994Y00848027D01*
X01682488D01*
X01682020Y00847833D01*
X01681524Y00847734D01*
X01681103Y00847453D01*
X01680636Y00847259D01*
X01680278Y00846901D01*
X01679857Y00846620D01*
X01679576Y00846199D01*
X01679218Y00845842D01*
X01679024Y00845374D01*
X01678743Y00844953D01*
X01678644Y00844457D01*
X01678450Y00843989D01*
Y00843483D01*
X01678352Y00842987D01*
X01678450Y00842490D01*
Y00841984D01*
X01678644Y00841516D01*
X01678743Y00841020D01*
X01679024Y00840599D01*
X01679218Y00840132D01*
X01679576Y00839774D01*
X01679857Y00839353D01*
X01680278Y00839072D01*
X01680636Y00838714D01*
X01681103Y00838520D01*
X01681524Y00838239D01*
X01682020Y00838140D01*
X01682488Y00837947D01*
X01682994D01*
X01683490Y00837848D01*
X01691950D01*
Y00833947D01*
X01704030D01*
Y00852027D01*
X01703129D01*
Y00865108D01*
X01704180Y00866159D01*
X01705450Y00865633D01*
Y00854597D01*
X01711852D01*
Y00852027D01*
X01710950D01*
Y00833947D01*
X01710950D01*
Y00833027D01*
X01710950D01*
Y00814947D01*
X01723030D01*
Y00833027D01*
X01723031D01*
Y00833947D01*
X01723030D01*
Y00852027D01*
X01722129D01*
Y00854597D01*
X01728530D01*
Y00866027D01*
X01728530Y00866677D01*
Y00867300D01*
X01729428Y00868198D01*
X01736090D01*
X01738057Y00868589D01*
X01739724Y00869703D01*
X01742624Y00872603D01*
X01743738Y00874270D01*
X01744129Y00876237D01*
Y00883137D01*
X01743738Y00885103D01*
X01742624Y00886770D01*
X01739724Y00889670D01*
X01738057Y00890784D01*
X01736090Y00891175D01*
X01729428D01*
X01728530Y00892073D01*
Y00892700D01*
X01729428Y00893598D01*
X01739740D01*
X01741707Y00893989D01*
X01743374Y00895103D01*
X01745524Y00897253D01*
X01746638Y00898920D01*
X01747029Y00900887D01*
Y00911437D01*
X01746930Y00911933D01*
Y00912439D01*
X01746737Y00912907D01*
X01746638Y00913403D01*
X01746357Y00913824D01*
X01746163Y00914292D01*
X01745805Y00914650D01*
X01745524Y00915070D01*
X01745103Y00915351D01*
X01744745Y00915709D01*
X01744278Y00915903D01*
X01743857Y00916184D01*
X01743360Y00916283D01*
X01742893Y00916477D01*
X01742387D01*
X01741890Y00916575D01*
X01741890Y00916575D01*
X01729428D01*
X01728530Y00917473D01*
Y00918100D01*
X01729428Y00918998D01*
X01751462D01*
X01752102Y00918358D01*
Y00880987D01*
X01752493Y00879020D01*
X01753607Y00877353D01*
X01757857Y00873103D01*
X01759524Y00871989D01*
X01761490Y00871598D01*
X01762950D01*
Y00866197D01*
X01777030D01*
Y00887277D01*
X01762950D01*
X01762379Y00888310D01*
Y00909163D01*
X01762950Y00910197D01*
X01763582Y00910197D01*
X01764852Y00910034D01*
Y00906237D01*
X01764950Y00905740D01*
Y00905234D01*
X01765144Y00904767D01*
X01765243Y00904270D01*
X01765524Y00903849D01*
X01765718Y00903382D01*
X01766076Y00903024D01*
X01766357Y00902603D01*
X01766778Y00902322D01*
X01767135Y00901964D01*
X01767603Y00901770D01*
X01768024Y00901489D01*
X01768520Y00901390D01*
X01768988Y00901197D01*
X01769494D01*
X01769990Y00901098D01*
X01770487Y00901197D01*
X01770993D01*
X01771461Y00901390D01*
X01771957Y00901489D01*
X01772378Y00901770D01*
X01772845Y00901964D01*
X01773203Y00902322D01*
X01773624Y00902603D01*
X01773905Y00903024D01*
X01774263Y00903382D01*
X01774457Y00903849D01*
X01774738Y00904270D01*
X01774837Y00904766D01*
X01775030Y00905234D01*
Y00905740D01*
X01775129Y00906237D01*
Y00910197D01*
X01777030D01*
Y00931277D01*
X01762950D01*
Y00923299D01*
X01761680Y00922914D01*
X01760874Y00924120D01*
X01757224Y00927770D01*
X01755557Y00928884D01*
X01753590Y00929275D01*
X01728530D01*
Y00930177D01*
X01705450D01*
Y00929275D01*
X01673428D01*
X01672530Y00930173D01*
X01672530Y00931447D01*
Y00942877D01*
D02*
G37*
G36*
X01915030Y00909277D02*
X01900950D01*
Y00888197D01*
X01902852D01*
Y00884237D01*
X01902950Y00883740D01*
Y00883234D01*
X01903144Y00882767D01*
X01903243Y00882270D01*
X01903524Y00881849D01*
X01903718Y00881382D01*
X01904076Y00881024D01*
X01904357Y00880603D01*
X01904778Y00880322D01*
X01905135Y00879964D01*
X01905603Y00879770D01*
X01906024Y00879489D01*
X01906520Y00879390D01*
X01906988Y00879197D01*
X01907494D01*
X01907990Y00879098D01*
X01908487Y00879197D01*
X01908993D01*
X01909461Y00879390D01*
X01909957Y00879489D01*
X01910378Y00879770D01*
X01910845Y00879964D01*
X01911203Y00880322D01*
X01911624Y00880603D01*
X01911905Y00881024D01*
X01912263Y00881382D01*
X01912457Y00881849D01*
X01912738Y00882270D01*
X01912837Y00882766D01*
X01913030Y00883234D01*
Y00883740D01*
X01913129Y00884237D01*
Y00888197D01*
X01915030D01*
Y00909277D01*
D02*
G37*
G36*
X01088280Y00920277D02*
X01070200D01*
Y00908197D01*
X01069700Y00907277D01*
X01069700D01*
Y00886547D01*
X01069700Y00886197D01*
Y00885277D01*
X01069700Y00884927D01*
Y00864197D01*
X01069700D01*
X01070200Y00863277D01*
Y00851197D01*
X01088280D01*
Y00863277D01*
X01088780Y00864197D01*
X01088780D01*
Y00870852D01*
X01095200D01*
Y00867197D01*
X01107280D01*
Y00884927D01*
X01107280Y00885277D01*
Y00886197D01*
X01107280Y00886547D01*
Y00904277D01*
X01095200D01*
Y00900621D01*
X01088780D01*
Y00907277D01*
X01088780D01*
X01088280Y00908197D01*
Y00920277D01*
D02*
G37*
G36*
X00971780Y00855777D02*
X00959700D01*
Y00851875D01*
X00955740D01*
X00955244Y00851777D01*
X00954738D01*
X00954270Y00851583D01*
X00953774Y00851484D01*
X00953353Y00851203D01*
X00952885Y00851009D01*
X00952527Y00850651D01*
X00952107Y00850370D01*
X00951826Y00849950D01*
X00951468Y00849592D01*
X00951274Y00849124D01*
X00950993Y00848703D01*
X00950894Y00848207D01*
X00950700Y00847739D01*
Y00847233D01*
X00950602Y00846737D01*
X00950700Y00846240D01*
Y00845734D01*
X00950894Y00845266D01*
X00950993Y00844770D01*
X00951274Y00844349D01*
X00951468Y00843882D01*
X00951826Y00843524D01*
X00952107Y00843103D01*
X00952527Y00842822D01*
X00952885Y00842464D01*
X00953353Y00842270D01*
X00953774Y00841989D01*
X00954270Y00841890D01*
X00954738Y00841697D01*
X00955244D01*
X00955740Y00841598D01*
X00959700D01*
Y00837697D01*
X00971780D01*
Y00855777D01*
D02*
G37*
G36*
X01915030Y00865277D02*
X01900950D01*
Y00844197D01*
X01902852D01*
Y00840237D01*
X01902950Y00839740D01*
Y00839234D01*
X01903144Y00838767D01*
X01903243Y00838270D01*
X01903524Y00837849D01*
X01903718Y00837382D01*
X01904076Y00837024D01*
X01904357Y00836603D01*
X01904778Y00836322D01*
X01905135Y00835964D01*
X01905603Y00835770D01*
X01906024Y00835489D01*
X01906520Y00835390D01*
X01906988Y00835197D01*
X01907494D01*
X01907990Y00835098D01*
X01908487Y00835197D01*
X01908993D01*
X01909461Y00835390D01*
X01909957Y00835489D01*
X01910378Y00835770D01*
X01910845Y00835964D01*
X01911203Y00836322D01*
X01911624Y00836603D01*
X01911905Y00837024D01*
X01912263Y00837382D01*
X01912457Y00837849D01*
X01912738Y00838270D01*
X01912837Y00838766D01*
X01913030Y00839234D01*
Y00839740D01*
X01913129Y00840237D01*
Y00844197D01*
X01915030D01*
Y00865277D01*
D02*
G37*
G36*
X01563190Y00953545D02*
X01207790D01*
X01206620Y00953313D01*
X01205628Y00952650D01*
X01204965Y00951657D01*
X01204732Y00950487D01*
Y00820487D01*
X01204965Y00819316D01*
X01205628Y00818324D01*
X01206620Y00817661D01*
X01207790Y00817428D01*
X01563190D01*
X01564361Y00817661D01*
X01565353Y00818324D01*
X01566016Y00819316D01*
X01566249Y00820487D01*
Y00950487D01*
X01566016Y00951657D01*
X01565353Y00952650D01*
X01564361Y00953313D01*
X01563190Y00953545D01*
D02*
G37*
G36*
X01777030Y00843277D02*
X01762950D01*
Y00822197D01*
X01764852D01*
Y00818237D01*
X01764950Y00817740D01*
Y00817234D01*
X01765144Y00816767D01*
X01765243Y00816270D01*
X01765524Y00815849D01*
X01765718Y00815382D01*
X01766076Y00815024D01*
X01766357Y00814603D01*
X01766778Y00814322D01*
X01767135Y00813964D01*
X01767603Y00813770D01*
X01768024Y00813489D01*
X01768520Y00813390D01*
X01768988Y00813197D01*
X01769494D01*
X01769990Y00813098D01*
X01770487Y00813197D01*
X01770993D01*
X01771461Y00813390D01*
X01771957Y00813489D01*
X01772378Y00813770D01*
X01772845Y00813964D01*
X01773203Y00814322D01*
X01773624Y00814603D01*
X01773905Y00815024D01*
X01774263Y00815382D01*
X01774457Y00815849D01*
X01774738Y00816270D01*
X01774837Y00816766D01*
X01775030Y00817234D01*
Y00817740D01*
X01775129Y00818237D01*
Y00822197D01*
X01777030D01*
Y00843277D01*
D02*
G37*
%LPD*%
G36*
X01500491Y01249914D02*
X01553105D01*
X01553631Y01248644D01*
X01518607Y01213620D01*
X01517493Y01211953D01*
X01517102Y01209987D01*
Y01174237D01*
X01517493Y01172270D01*
X01518607Y01170603D01*
X01543634Y01145575D01*
Y01047297D01*
X01540465Y01045984D01*
X01537592Y01044064D01*
X01535149Y01041621D01*
X01533229Y01038748D01*
X01531907Y01035556D01*
X01531233Y01032167D01*
Y01028712D01*
X01531907Y01025324D01*
X01533229Y01022132D01*
X01535149Y01019259D01*
X01537592Y01016816D01*
X01540465Y01014896D01*
X01543657Y01013574D01*
X01547045Y01012900D01*
X01550500D01*
X01553889Y01013574D01*
X01557081Y01014896D01*
X01559954Y01016816D01*
X01562397Y01019259D01*
X01564317Y01022132D01*
X01565639Y01025324D01*
X01566313Y01028712D01*
Y01032167D01*
X01565639Y01035556D01*
X01564317Y01038748D01*
X01562397Y01041621D01*
X01559954Y01044064D01*
X01557081Y01045984D01*
X01553912Y01047297D01*
Y01147704D01*
X01553521Y01149670D01*
X01552407Y01151338D01*
X01527379Y01176365D01*
Y01207858D01*
X01559869Y01240348D01*
X01616990D01*
X01617487Y01240447D01*
X01617993D01*
X01618461Y01240640D01*
X01618957Y01240739D01*
X01619378Y01241020D01*
X01619845Y01241214D01*
X01620203Y01241572D01*
X01620624Y01241853D01*
X01620905Y01242274D01*
X01621263Y01242632D01*
X01621457Y01243099D01*
X01621738Y01243520D01*
X01621837Y01244016D01*
X01622030Y01244484D01*
Y01244990D01*
X01622129Y01245487D01*
X01622030Y01245983D01*
Y01246489D01*
X01621837Y01246957D01*
X01621738Y01247453D01*
X01621457Y01247874D01*
X01621263Y01248342D01*
X01620961Y01248644D01*
X01620972Y01248825D01*
X01621548Y01249914D01*
X01755415Y01249914D01*
X01756046Y01249883D01*
X01757355Y01249623D01*
X01758518Y01249141D01*
X01759565Y01248441D01*
X01760455Y01247551D01*
X01761155Y01246504D01*
X01761637Y01245341D01*
X01761897Y01244032D01*
X01761928Y01243401D01*
Y01229487D01*
X01761929Y01229482D01*
X01761928Y01229478D01*
X01761929Y01228384D01*
X01762042Y01227820D01*
X01762163Y01227215D01*
X01763001Y01225194D01*
X01763344Y01224682D01*
X01763665Y01224202D01*
X01764352Y01223515D01*
X01764353Y01222245D01*
X01764089Y01221982D01*
X01763426Y01220989D01*
X01762664Y01219152D01*
X01762432Y01217981D01*
Y01215992D01*
X01762664Y01214821D01*
X01763426Y01212984D01*
X01764089Y01211992D01*
X01765344Y01210737D01*
X01764089Y01209482D01*
X01763426Y01208489D01*
X01762664Y01206652D01*
X01762432Y01205481D01*
Y01203492D01*
X01762664Y01202321D01*
X01763426Y01200484D01*
X01764089Y01199492D01*
X01765344Y01198237D01*
X01764089Y01196982D01*
X01763426Y01195989D01*
X01762664Y01194152D01*
X01762432Y01192981D01*
Y01190992D01*
X01762664Y01189821D01*
X01763426Y01187984D01*
X01764089Y01186992D01*
X01765344Y01185737D01*
X01764089Y01184482D01*
X01763426Y01183489D01*
X01762664Y01181652D01*
X01762432Y01180481D01*
Y01178492D01*
X01762664Y01177321D01*
X01763426Y01175484D01*
X01764089Y01174492D01*
X01765344Y01173237D01*
X01764089Y01171982D01*
X01763426Y01170989D01*
X01762664Y01169152D01*
X01762432Y01167981D01*
Y01165992D01*
X01762664Y01164821D01*
X01763426Y01162984D01*
X01764089Y01161992D01*
X01765344Y01160737D01*
X01764089Y01159482D01*
X01763426Y01158489D01*
X01762664Y01156652D01*
X01762432Y01155481D01*
Y01153492D01*
X01762664Y01152321D01*
X01763426Y01150484D01*
X01764089Y01149492D01*
X01765344Y01148237D01*
X01764089Y01146982D01*
X01763426Y01145989D01*
X01762664Y01144152D01*
X01762432Y01142981D01*
Y01140992D01*
X01762664Y01139821D01*
X01763426Y01137984D01*
X01764089Y01136992D01*
X01765344Y01135737D01*
X01764089Y01134482D01*
X01763426Y01133489D01*
X01762664Y01131652D01*
X01762432Y01130481D01*
Y01128492D01*
X01762664Y01127321D01*
X01763426Y01125484D01*
X01764089Y01124492D01*
X01765344Y01123237D01*
X01764089Y01121982D01*
X01763426Y01120989D01*
X01762664Y01119152D01*
X01762432Y01117981D01*
Y01115992D01*
X01762664Y01114821D01*
X01763426Y01112984D01*
X01764089Y01111992D01*
X01765344Y01110737D01*
X01764089Y01109482D01*
X01763426Y01108489D01*
X01762664Y01106652D01*
X01762432Y01105481D01*
Y01103492D01*
X01762664Y01102321D01*
X01763426Y01100484D01*
X01764089Y01099492D01*
X01765344Y01098237D01*
X01764089Y01096982D01*
X01763426Y01095989D01*
X01762664Y01094152D01*
X01762432Y01092981D01*
Y01090992D01*
X01762664Y01089821D01*
X01763426Y01087984D01*
X01764089Y01086992D01*
X01765344Y01085737D01*
X01764089Y01084482D01*
X01763426Y01083489D01*
X01762664Y01081652D01*
X01762432Y01080481D01*
Y01078492D01*
X01762664Y01077321D01*
X01763426Y01075484D01*
X01764089Y01074492D01*
X01765344Y01073237D01*
X01764089Y01071982D01*
X01763426Y01070989D01*
X01762664Y01069152D01*
X01762432Y01067981D01*
Y01065992D01*
X01762664Y01064821D01*
X01763426Y01062984D01*
X01764089Y01061991D01*
X01765344Y01060737D01*
X01764089Y01059482D01*
X01763426Y01058489D01*
X01762664Y01056652D01*
X01762432Y01055481D01*
Y01053492D01*
X01762664Y01052321D01*
X01763426Y01050484D01*
X01764089Y01049491D01*
X01765344Y01048237D01*
X01764089Y01046982D01*
X01763426Y01045989D01*
X01762664Y01044152D01*
X01762432Y01042981D01*
Y01040992D01*
X01762664Y01039821D01*
X01763426Y01037984D01*
X01764089Y01036991D01*
X01765344Y01035737D01*
X01764089Y01034482D01*
X01763426Y01033489D01*
X01762664Y01031652D01*
X01762432Y01030481D01*
Y01028492D01*
X01762664Y01027321D01*
X01763426Y01025484D01*
X01764089Y01024491D01*
X01765344Y01023237D01*
X01764089Y01021982D01*
X01763426Y01020989D01*
X01762664Y01019152D01*
X01762432Y01017981D01*
Y01015992D01*
X01762664Y01014821D01*
X01763426Y01012984D01*
X01764089Y01011991D01*
X01764353Y01011728D01*
X01764352Y01010458D01*
X01763665Y01009771D01*
X01763321Y01009257D01*
X01763001Y01008780D01*
X01762163Y01006759D01*
X01762040Y01006142D01*
X01761929Y01005589D01*
X01761928Y01004495D01*
X01761928Y01004493D01*
X01761928Y01004492D01*
X01761928Y01004489D01*
X01761928Y01004487D01*
Y00985562D01*
X01761897Y00984931D01*
X01761637Y00983622D01*
X01761155Y00982459D01*
X01760455Y00981412D01*
X01759565Y00980522D01*
X01758518Y00979822D01*
X01757355Y00979341D01*
X01756046Y00979080D01*
X01755415Y00979049D01*
X01500561Y00979049D01*
X01499932Y00979080D01*
X01498624Y00979341D01*
X01497461Y00979823D01*
X01496414Y00980523D01*
X01495525Y00981413D01*
X01494826Y00982460D01*
X01494344Y00983623D01*
X01494084Y00984931D01*
X01494053Y00985562D01*
Y01073891D01*
X01495323Y01074276D01*
X01497005Y01071759D01*
X01499448Y01069316D01*
X01502321Y01067396D01*
X01505491Y01066083D01*
Y01025098D01*
X01505882Y01023131D01*
X01506996Y01021464D01*
X01534357Y00994103D01*
X01536024Y00992989D01*
X01537990Y00992598D01*
X01593905D01*
X01595871Y00992989D01*
X01597538Y00994103D01*
X01689023Y01085587D01*
X01689304Y01086008D01*
X01689662Y01086366D01*
X01689855Y01086833D01*
X01690136Y01087254D01*
X01690235Y01087751D01*
X01690429Y01088218D01*
Y01088724D01*
X01690528Y01089221D01*
X01690429Y01089717D01*
Y01090223D01*
X01690235Y01090691D01*
X01690136Y01091187D01*
X01689855Y01091608D01*
X01689662Y01092076D01*
X01689304Y01092434D01*
X01689023Y01092854D01*
X01688602Y01093136D01*
X01688244Y01093493D01*
X01687776Y01093687D01*
X01687355Y01093968D01*
X01686859Y01094067D01*
X01686391Y01094261D01*
X01685885D01*
X01685389Y01094360D01*
X01684892Y01094261D01*
X01684386D01*
X01683919Y01094067D01*
X01683422Y01093968D01*
X01683002Y01093687D01*
X01682534Y01093493D01*
X01682176Y01093136D01*
X01681755Y01092854D01*
X01591776Y01002875D01*
X01540119D01*
X01515768Y01027226D01*
Y01066083D01*
X01518938Y01067396D01*
X01521811Y01069316D01*
X01524254Y01071759D01*
X01526173Y01074632D01*
X01527495Y01077824D01*
X01528170Y01081212D01*
Y01084667D01*
X01527495Y01088056D01*
X01526173Y01091248D01*
X01524254Y01094121D01*
X01521811Y01096564D01*
X01518938Y01098484D01*
X01515746Y01099806D01*
X01512357Y01100480D01*
X01508902D01*
X01505513Y01099806D01*
X01502321Y01098484D01*
X01499448Y01096564D01*
X01497005Y01094121D01*
X01495323Y01091603D01*
X01494053Y01091989D01*
Y01138785D01*
X01495323Y01139170D01*
X01497005Y01136652D01*
X01499448Y01134209D01*
X01502321Y01132290D01*
X01505513Y01130967D01*
X01508902Y01130293D01*
X01512357D01*
X01515746Y01130967D01*
X01518938Y01132290D01*
X01521811Y01134209D01*
X01524254Y01136652D01*
X01526173Y01139525D01*
X01527495Y01142717D01*
X01528170Y01146106D01*
Y01149561D01*
X01527495Y01152950D01*
X01526173Y01156142D01*
X01524254Y01159015D01*
X01521811Y01161458D01*
X01518938Y01163377D01*
X01515746Y01164699D01*
X01512357Y01165373D01*
X01508902D01*
X01505513Y01164699D01*
X01502321Y01163377D01*
X01499448Y01161458D01*
X01497005Y01159015D01*
X01495323Y01156497D01*
X01494053Y01156882D01*
Y01243412D01*
X01494084Y01244038D01*
X01494341Y01245339D01*
X01494816Y01246496D01*
X01495507Y01247539D01*
X01496387Y01248428D01*
X01497423Y01249129D01*
X01498575Y01249617D01*
X01499873Y01249887D01*
X01500452Y01249922D01*
X01500491Y01249914D01*
D02*
G37*
%LPC*%
G36*
X01699130Y01245027D02*
X01678050D01*
Y01238875D01*
X01648240D01*
X01646274Y01238484D01*
X01644607Y01237370D01*
X01636357Y01229120D01*
X01635243Y01227453D01*
X01634852Y01225487D01*
Y01199115D01*
X01606857Y01171120D01*
X01605743Y01169453D01*
X01605352Y01167487D01*
Y01138627D01*
X01599950D01*
Y01117547D01*
X01621030D01*
Y01138627D01*
X01615629D01*
Y01165358D01*
X01643624Y01193353D01*
X01644738Y01195020D01*
X01645129Y01196987D01*
Y01223358D01*
X01650369Y01228598D01*
X01678050D01*
Y01223947D01*
X01699130D01*
Y01245027D01*
D02*
G37*
G36*
X01756530Y01226527D02*
X01735450D01*
Y01205447D01*
X01756530D01*
Y01226527D01*
D02*
G37*
G36*
X01612218Y01237927D02*
X01608763D01*
X01605374Y01237253D01*
X01602182Y01235930D01*
X01599309Y01234011D01*
X01596866Y01231568D01*
X01594947Y01228695D01*
X01593625Y01225503D01*
X01592950Y01222114D01*
Y01218659D01*
X01593625Y01215270D01*
X01594947Y01212078D01*
X01596866Y01209206D01*
X01599309Y01206762D01*
X01602182Y01204843D01*
X01605374Y01203521D01*
X01608763Y01202847D01*
X01612218D01*
X01615607Y01203521D01*
X01618799Y01204843D01*
X01621671Y01206762D01*
X01624115Y01209206D01*
X01626034Y01212078D01*
X01627356Y01215270D01*
X01628030Y01218659D01*
Y01222114D01*
X01627356Y01225503D01*
X01626034Y01228695D01*
X01624115Y01231568D01*
X01621671Y01234011D01*
X01618799Y01235930D01*
X01615607Y01237253D01*
X01612218Y01237927D01*
D02*
G37*
G36*
X01673935Y01217873D02*
X01670480D01*
X01667092Y01217199D01*
X01663900Y01215877D01*
X01661027Y01213958D01*
X01658584Y01211515D01*
X01656664Y01208642D01*
X01655342Y01205450D01*
X01654668Y01202061D01*
Y01198606D01*
X01655342Y01195217D01*
X01656664Y01192025D01*
X01658584Y01189152D01*
X01661027Y01186709D01*
X01663900Y01184790D01*
X01667092Y01183467D01*
X01670480Y01182793D01*
X01673935D01*
X01677324Y01183467D01*
X01680516Y01184790D01*
X01683389Y01186709D01*
X01685832Y01189152D01*
X01687752Y01192025D01*
X01689074Y01195217D01*
X01689748Y01198606D01*
Y01202061D01*
X01689074Y01205450D01*
X01687752Y01208642D01*
X01685832Y01211515D01*
X01683389Y01213958D01*
X01680516Y01215877D01*
X01677324Y01217199D01*
X01673935Y01217873D01*
D02*
G37*
G36*
X01756530Y01201127D02*
X01735450D01*
Y01180047D01*
X01756530D01*
Y01201127D01*
D02*
G37*
G36*
Y01175727D02*
X01735450D01*
Y01154647D01*
X01756530D01*
Y01175727D01*
D02*
G37*
G36*
X01712079Y01165373D02*
X01708624D01*
X01705235Y01164699D01*
X01702043Y01163377D01*
X01699170Y01161458D01*
X01696727Y01159015D01*
X01694808Y01156142D01*
X01693485Y01152950D01*
X01692811Y01149561D01*
Y01146106D01*
X01693485Y01142717D01*
X01694808Y01139525D01*
X01696727Y01136652D01*
X01699170Y01134209D01*
X01702043Y01132290D01*
X01705235Y01130967D01*
X01708624Y01130293D01*
X01712079D01*
X01715468Y01130967D01*
X01718660Y01132290D01*
X01721532Y01134209D01*
X01723976Y01136652D01*
X01725895Y01139525D01*
X01727217Y01142717D01*
X01727891Y01146106D01*
Y01149561D01*
X01727217Y01152950D01*
X01725895Y01156142D01*
X01723976Y01159015D01*
X01721532Y01161458D01*
X01718660Y01163377D01*
X01715468Y01164699D01*
X01712079Y01165373D01*
D02*
G37*
G36*
X01756530Y01150327D02*
X01735450D01*
Y01129247D01*
X01756530D01*
Y01150327D01*
D02*
G37*
G36*
X01715378Y01245027D02*
X01712603D01*
X01709922Y01244308D01*
X01707519Y01242921D01*
X01705556Y01240958D01*
X01704169Y01238555D01*
X01703450Y01235874D01*
Y01233099D01*
X01704169Y01230418D01*
X01705556Y01228015D01*
X01707519Y01226052D01*
X01708852Y01225283D01*
Y01191615D01*
X01697362Y01180125D01*
X01659991D01*
X01658024Y01179734D01*
X01656357Y01178620D01*
X01638107Y01160370D01*
X01636993Y01158703D01*
X01636602Y01156737D01*
Y01110615D01*
X01633812Y01107825D01*
X01619694D01*
X01618925Y01109158D01*
X01616962Y01111121D01*
X01614559Y01112508D01*
X01611878Y01113227D01*
X01609103D01*
X01606422Y01112508D01*
X01604019Y01111121D01*
X01602056Y01109158D01*
X01600669Y01106755D01*
X01599950Y01104074D01*
Y01101299D01*
X01600669Y01098618D01*
X01602056Y01096215D01*
X01604019Y01094252D01*
X01606422Y01092865D01*
X01609103Y01092147D01*
X01611878D01*
X01614559Y01092865D01*
X01616962Y01094252D01*
X01618925Y01096215D01*
X01619694Y01097548D01*
X01635940D01*
X01637907Y01097939D01*
X01639574Y01099053D01*
X01645374Y01104853D01*
X01646488Y01106520D01*
X01646879Y01108487D01*
Y01154608D01*
X01662119Y01169848D01*
X01699490D01*
X01701457Y01170239D01*
X01703124Y01171353D01*
X01717624Y01185853D01*
X01718738Y01187520D01*
X01719129Y01189487D01*
Y01225283D01*
X01720462Y01226052D01*
X01722424Y01228015D01*
X01723812Y01230418D01*
X01724530Y01233099D01*
Y01235874D01*
X01723812Y01238555D01*
X01722424Y01240958D01*
X01720462Y01242921D01*
X01718059Y01244308D01*
X01715378Y01245027D01*
D02*
G37*
G36*
X01550500Y01217873D02*
X01547045D01*
X01543657Y01217199D01*
X01540465Y01215877D01*
X01537592Y01213958D01*
X01535149Y01211515D01*
X01533229Y01208642D01*
X01531907Y01205450D01*
X01531233Y01202061D01*
Y01198606D01*
X01531907Y01195217D01*
X01533229Y01192025D01*
X01535149Y01189152D01*
X01537592Y01186709D01*
X01540465Y01184790D01*
X01543657Y01183467D01*
X01547045Y01182793D01*
X01550500D01*
X01553889Y01183467D01*
X01557059Y01184780D01*
X01567474Y01174365D01*
Y01099043D01*
X01567865Y01097076D01*
X01568979Y01095409D01*
X01588036Y01076353D01*
X01589703Y01075239D01*
X01591669Y01074848D01*
X01651490D01*
X01653457Y01075239D01*
X01655124Y01076353D01*
X01680119Y01101348D01*
X01706478D01*
X01706603Y01100078D01*
X01705235Y01099806D01*
X01702043Y01098484D01*
X01699170Y01096564D01*
X01696727Y01094121D01*
X01694808Y01091248D01*
X01693485Y01088056D01*
X01692811Y01084667D01*
Y01081212D01*
X01693485Y01077824D01*
X01694808Y01074632D01*
X01696727Y01071759D01*
X01699170Y01069316D01*
X01702043Y01067396D01*
X01705213Y01066083D01*
Y01046626D01*
X01705604Y01044659D01*
X01706718Y01042992D01*
X01714157Y01035553D01*
X01715824Y01034439D01*
X01717790Y01034048D01*
X01735450D01*
Y01028647D01*
X01756530D01*
Y01049727D01*
X01735450D01*
Y01044325D01*
X01719919D01*
X01715490Y01048754D01*
Y01066083D01*
X01718660Y01067396D01*
X01721532Y01069316D01*
X01723976Y01071759D01*
X01725895Y01074632D01*
X01727217Y01077824D01*
X01727891Y01081212D01*
Y01084667D01*
X01727217Y01088056D01*
X01725895Y01091248D01*
X01723976Y01094121D01*
X01721532Y01096564D01*
X01718660Y01098484D01*
X01715468Y01099806D01*
X01714100Y01100078D01*
X01714225Y01101348D01*
X01727362D01*
X01735450Y01093259D01*
Y01079447D01*
X01756530D01*
Y01100527D01*
X01742718D01*
X01740571Y01102673D01*
X01741057Y01103847D01*
X01756530D01*
Y01124927D01*
X01735450D01*
Y01124375D01*
X01676619D01*
X01671379Y01129615D01*
Y01147987D01*
X01671280Y01148483D01*
Y01148989D01*
X01671087Y01149457D01*
X01670988Y01149953D01*
X01670707Y01150374D01*
X01670513Y01150842D01*
X01670155Y01151199D01*
X01669874Y01151620D01*
X01669453Y01151901D01*
X01669095Y01152259D01*
X01668628Y01152453D01*
X01668207Y01152734D01*
X01667711Y01152833D01*
X01667243Y01153027D01*
X01666737D01*
X01666240Y01153125D01*
X01665744Y01153027D01*
X01665238D01*
X01664770Y01152833D01*
X01664274Y01152734D01*
X01663853Y01152453D01*
X01663385Y01152259D01*
X01663028Y01151901D01*
X01662607Y01151620D01*
X01662326Y01151199D01*
X01661968Y01150842D01*
X01661774Y01150374D01*
X01661493Y01149953D01*
X01661394Y01149457D01*
X01661200Y01148989D01*
Y01148483D01*
X01661102Y01147987D01*
Y01127487D01*
X01661493Y01125520D01*
X01662607Y01123853D01*
X01670857Y01115603D01*
X01672524Y01114489D01*
X01674490Y01114098D01*
X01735450D01*
Y01109453D01*
X01734277Y01108967D01*
X01733124Y01110120D01*
X01731457Y01111234D01*
X01729490Y01111625D01*
X01677990D01*
X01676024Y01111234D01*
X01674357Y01110120D01*
X01649362Y01085125D01*
X01593798D01*
X01577752Y01101172D01*
Y01176493D01*
X01577361Y01178460D01*
X01576247Y01180127D01*
X01564326Y01192048D01*
X01565639Y01195217D01*
X01566313Y01198606D01*
Y01202061D01*
X01565639Y01205450D01*
X01564317Y01208642D01*
X01562397Y01211515D01*
X01559954Y01213958D01*
X01557081Y01215877D01*
X01553889Y01217199D01*
X01550500Y01217873D01*
D02*
G37*
G36*
X01756530Y01075127D02*
X01735450D01*
Y01054047D01*
X01756530D01*
Y01075127D01*
D02*
G37*
G36*
X01673935Y01047980D02*
X01670480D01*
X01667092Y01047306D01*
X01663900Y01045984D01*
X01661027Y01044064D01*
X01658584Y01041621D01*
X01656664Y01038748D01*
X01655342Y01035556D01*
X01654668Y01032167D01*
Y01028712D01*
X01655342Y01025324D01*
X01656664Y01022132D01*
X01658584Y01019259D01*
X01661027Y01016816D01*
X01663900Y01014896D01*
X01667092Y01013574D01*
X01670480Y01012900D01*
X01673935D01*
X01677324Y01013574D01*
X01680494Y01014887D01*
X01685228Y01010153D01*
X01686895Y01009039D01*
X01688861Y01008648D01*
X01735450D01*
Y01003247D01*
X01756530D01*
Y01024327D01*
X01735450D01*
Y01018925D01*
X01690990D01*
X01687761Y01022154D01*
X01689074Y01025324D01*
X01689748Y01028712D01*
Y01032167D01*
X01689074Y01035556D01*
X01687752Y01038748D01*
X01685832Y01041621D01*
X01683389Y01044064D01*
X01680516Y01045984D01*
X01677324Y01047306D01*
X01673935Y01047980D01*
D02*
G37*
%LPD*%
G36*
X01017700Y00920777D02*
Y00909697D01*
X01034780D01*
X01035239Y00909276D01*
X01035700Y00908197D01*
X01035700Y00907277D01*
X01035700D01*
Y00902121D01*
X01022780D01*
Y00907277D01*
X01010700D01*
Y00889566D01*
X01009541Y00888930D01*
X01003780Y00894690D01*
Y00907277D01*
X00991700D01*
Y00907277D01*
X00990780D01*
Y00907277D01*
X00979125D01*
Y00910628D01*
X00984194Y00915697D01*
X00990780D01*
Y00918352D01*
X00991700Y00919197D01*
X01008780D01*
Y00920852D01*
X01016462D01*
X01017700Y00920777D01*
D02*
G37*
G36*
X01035700Y00886197D02*
X01035700D01*
Y00885277D01*
X01035700D01*
Y00877121D01*
X01022780D01*
Y00882277D01*
X01011625D01*
Y00885237D01*
X01011329Y00886723D01*
X01010487Y00887983D01*
X01010434Y00888037D01*
X01011070Y00889197D01*
X01022780D01*
Y00894352D01*
X01035700D01*
Y00886197D01*
D02*
G37*
G36*
X01649450Y00930800D02*
X01649450Y00929527D01*
Y00918747D01*
X01649450Y00918097D01*
X01649450Y00916827D01*
Y00906047D01*
X01649450Y00905397D01*
Y00904773D01*
X01648552Y00903875D01*
X01641229D01*
Y00931698D01*
X01648552D01*
X01649450Y00930800D01*
D02*
G37*
G36*
X01680752Y00878475D02*
X01673428D01*
X01672530Y00879373D01*
X01672530Y00880647D01*
Y00891427D01*
X01672530Y00892077D01*
X01672530Y00893347D01*
Y00904127D01*
X01672530Y00904777D01*
Y00905400D01*
X01673428Y00906298D01*
X01680752D01*
Y00878475D01*
D02*
G37*
D10*
X00855490Y00874477D02*
G03*
X00865490Y00864477I00010000J00000000D01*
G01*
X00912990Y00834487D02*
G03*
X00882990Y00864487I-00030000J00000000D01*
G01*
X00912981Y00816987D02*
G03*
X00922981Y00806987I00010000J00000000D01*
G01*
X01927990Y01654487D02*
G03*
X01957990Y01624487I00030000J00000000D01*
G01*
X01918000Y00806986D02*
G03*
X01928000Y00816987I00000000J00010000D01*
G01*
X00922981Y01681987D02*
G03*
X00912981Y01671987I00000000J-00010000D01*
G01*
X00865490Y01624496D02*
G03*
X00855490Y01614496I00000000J-00010000D01*
G01*
X01985491D02*
G03*
X01975491Y01624496I-00010000J00000000D01*
G01*
Y00864477D02*
G03*
X01985491Y00874477I00000000J00010000D01*
G01*
X01928000Y01671987D02*
G03*
X01918000Y01681987I-00010000J00000000D01*
G01*
X00882990Y01624487D02*
G03*
X00912990Y01654487I00000000J00030000D01*
G01*
X01957990Y00864487D02*
G03*
X01927990Y00834487I00000000J-00030000D01*
G01*
X01207790Y00820487D02*
X01433190Y00820487D01*
X01563190D01*
X01433190Y00950487D02*
X01563190D01*
X01207790Y00950487D02*
X01433190Y00950487D01*
X01563190Y00820487D02*
Y00950487D01*
X01207790Y00820487D02*
Y00950487D01*
X00865481Y00864487D02*
X00882990D01*
X00912990Y00816977D02*
Y00834487D01*
X01927990Y00816977D02*
Y00834487D01*
X01957990Y01624487D02*
X01975500D01*
X01487991Y01681987D02*
X01918000Y01681987D01*
X01927990Y01654487D02*
Y01671996D01*
X01352990Y01517487D02*
Y01669287D01*
X00912990Y01654487D02*
Y01671996D01*
X01957990Y00864487D02*
X01975500D01*
X00922981Y01681987D02*
X01352990D01*
X00922981Y00806987D02*
X01918000Y00806987D01*
X00855490Y00874477D02*
X00855490Y01614496D01*
X01352990Y01669287D02*
Y01681987D01*
X00865481Y01624487D02*
X00882990D01*
X01487991Y01517487D02*
Y01681987D01*
X01433190Y01517487D02*
X01487991D01*
X01352990D02*
X01433190D01*
X01985490Y00874477D02*
X01985490Y01614496D01*
D11*
X01914740Y01224987D02*
Y01286987D01*
D17*
X01015490Y01264477D02*
G03*
X01005490Y01254477I00000000J-00010000D01*
G01*
Y00974477D02*
G03*
X01015490Y00964477I00010000J00000000D01*
G01*
X01755490Y00975487D02*
G03*
X01765490Y00985487I00000000J00010000D01*
G01*
X01490491D02*
G03*
X01500491Y00975487I00010000J00000000D01*
G01*
Y01253487D02*
G03*
X01490491Y01243487I00000000J-00010000D01*
G01*
X01765490Y01243477D02*
G03*
X01755490Y01253477I-00010000J00000000D01*
G01*
X01775490Y01254477D02*
G03*
X01765490Y01264477I-00010000J00000000D01*
G01*
X01775490Y01004487D02*
G03*
X01775490Y01004487I-00005000J00000000D01*
G01*
Y01041987D02*
G03*
X01775490Y01041987I-00005000J00000000D01*
G01*
Y01029487D02*
G03*
X01775490Y01029487I-00005000J00000000D01*
G01*
Y01016987D02*
G03*
X01775490Y01016987I-00005000J00000000D01*
G01*
Y01079487D02*
G03*
X01775490Y01079487I-00005000J00000000D01*
G01*
Y01066987D02*
G03*
X01775490Y01066987I-00005000J00000000D01*
G01*
Y01054487D02*
G03*
X01775490Y01054487I-00005000J00000000D01*
G01*
Y01116987D02*
G03*
X01775490Y01116987I-00005000J00000000D01*
G01*
Y01104487D02*
G03*
X01775490Y01104487I-00005000J00000000D01*
G01*
Y01091987D02*
G03*
X01775490Y01091987I-00005000J00000000D01*
G01*
Y01129487D02*
G03*
X01775490Y01129487I-00005000J00000000D01*
G01*
Y01141987D02*
G03*
X01775490Y01141987I-00005000J00000000D01*
G01*
Y01154487D02*
G03*
X01775490Y01154487I-00005000J00000000D01*
G01*
Y01166987D02*
G03*
X01775490Y01166987I-00005000J00000000D01*
G01*
Y01179487D02*
G03*
X01775490Y01179487I-00005000J00000000D01*
G01*
Y01191987D02*
G03*
X01775490Y01191987I-00005000J00000000D01*
G01*
Y01204487D02*
G03*
X01775490Y01204487I-00005000J00000000D01*
G01*
Y01216987D02*
G03*
X01775490Y01216987I-00005000J00000000D01*
G01*
Y01229487D02*
G03*
X01775490Y01229487I-00005000J00000000D01*
G01*
X01765490Y00964477D02*
G03*
X01775490Y00974477I00000000J00010000D01*
G01*
X01005490D02*
Y01254477D01*
X01765490Y00985487D02*
Y01004487D01*
X01500491Y00975487D02*
X01755490Y00975487D01*
X01490491Y00983487D02*
Y01245487D01*
X01500491Y01253477D02*
X01755490Y01253477D01*
X01765490Y01229487D02*
Y01243477D01*
X01775490Y00974477D02*
Y01004487D01*
Y01228989D02*
Y01254477D01*
X01015490Y01264477D02*
X01765490Y01264477D01*
X01015490Y00964477D02*
X01765490Y00964477D01*
D18*
X01529740Y01546237D02*
D03*
Y01527237D02*
D03*
Y01514237D02*
D03*
Y01495237D02*
D03*
X01870240Y01221487D02*
D03*
Y01240487D02*
D03*
Y01271487D02*
D03*
Y01290487D02*
D03*
X01959241Y01221487D02*
D03*
Y01240487D02*
D03*
Y01271487D02*
D03*
Y01290487D02*
D03*
Y01303487D02*
D03*
Y01322487D02*
D03*
X01940240D02*
D03*
Y01303487D02*
D03*
X01616740Y01607237D02*
D03*
Y01626237D02*
D03*
X01575740Y01463237D02*
D03*
Y01444237D02*
D03*
X01597740Y01626237D02*
D03*
Y01607237D02*
D03*
X01559740Y01594237D02*
D03*
Y01575237D02*
D03*
X01578740Y01594237D02*
D03*
Y01575237D02*
D03*
Y01626237D02*
D03*
Y01607237D02*
D03*
X01239990Y01516737D02*
D03*
Y01535737D02*
D03*
Y01588237D02*
D03*
Y01607237D02*
D03*
X01510740Y01514237D02*
D03*
Y01495237D02*
D03*
X01884990Y01149487D02*
D03*
Y01130487D02*
D03*
X01903990Y01149487D02*
D03*
Y01130487D02*
D03*
X01832240Y01271487D02*
D03*
Y01290487D02*
D03*
X01079240Y00933237D02*
D03*
Y00914237D02*
D03*
X01155240Y00879237D02*
D03*
Y00898237D02*
D03*
X01079240Y00838237D02*
D03*
Y00857237D02*
D03*
X01136240Y00879237D02*
D03*
Y00898237D02*
D03*
X01453990Y01341487D02*
D03*
Y01322487D02*
D03*
X01386990Y01290487D02*
D03*
Y01309487D02*
D03*
X01231740D02*
D03*
Y01290487D02*
D03*
X01922990Y01149487D02*
D03*
Y01130487D02*
D03*
X01453990Y01290487D02*
D03*
Y01309487D02*
D03*
X01434990Y01290487D02*
D03*
Y01309487D02*
D03*
X01529740Y01463237D02*
D03*
Y01482237D02*
D03*
X01628240Y01309487D02*
D03*
Y01290487D02*
D03*
X01594740Y01463237D02*
D03*
Y01444237D02*
D03*
X01609240Y01309487D02*
D03*
Y01290487D02*
D03*
D19*
X01299990Y01526237D02*
D03*
X01318990D02*
D03*
Y01597987D02*
D03*
X01299990D02*
D03*
X01497240Y01432987D02*
D03*
X01478240D02*
D03*
X01414240D02*
D03*
X01433240D02*
D03*
X01848240Y01340487D02*
D03*
X01829240D02*
D03*
X01497240Y01451987D02*
D03*
X01478240D02*
D03*
X00933240Y00960237D02*
D03*
X00914240D02*
D03*
X01277490Y01562237D02*
D03*
X01258490D02*
D03*
X01255991Y01633737D02*
D03*
X01274990D02*
D03*
X01414190Y01451987D02*
D03*
X01433190D02*
D03*
X01446240Y01432987D02*
D03*
X01465240D02*
D03*
X01242990Y01551737D02*
D03*
X01223990D02*
D03*
Y01570737D02*
D03*
X01242990D02*
D03*
X01223990Y01623237D02*
D03*
X01242990D02*
D03*
Y01642237D02*
D03*
X01223990D02*
D03*
X01873990Y01089987D02*
D03*
X01854990D02*
D03*
X01905990D02*
D03*
X01886991D02*
D03*
X01822990Y01064487D02*
D03*
X01841990D02*
D03*
X00933240Y01059237D02*
D03*
X00914240D02*
D03*
X01041740Y00917237D02*
D03*
X01060740D02*
D03*
X00965740Y00924737D02*
D03*
X00984740D02*
D03*
X01016740Y00898237D02*
D03*
X00997740D02*
D03*
X00965740D02*
D03*
X00984740D02*
D03*
X01120240Y00895237D02*
D03*
X01101240D02*
D03*
X00997740Y00873237D02*
D03*
X01016740D02*
D03*
X00965740Y00846737D02*
D03*
X00984740D02*
D03*
X00965740Y00873237D02*
D03*
X00984740D02*
D03*
X01697990Y00823987D02*
D03*
X01716990D02*
D03*
X01697990Y00842987D02*
D03*
X01716990D02*
D03*
X01041740Y00854237D02*
D03*
X01060740D02*
D03*
X01101240Y00876237D02*
D03*
X01120240D02*
D03*
X01841990Y01032987D02*
D03*
X01822990D02*
D03*
X01841990Y01013987D02*
D03*
X01822990D02*
D03*
X01873990Y01070987D02*
D03*
X01854990D02*
D03*
X01873990Y01013987D02*
D03*
X01854990D02*
D03*
X01916990Y01004987D02*
D03*
X01897990D02*
D03*
X01873990Y01032987D02*
D03*
X01854990D02*
D03*
X01815699Y01274422D02*
D03*
X01796699D02*
D03*
X01575740Y01479237D02*
D03*
X01556740D02*
D03*
X01594740D02*
D03*
X01613740D02*
D03*
D20*
X01935490Y01072987D02*
D03*
Y01043987D02*
D03*
X01876990Y00961237D02*
D03*
Y00990237D02*
D03*
X01913490Y01043987D02*
D03*
Y01072987D02*
D03*
X01891490Y01043987D02*
D03*
Y01072987D02*
D03*
D21*
X01907990Y00942737D02*
D03*
X01878990D02*
D03*
X01769990Y00920737D02*
D03*
X01798990D02*
D03*
X01907990Y00898737D02*
D03*
X01878990D02*
D03*
X01769990Y00876737D02*
D03*
X01798990D02*
D03*
X01907990Y00854737D02*
D03*
X01878990D02*
D03*
X01769990Y00832737D02*
D03*
X01798990D02*
D03*
X01887990Y01025487D02*
D03*
X01916990D02*
D03*
D22*
X01660990Y00936837D02*
D03*
Y00873337D02*
D03*
X01716990Y00898737D02*
D03*
X01660990Y00860637D02*
D03*
X01716990Y00886037D02*
D03*
Y00860637D02*
D03*
Y00873337D02*
D03*
X01660990Y00898737D02*
D03*
X01716990Y00924137D02*
D03*
X01660990Y00886037D02*
D03*
X01716990Y00911437D02*
D03*
X01660990Y00924137D02*
D03*
Y00911437D02*
D03*
X01716990Y00936837D02*
D03*
D23*
X01891741Y01286987D02*
D03*
X01937740D02*
D03*
X01914740D02*
D03*
D24*
Y01224987D02*
D03*
D25*
X01857740Y01323487D02*
D03*
Y01304487D02*
D03*
X01831740Y01313987D02*
D03*
X01026240Y00934237D02*
D03*
Y00915237D02*
D03*
X01000240Y00924737D02*
D03*
X01026240Y00856237D02*
D03*
Y00837237D02*
D03*
X01000240Y00846737D02*
D03*
D26*
X00926890Y00981737D02*
D03*
Y01037737D02*
D03*
X00914190Y00981737D02*
D03*
Y01037737D02*
D03*
X00939590Y00981737D02*
D03*
Y01037737D02*
D03*
X00952290Y00981737D02*
D03*
Y01037737D02*
D03*
X01572590Y01556737D02*
D03*
Y01500737D02*
D03*
X01585290Y01556737D02*
D03*
Y01500737D02*
D03*
X01559890Y01556737D02*
D03*
Y01500737D02*
D03*
X01547190Y01556737D02*
D03*
Y01500737D02*
D03*
D27*
X01284490Y01616737D02*
D03*
Y01607237D02*
D03*
Y01597737D02*
D03*
X01258490Y01616737D02*
D03*
Y01607237D02*
D03*
Y01597737D02*
D03*
X01284490Y01545237D02*
D03*
Y01535737D02*
D03*
Y01526237D02*
D03*
X01258490Y01545237D02*
D03*
Y01535737D02*
D03*
Y01526237D02*
D03*
D28*
X01862990Y01130487D02*
D03*
Y01150487D02*
D03*
D29*
X01830490Y01140487D02*
D03*
D30*
X01855990Y00854736D02*
D03*
X01821990D02*
D03*
Y00876737D02*
D03*
X01855990D02*
D03*
Y00898736D02*
D03*
X01821990D02*
D03*
X01079240Y00874737D02*
D03*
X01045240D02*
D03*
X01821990Y00832737D02*
D03*
X01855990D02*
D03*
X01079240Y00896737D02*
D03*
X01045240D02*
D03*
X01821990Y00920737D02*
D03*
X01855990D02*
D03*
X01821990Y00964737D02*
D03*
X01855990D02*
D03*
Y00942737D02*
D03*
X01821990D02*
D03*
X01433190Y01472487D02*
D03*
X01399190D02*
D03*
D31*
X01283241Y01386737D02*
X01717990D01*
X01269240Y01400737D02*
Y01610487D01*
Y01400737D02*
X01283241Y01386737D01*
X01774240Y01340487D02*
X01829240D01*
X01293740Y01396487D02*
X01718241D01*
X01774240Y01340487D01*
X01717990Y01386737D02*
X01753990Y01350737D01*
Y01294487D02*
Y01350737D01*
X01286490Y01403737D02*
Y01461487D01*
Y01403737D02*
X01293740Y01396487D01*
X01337240Y01410237D02*
X01504241D01*
X01310240Y01437237D02*
X01337240Y01410237D01*
X01510740Y01495237D02*
X01529740D01*
X01310240Y01437237D02*
Y01537237D01*
X01355990Y01416737D02*
X01500740D01*
X01339490Y01433237D02*
Y01546900D01*
Y01433237D02*
X01355990Y01416737D01*
X01867550Y01311297D02*
Y01334927D01*
X01848240Y01340487D02*
X01861990D01*
X01867550Y01334927D01*
X01504241Y01410237D02*
X01515240Y01421237D01*
Y01493007D01*
X01509740Y01425737D02*
Y01468658D01*
X01500740Y01416737D02*
X01509740Y01425737D01*
X01496490Y01481908D02*
X01509740Y01468658D01*
X01284490Y01545237D02*
X01302240D01*
X01310240Y01537237D01*
X01860740Y01304487D02*
X01867550Y01311297D01*
X01857740Y01304487D02*
X01860740D01*
X01822890Y01064587D02*
X01822990Y01064487D01*
X01594740Y01463237D02*
X01813490D01*
X01835740Y01381237D02*
Y01440987D01*
X01813490Y01463237D02*
X01835740Y01440987D01*
X01594740Y01463237D02*
Y01479237D01*
X01575740Y01444237D02*
X01594740D01*
X01632990Y01626237D02*
X01639240Y01619987D01*
X01616740Y01626237D02*
X01632990D01*
X01639240Y01506987D02*
Y01619987D01*
Y01506987D02*
X01651240Y01494987D01*
X01672490D01*
X01541990Y01527237D02*
X01547190Y01522037D01*
Y01500737D02*
Y01522037D01*
X01529740Y01527237D02*
X01541990D01*
X01299990Y01513237D02*
Y01526237D01*
X01299990Y01597987D02*
X01299990Y01597987D01*
Y01584987D02*
Y01597987D01*
X01299740Y01597737D02*
X01299990Y01597987D01*
X01284490Y01597737D02*
X01299740D01*
X01299990Y01526237D02*
X01299990Y01526237D01*
X01284490Y01526237D02*
X01299990D01*
X00965740Y00898237D02*
Y00911237D01*
X00965740Y00898237D02*
X00965740Y00898237D01*
Y00911237D02*
X00965740Y00911237D01*
X00965740Y00898237D02*
X00965740Y00898237D01*
X01258490Y01515487D02*
Y01526237D01*
X01258490Y01597737D02*
X01258490Y01597737D01*
X01258490Y01586987D02*
Y01597737D01*
Y01545237D02*
Y01562237D01*
Y01545237D02*
X01258490Y01545237D01*
X01253752Y01546725D02*
X01255240Y01545237D01*
X01242990Y01548737D02*
X01245002Y01546725D01*
X01253752D01*
X01255240Y01545237D02*
X01258490D01*
X01242990Y01548737D02*
Y01570737D01*
X01256220Y01617987D02*
X01257240D01*
X01249240D02*
X01256220D01*
X01255991Y01618217D02*
X01256220Y01617987D01*
X01242990Y01620237D02*
X01245220Y01618007D01*
X01249221D02*
X01249240Y01617987D01*
X01242990Y01620237D02*
Y01623237D01*
X01245220Y01618007D02*
X01249221D01*
X01257240Y01617987D02*
X01258490Y01616737D01*
X01242990Y01623237D02*
Y01642237D01*
X01255991Y01618217D02*
Y01633737D01*
X01269990Y01661237D02*
X01274990Y01656237D01*
X01091740Y01661237D02*
X01269990D01*
X01274990Y01633737D02*
Y01656237D01*
X01069990Y01639487D02*
X01091740Y01661237D01*
X01069990Y01512487D02*
Y01639487D01*
X01052490Y01494987D02*
X01069990Y01512487D01*
X01005490Y01494987D02*
X01052490D01*
X01007740Y00851237D02*
Y00885237D01*
X01003240Y00846737D02*
X01007740Y00851237D01*
X01000240Y00846737D02*
X01003240D01*
X00997740Y00895237D02*
Y00898237D01*
Y00895237D02*
X01007740Y00885237D01*
X00984740Y00873237D02*
Y00876237D01*
X00975240Y00885737D02*
X00984740Y00876237D01*
X00984740Y00921737D02*
Y00924737D01*
X00975240Y00912237D02*
X00984740Y00921737D01*
X00975240Y00885737D02*
Y00912237D01*
X00965740Y00873237D02*
Y00898237D01*
X00984740Y00873237D02*
X00997740D01*
X01041740Y00871237D02*
X01043740Y00873237D01*
X01016740D02*
X01043740D01*
X01045240Y00874737D01*
X01041740Y00854237D02*
Y00871237D01*
X01037240Y00837237D02*
X01041740Y00841737D01*
Y00854237D01*
X01026240Y00837237D02*
X01037240D01*
X01000240Y00832737D02*
X01009240Y00823737D01*
X01000240Y00832737D02*
Y00846737D01*
X00984740D02*
X01000240D01*
X01009240Y00823737D02*
X01074990D01*
X01079240Y00827987D02*
Y00838237D01*
X01074990Y00823737D02*
X01079240Y00827987D01*
X00984740Y00898237D02*
X00997740D01*
X01041740Y00900237D02*
X01043740Y00898237D01*
X01016740D02*
X01043740D01*
X01045240Y00896737D01*
X01026240Y00915237D02*
X01039740D01*
X01041740Y00917237D01*
Y00900237D02*
Y00917237D01*
X01033852Y00924737D02*
X01042352Y00933237D01*
X01079240D01*
X01000240Y00924737D02*
X01033852D01*
X00984740D02*
X01000240D01*
X01079240Y00896737D02*
Y00914237D01*
Y00857237D02*
Y00874737D01*
X01099740D02*
X01101240Y00876237D01*
X01079240Y00874737D02*
X01099740D01*
X01079240Y00896737D02*
X01099740D01*
X01101240Y00895237D01*
X01120240Y00876237D02*
Y00895237D01*
Y00896007D02*
X01122470Y00898237D01*
X01120240Y00895237D02*
Y00896007D01*
X01122470Y00898237D02*
X01136240D01*
X01155240D01*
X01180691D01*
X01180740Y00898187D01*
X01667990Y01279737D02*
Y01336487D01*
X01673305Y01274422D02*
X01796699D01*
X01667990Y01279737D02*
X01673305Y01274422D01*
X01453990Y01341487D02*
X01662990D01*
X01667990Y01336487D01*
X01778990Y01294487D02*
X01808490D01*
X01815699Y01274422D02*
Y01287278D01*
X01808490Y01294487D02*
X01815699Y01287278D01*
X01628240Y01290487D02*
X01628240Y01290487D01*
X01609240Y01290487D02*
X01628240D01*
X01531660Y01294487D02*
X01546660Y01309487D01*
X01609330D01*
X01453990D02*
X01516660D01*
X01531660Y01294487D01*
X01434990Y01290487D02*
X01453990D01*
Y01309487D02*
Y01322487D01*
X01323241Y01341487D02*
X01453990D01*
X01309320Y01327567D02*
X01323241Y01341487D01*
X01309320Y01294487D02*
Y01327567D01*
X01589740Y01290487D02*
X01609240D01*
X01556660Y01294487D02*
X01585741D01*
X01589740Y01290487D01*
X01453990D02*
X01473490D01*
X01477490Y01294487D02*
X01506570D01*
X01473490Y01290487D02*
X01477490Y01294487D01*
X01367491Y01290487D02*
X01386990D01*
X01334410Y01294487D02*
X01363490D01*
X01367491Y01290487D01*
X01251240D02*
X01255240Y01294487D01*
X01284320D01*
X01231740Y01290487D02*
X01251240D01*
X01324153Y01562237D02*
X01339490Y01546900D01*
X01277490Y01562237D02*
X01324153D01*
X01510740Y01495237D02*
X01513010D01*
X01515240Y01493007D01*
X01572590Y01538037D02*
X01574640Y01535987D01*
X01496490Y01481908D02*
Y01529987D01*
X01502490Y01535987D02*
X01570540D01*
X01496490Y01529987D02*
X01502490Y01535987D01*
X01570540D02*
X01572590Y01538037D01*
X01574640Y01535987D02*
X01583240D01*
X01572590Y01538037D02*
Y01556737D01*
X01585290Y01538037D02*
Y01556737D01*
X01583240Y01535987D02*
X01585290Y01538037D01*
X01559890Y01573007D02*
X01562120Y01575237D01*
X01578740D01*
X01559890Y01556737D02*
Y01573007D01*
X01557660Y01480157D02*
Y01498507D01*
X01556740Y01479237D02*
X01557660Y01480157D01*
Y01498507D02*
X01559890Y01500737D01*
X01556740Y01466487D02*
Y01479237D01*
X01553490Y01463237D02*
X01556740Y01466487D01*
X01529740Y01463237D02*
X01553490D01*
X01529740Y01453237D02*
Y01463237D01*
X01386990Y01309487D02*
Y01319487D01*
X01628240Y01309487D02*
Y01319487D01*
X01269240Y01610487D02*
X01275490Y01616737D01*
X01284490D01*
X01529740Y01482237D02*
Y01495237D01*
X01831740Y01313987D02*
X01832240Y01313487D01*
D53*
X01713990Y01189487D02*
Y01234487D01*
X01639990Y01225487D02*
X01648240Y01233737D01*
X01687840D01*
X01688590Y01234487D01*
X01639990Y01196987D02*
Y01225487D01*
X01557740Y01245487D02*
X01616990D01*
X01522240Y01209987D02*
X01557740Y01245487D01*
X01510629Y01025098D02*
Y01082940D01*
Y01025098D02*
X01537990Y00997737D01*
X01593905D01*
X01685389Y01089221D01*
X01677990Y01106487D02*
X01729490D01*
X01745990Y01089987D01*
X01522240Y01174237D02*
X01548773Y01147704D01*
X01522240Y01174237D02*
Y01209987D01*
X01548773Y01030440D02*
Y01147704D01*
X01741140Y01119237D02*
X01745990Y01114387D01*
X01666240Y01127487D02*
X01674490Y01119237D01*
X01741140D01*
X01651490Y01079987D02*
X01677990Y01106487D01*
X01666240Y01127487D02*
Y01147987D01*
X01572613Y01099043D02*
X01591669Y01079987D01*
X01651490D01*
X01548773Y01200333D02*
X01572613Y01176493D01*
Y01099043D02*
Y01176493D01*
X01699490Y01174987D02*
X01713990Y01189487D01*
X01659991Y01174987D02*
X01699490D01*
X01641740Y01156737D02*
X01659991Y01174987D01*
X01641740Y01108487D02*
Y01156737D01*
X01610490Y01102687D02*
X01635940D01*
X01641740Y01108487D01*
X01610490Y01167487D02*
X01639990Y01196987D01*
X01610490Y01128087D02*
Y01167487D01*
X01710351Y01046626D02*
X01717790Y01039187D01*
X01745990D01*
X01710351Y01046626D02*
Y01082940D01*
X01672208Y01030440D02*
X01688861Y01013787D01*
X01745990D01*
X01870240Y01290487D02*
Y01300487D01*
X01783740Y01124037D02*
X01800490Y01140787D01*
X01783740Y01081337D02*
X01800490Y01064587D01*
X01783740Y01081337D02*
Y01124037D01*
X01873990Y01089987D02*
X01886991D01*
X01830190Y01140287D02*
Y01140787D01*
Y01140287D02*
X01839990Y01130487D01*
X01862990D01*
X01884990D01*
X01903990D01*
X01922990D01*
X01800490Y01140787D02*
X01830190D01*
X01800490Y01089987D02*
X01854990D01*
X01854990Y01070987D02*
Y01089987D01*
X01854990Y01089987D01*
X01800490Y01064587D02*
X01822890D01*
X01871241Y01289487D02*
X01889241D01*
X01891741Y01286987D01*
X01870240Y01290487D02*
X01871241Y01289487D01*
X01888811Y01256487D02*
X01891741Y01259416D01*
Y01286987D01*
X01856240Y01256487D02*
X01888811D01*
X01852240Y01252487D02*
X01856240Y01256487D01*
X01842990Y01233237D02*
X01852240Y01242487D01*
Y01252487D01*
X01803490Y01233237D02*
X01842990D01*
X01832740Y01221487D02*
X01870240D01*
X01825365Y01214112D02*
X01832740Y01221487D01*
X01870240D02*
X01911240D01*
X01804990D02*
X01817990D01*
X01825365Y01214112D01*
X01800490Y01216987D02*
X01804990Y01221487D01*
X01800490Y01236237D02*
Y01248987D01*
Y01236237D02*
X01803490Y01233237D01*
X01935490Y01043987D02*
X01949990D01*
X01873990Y01071987D02*
X01874991Y01072987D01*
X01873990Y01070987D02*
Y01071987D01*
X01874991Y01072987D02*
X01891490D01*
X01913490D01*
X01935490D01*
X01916990Y01025487D02*
X01927990D01*
X01966241Y01089987D02*
X01972740Y01083487D01*
X01905990Y01089987D02*
X01966241D01*
X01972740Y00995737D02*
Y01083487D01*
X01967240Y00990237D02*
X01972740Y00995737D01*
X01873990Y00990237D02*
X01875990D01*
X01831490D02*
X01873990D01*
X01875990D02*
X01967240D01*
X01199173Y01570737D02*
Y01598905D01*
X01207505Y01607237D02*
X01239990D01*
X01199173Y01598905D02*
X01207505Y01607237D01*
X01239990Y01535737D02*
X01258490D01*
X01226990D02*
X01239990D01*
Y01607237D02*
X01258490D01*
X00928240Y00924737D02*
X00965740D01*
X01328990Y01526237D02*
X01328990Y01526237D01*
X01318990Y01526237D02*
X01328990D01*
X01136240Y00869237D02*
Y00879237D01*
X00955740Y00846737D02*
X00965740D01*
X00914240Y00938737D02*
Y00960237D01*
Y00938737D02*
X00928240Y00924737D01*
X00914190Y00981737D02*
X00914215Y00981712D01*
Y00960262D02*
Y00981712D01*
Y00960262D02*
X00914240Y00960237D01*
X01446240Y01432987D02*
Y01445987D01*
X01446240Y01445987D01*
X01433240Y01432987D02*
X01446240D01*
X01433215Y01433012D02*
Y01451962D01*
Y01433012D02*
X01433240Y01432987D01*
X01433190Y01451987D02*
X01433215Y01451962D01*
X01433190Y01451987D02*
Y01472487D01*
Y01499487D01*
X01855990Y00832737D02*
X01869240D01*
X01660990Y00848937D02*
Y00860637D01*
X01585290Y01500737D02*
X01596990D01*
X01510740Y01524237D02*
X01510741Y01524237D01*
X01510740Y01514237D02*
Y01524237D01*
X00914215Y01059212D02*
X00914240Y01059237D01*
X00914190Y01037737D02*
X00914215Y01037762D01*
Y01059212D01*
X00904240Y01059237D02*
X00904240Y01059237D01*
X00914240D01*
X01213990Y01570737D02*
X01213990Y01570737D01*
X01223990D01*
X01213990Y01623237D02*
X01223990D01*
X01213990Y01623237D02*
X01213990Y01623237D01*
X01916990Y01004987D02*
Y01025487D01*
X01874991Y01030021D02*
X01885990D01*
X01887990Y01028021D01*
Y01025487D02*
Y01028021D01*
X01873990Y01031021D02*
X01874991Y01030021D01*
X01873990Y01031021D02*
Y01032987D01*
X01841990D02*
X01854990D01*
X01841990Y01013987D02*
X01854990D01*
X01822990D02*
Y01032987D01*
X01800690Y01013987D02*
X01822990D01*
X01800490Y01013787D02*
X01800690Y01013987D01*
X01873990Y00992237D02*
X01875990Y00990237D01*
X01873990Y00992237D02*
Y01013987D01*
X01821990Y00964737D02*
Y00980737D01*
X01831490Y00990237D01*
X01817690Y01166187D02*
X01825365Y01173862D01*
Y01214112D01*
X01800490Y01166187D02*
X01817690D01*
X01832240Y01290487D02*
Y01313487D01*
X01835490Y01260666D02*
Y01270487D01*
X01832240Y01271487D02*
X01834490D01*
X01825890Y01251066D02*
X01835490Y01260666D01*
X01834490Y01271487D02*
X01835490Y01270487D01*
X01825890Y01248987D02*
Y01251066D01*
X01941241Y01290487D02*
X01959241D01*
X01937740Y01286987D02*
X01941241Y01290487D01*
X01940240Y01322487D02*
X01959241D01*
Y01290487D02*
Y01303487D01*
X01918241Y01221487D02*
X01959241D01*
X01914740Y01224987D02*
X01918241Y01221487D01*
X01959241Y01240487D02*
Y01271487D01*
X01911240Y01221487D02*
X01914740Y01224987D01*
X01683490Y00842987D02*
X01697990D01*
X01716990D02*
Y00860637D01*
Y00823987D02*
Y00842987D01*
X01738990Y00876237D02*
Y00883137D01*
X01716990Y00886037D02*
X01736090D01*
X01738990Y00883137D01*
X01736090Y00873337D02*
X01738990Y00876237D01*
X01716990Y00873337D02*
X01736090D01*
X01697990Y00842987D02*
Y00867237D01*
X01704090Y00873337D01*
X01716990D01*
X01769990Y00906237D02*
Y00920737D01*
Y00906237D02*
X01769990Y00906237D01*
X01716990Y00911437D02*
X01741890D01*
Y00911437D01*
Y00900887D02*
Y00911437D01*
X01739740Y00898737D02*
X01741890Y00900887D01*
X01716990Y00898737D02*
X01739740D01*
X01716990Y00924137D02*
X01753590D01*
X01757240Y00880987D02*
Y00920487D01*
X01753590Y00924137D02*
X01757240Y00920487D01*
Y00880987D02*
X01761490Y00876737D01*
X01769990D01*
X01636090Y00886037D02*
X01660990D01*
Y00873337D02*
X01685890D01*
X01685890Y00873337D02*
Y00908787D01*
X01683240Y00911437D02*
X01685890Y00908787D01*
X01660990Y00911437D02*
X01683240D01*
X01638740Y00898737D02*
X01660990D01*
X01636091Y00901387D02*
X01638740Y00898737D01*
X01636091Y00901387D02*
Y00936837D01*
X01660990Y00924137D02*
X01716990D01*
X01636090Y00936837D02*
X01660990D01*
X01769990Y00818237D02*
X01769990Y00818237D01*
X01769990Y00818237D02*
Y00832737D01*
X01907990Y00840237D02*
X01907990Y00840237D01*
X01907990Y00840237D02*
Y00854737D01*
Y00884237D02*
X01907990Y00884237D01*
X01907990Y00884237D02*
Y00898737D01*
Y00928237D02*
Y00942737D01*
Y00928237D02*
X01907990Y00928237D01*
X01798990Y00920737D02*
X01821990D01*
X01821990Y00920737D02*
X01821990Y00920737D01*
X01821990Y00920737D02*
Y00942737D01*
X01798990Y00876737D02*
X01821990D01*
X01821990Y00876737D02*
X01821990Y00876737D01*
X01821990Y00876737D02*
Y00898736D01*
X01878990Y00942737D02*
X01878990Y00942737D01*
X01855990Y00942737D02*
X01878990D01*
X01855990Y00942737D02*
Y00964736D01*
Y00942737D02*
X01855990Y00942737D01*
X01878990Y00898737D02*
X01878990Y00898737D01*
X01855990Y00898737D02*
X01878990D01*
X01855990Y00898737D02*
Y00920736D01*
Y00898737D02*
X01855990Y00898737D01*
X01855990Y00854737D02*
X01855990Y00854736D01*
X01855990Y00854737D02*
Y00876737D01*
X01855990Y00854736D02*
X01878990D01*
X01878990Y00854737D01*
X01821990Y00832737D02*
Y00854736D01*
Y00832737D02*
X01821990Y00832737D01*
X01798990D02*
X01821990D01*
D54*
X01478240Y01451987D02*
Y01488987D01*
Y01432987D02*
Y01451987D01*
X01578740Y01594237D02*
Y01607237D01*
X01597740D02*
X01616740D01*
X01578740D02*
X01597740D01*
X01562740Y01463237D02*
X01575740D01*
Y01479237D01*
X01574240Y01480737D02*
Y01499087D01*
X01572590Y01500737D02*
X01574240Y01499087D01*
Y01480737D02*
X01575740Y01479237D01*
X01529740Y01546237D02*
Y01590987D01*
X01532990Y01594237D02*
X01559740D01*
X01529740Y01590987D02*
X01532990Y01594237D01*
X01501990Y01546237D02*
X01501990Y01546237D01*
X01529740D01*
X01465240Y01432987D02*
X01478240D01*
D55*
X01180740Y00872787D02*
D03*
X01407790Y01499487D02*
D03*
X01610490Y01102687D02*
D03*
X01713990Y01234487D02*
D03*
X01825890Y01248987D02*
D03*
D56*
X01180740Y00898187D02*
D03*
X01800490Y01191587D02*
D03*
Y01216987D02*
D03*
X01745990Y01013787D02*
D03*
Y01064587D02*
D03*
X01610490Y01128087D02*
D03*
X01745990Y01039187D02*
D03*
Y01139787D02*
D03*
Y01114387D02*
D03*
Y01089987D02*
D03*
X01800490Y01013787D02*
D03*
Y01064587D02*
D03*
Y01039187D02*
D03*
Y01089987D02*
D03*
Y01115387D02*
D03*
Y01140787D02*
D03*
Y01166187D02*
D03*
X01745990Y01215987D02*
D03*
Y01165187D02*
D03*
Y01190587D02*
D03*
D57*
X01259320Y01363487D02*
D03*
X01359320D02*
D03*
X01036990D02*
D03*
X01136990D02*
D03*
X01703990D02*
D03*
X01803990D02*
D03*
X01481660D02*
D03*
X01581660D02*
D03*
D58*
X01284320Y01294487D02*
D03*
X01334320D02*
D03*
X01309320D02*
D03*
X01061990D02*
D03*
X01111990D02*
D03*
X01086990D02*
D03*
X01728990D02*
D03*
X01778990D02*
D03*
X01753990D02*
D03*
X01506660D02*
D03*
X01556660D02*
D03*
X01531660D02*
D03*
D59*
X01005490Y01619987D02*
D03*
Y01557487D02*
D03*
Y01494987D02*
D03*
X01168490D02*
D03*
Y01557487D02*
D03*
Y01619987D02*
D03*
X01672490D02*
D03*
Y01557487D02*
D03*
Y01494987D02*
D03*
X01835490D02*
D03*
Y01557487D02*
D03*
Y01619987D02*
D03*
D60*
X01433190Y01499487D02*
D03*
X01688590Y01234487D02*
D03*
X01800490Y01248987D02*
D03*
D61*
X01548773Y01030440D02*
D03*
X01510629Y01082940D02*
D03*
Y01147833D02*
D03*
X01548773Y01200333D02*
D03*
X01610490Y01220387D02*
D03*
X01672208Y01200333D02*
D03*
X01710351Y01147833D02*
D03*
Y01082940D02*
D03*
X01672208Y01030440D02*
D03*
D62*
X01616990Y01245487D02*
D03*
X00987990Y01274487D02*
D03*
Y01249487D02*
D03*
Y01224487D02*
D03*
Y01199487D02*
D03*
Y01174487D02*
D03*
Y01149487D02*
D03*
Y01124487D02*
D03*
Y01099487D02*
D03*
X01442990Y01364487D02*
D03*
X01402990D02*
D03*
X01462990Y01454487D02*
D03*
X01457990Y01504487D02*
D03*
X01482990D02*
D03*
X01357640Y01499449D02*
D03*
X01382640D02*
D03*
X01616721Y01539135D02*
D03*
Y01564135D02*
D03*
X01960838Y01188681D02*
D03*
Y01163681D02*
D03*
Y01138681D02*
D03*
Y01113681D02*
D03*
X01925700Y01115276D02*
D03*
X01827002Y01102925D02*
D03*
X01843990Y01049487D02*
D03*
X01792990Y00984487D02*
D03*
X01907990Y00974487D02*
D03*
X01932990D02*
D03*
X01957990D02*
D03*
X01857990Y01189487D02*
D03*
X01882990D02*
D03*
X01907990D02*
D03*
X01386990Y01331737D02*
D03*
X01647807Y01319487D02*
D03*
X01612990Y01364487D02*
D03*
X01652990D02*
D03*
X01547990Y01624487D02*
D03*
Y01649487D02*
D03*
X01522990D02*
D03*
Y01624487D02*
D03*
X01197990Y01399487D02*
D03*
Y01374487D02*
D03*
Y01349487D02*
D03*
Y01324487D02*
D03*
X01172990Y01399487D02*
D03*
Y01374487D02*
D03*
Y01349487D02*
D03*
Y01324487D02*
D03*
X00997990Y01399487D02*
D03*
Y01374487D02*
D03*
Y01349487D02*
D03*
Y01324487D02*
D03*
X00947990Y01649487D02*
D03*
Y01624487D02*
D03*
X00922990D02*
D03*
Y01524487D02*
D03*
Y01549487D02*
D03*
Y01574487D02*
D03*
Y01424487D02*
D03*
Y01449487D02*
D03*
Y01474487D02*
D03*
Y01499487D02*
D03*
Y01324487D02*
D03*
Y01349487D02*
D03*
Y01374487D02*
D03*
Y01399487D02*
D03*
Y01099487D02*
D03*
Y01124487D02*
D03*
Y01149487D02*
D03*
Y01174487D02*
D03*
X00872990Y01599487D02*
D03*
Y01574487D02*
D03*
Y01549487D02*
D03*
Y01374487D02*
D03*
Y01399487D02*
D03*
Y01424487D02*
D03*
Y01449487D02*
D03*
Y01474487D02*
D03*
Y01499487D02*
D03*
Y01524487D02*
D03*
Y01349487D02*
D03*
Y01324487D02*
D03*
Y01299487D02*
D03*
Y01274487D02*
D03*
Y01249487D02*
D03*
Y01224487D02*
D03*
Y01199487D02*
D03*
Y01174487D02*
D03*
Y01149487D02*
D03*
Y01124487D02*
D03*
Y01099487D02*
D03*
Y01074487D02*
D03*
Y01049487D02*
D03*
Y01024487D02*
D03*
Y00999487D02*
D03*
Y00974487D02*
D03*
Y00949487D02*
D03*
X01172990D02*
D03*
Y00924487D02*
D03*
Y00824487D02*
D03*
Y00849487D02*
D03*
X01647990Y00824487D02*
D03*
X01622990D02*
D03*
X01597990D02*
D03*
Y00849487D02*
D03*
Y00874487D02*
D03*
Y00899487D02*
D03*
Y00924487D02*
D03*
Y00949487D02*
D03*
X01972990Y00874487D02*
D03*
Y00924487D02*
D03*
X01947990Y00874487D02*
D03*
Y00924487D02*
D03*
X01897990Y01349487D02*
D03*
Y01374487D02*
D03*
Y01399487D02*
D03*
Y01424487D02*
D03*
Y01449487D02*
D03*
Y01474487D02*
D03*
Y01499487D02*
D03*
Y01524487D02*
D03*
Y01549487D02*
D03*
Y01574487D02*
D03*
Y01599487D02*
D03*
X01947990Y01374487D02*
D03*
Y01399487D02*
D03*
Y01424487D02*
D03*
Y01449487D02*
D03*
Y01474487D02*
D03*
Y01499487D02*
D03*
Y01524487D02*
D03*
Y01549487D02*
D03*
Y01574487D02*
D03*
Y01599487D02*
D03*
X01685389Y01089221D02*
D03*
X01666240Y01147987D02*
D03*
X01286490Y01461487D02*
D03*
X01870240Y01300487D02*
D03*
X01835740Y01381237D02*
D03*
X01299990Y01513237D02*
D03*
Y01584987D02*
D03*
X01478240Y01488987D02*
D03*
X00965740Y00911237D02*
D03*
X01258490Y01515487D02*
D03*
X01258490Y01586987D02*
D03*
X01562740Y01463237D02*
D03*
X01529740Y01453237D02*
D03*
X01386990Y01319487D02*
D03*
X01628240Y01319487D02*
D03*
X01949990Y01043987D02*
D03*
X01927990Y01025487D02*
D03*
X01501990Y01546237D02*
D03*
X01199173Y01570737D02*
D03*
X01226990Y01535737D02*
D03*
X01328990Y01526237D02*
D03*
X01136240Y00869237D02*
D03*
X00955740Y00846737D02*
D03*
Y00924737D02*
D03*
X01446240Y01445987D02*
D03*
X01869240Y00832737D02*
D03*
X01660990Y00848937D02*
D03*
X01596990Y01500737D02*
D03*
X01510741Y01524237D02*
D03*
X00904240Y01059237D02*
D03*
X01213990Y01570737D02*
D03*
Y01623237D02*
D03*
X01683490Y00842987D02*
D03*
X01769990Y00906237D02*
D03*
X01741890Y00911437D02*
D03*
X01636091Y00886037D02*
D03*
X01685890Y00873337D02*
D03*
X01636091Y00936837D02*
D03*
X01769990Y00818237D02*
D03*
X01907990Y00840237D02*
D03*
Y00884237D02*
D03*
Y00928237D02*
D03*
M02*
