G04*
G04 #@! TF.GenerationSoftware,Altium Limited,Altium Designer,24.0.1 (36)*
G04*
G04 Layer_Physical_Order=2*
G04 Layer_Color=16711680*
%FSAX44Y44*%
%MOMM*%
G71*
G04*
G04 #@! TF.SameCoordinates,AD116AE3-DE06-480B-A5EE-D1CFDF242DD9*
G04*
G04*
G04 #@! TF.FilePolarity,Positive*
G04*
G01*
G75*
%ADD10C,0.2000*%
%ADD17C,0.1000*%
%ADD31C,0.2540*%
%ADD53C,0.5000*%
%ADD54C,0.3000*%
%ADD55C,1.6000*%
%ADD56R,1.6000X1.6000*%
%ADD57R,3.0000X3.0000*%
%ADD58C,1.5000*%
%ADD59C,2.2500*%
%ADD60R,1.6000X1.6000*%
%ADD61C,3.0000*%
%ADD62C,0.5000*%
G36*
X01918000Y01678928D02*
X01918684D01*
X01920025Y01678661D01*
X01921288Y01678138D01*
X01922425Y01677379D01*
X01923392Y01676411D01*
X01924151Y01675275D01*
X01924675Y01674011D01*
X01924941Y01672670D01*
Y01671988D01*
X01924932Y01654488D01*
X01924942Y01654438D01*
X01924933Y01654387D01*
X01924998Y01652424D01*
X01925032Y01652277D01*
X01925022Y01652125D01*
X01925534Y01648235D01*
X01925599Y01648044D01*
X01925612Y01647842D01*
X01926628Y01644052D01*
X01926717Y01643871D01*
X01926757Y01643673D01*
X01928258Y01640047D01*
X01928371Y01639880D01*
X01928435Y01639689D01*
X01930397Y01636290D01*
X01930531Y01636139D01*
X01930620Y01635958D01*
X01933009Y01632844D01*
X01933160Y01632711D01*
X01933273Y01632543D01*
X01936047Y01629769D01*
X01936215Y01629657D01*
X01936348Y01629505D01*
X01939461Y01627116D01*
X01939642Y01627027D01*
X01939794Y01626894D01*
X01943192Y01624932D01*
X01943383Y01624867D01*
X01943551Y01624755D01*
X01947177Y01623253D01*
X01947375Y01623214D01*
X01947556Y01623124D01*
X01951346Y01622109D01*
X01951547Y01622095D01*
X01951738Y01622031D01*
X01955629Y01621518D01*
X01955780Y01621528D01*
X01955928Y01621494D01*
X01957890Y01621430D01*
X01957941Y01621438D01*
X01957990Y01621428D01*
X01975500Y01621428D01*
X01975515Y01621431D01*
X01975530Y01621428D01*
X01976189Y01621435D01*
X01977515Y01621171D01*
X01978778Y01620647D01*
X01979915Y01619888D01*
X01980882Y01618921D01*
X01981642Y01617784D01*
X01982165Y01616521D01*
X01982432Y01615180D01*
X01982432Y01614496D01*
X01982432Y00874477D01*
Y00873793D01*
X01982165Y00872452D01*
X01981642Y00871189D01*
X01980882Y00870052D01*
X01979915Y00869085D01*
X01978778Y00868326D01*
X01977515Y00867803D01*
X01976174Y00867536D01*
X01975492D01*
X01957992Y00867545D01*
X01957941Y00867535D01*
X01957890Y00867544D01*
X01955928Y00867479D01*
X01955780Y00867445D01*
X01955629Y00867455D01*
X01951738Y00866943D01*
X01951547Y00866878D01*
X01951346Y00866865D01*
X01947556Y00865849D01*
X01947375Y00865760D01*
X01947177Y00865720D01*
X01943551Y00864219D01*
X01943383Y00864107D01*
X01943192Y00864042D01*
X01939794Y00862080D01*
X01939642Y00861946D01*
X01939461Y00861857D01*
X01936348Y00859468D01*
X01936215Y00859317D01*
X01936047Y00859205D01*
X01933273Y00856430D01*
X01933160Y00856262D01*
X01933009Y00856129D01*
X01930620Y00853016D01*
X01930531Y00852835D01*
X01930397Y00852683D01*
X01928435Y00849285D01*
X01928371Y00849093D01*
X01928258Y00848926D01*
X01926757Y00845300D01*
X01926717Y00845102D01*
X01926628Y00844921D01*
X01925612Y00841131D01*
X01925599Y00840930D01*
X01925534Y00840739D01*
X01925022Y00836848D01*
X01925032Y00836697D01*
X01924998Y00836549D01*
X01924933Y00834587D01*
X01924942Y00834537D01*
X01924932Y00834487D01*
X01924932Y00816977D01*
X01924935Y00816962D01*
X01924932Y00816947D01*
X01924938Y00816288D01*
X01924675Y00814962D01*
X01924151Y00813699D01*
X01923392Y00812562D01*
X01922425Y00811595D01*
X01921288Y00810835D01*
X01920025Y00810312D01*
X01918684Y00810045D01*
X01918000Y00810045D01*
X00922981Y00810045D01*
X00922297D01*
X00920956Y00810312D01*
X00919693Y00810835D01*
X00918556Y00811595D01*
X00917589Y00812562D01*
X00916830Y00813699D01*
X00916306Y00814962D01*
X00916040Y00816303D01*
Y00816985D01*
X00916049Y00834485D01*
X00916039Y00834536D01*
X00916047Y00834587D01*
X00915983Y00836549D01*
X00915949Y00836696D01*
X00915959Y00836848D01*
X00915446Y00840739D01*
X00915382Y00840930D01*
X00915368Y00841131D01*
X00914353Y00844921D01*
X00914263Y00845102D01*
X00914224Y00845300D01*
X00912722Y00848926D01*
X00912610Y00849093D01*
X00912545Y00849285D01*
X00910583Y00852683D01*
X00910450Y00852835D01*
X00910361Y00853016D01*
X00907972Y00856129D01*
X00907821Y00856262D01*
X00907708Y00856430D01*
X00904934Y00859205D01*
X00904766Y00859317D01*
X00904633Y00859468D01*
X00901519Y00861857D01*
X00901339Y00861946D01*
X00901187Y00862080D01*
X00897788Y00864042D01*
X00897597Y00864107D01*
X00897430Y00864219D01*
X00893804Y00865720D01*
X00893606Y00865760D01*
X00893425Y00865849D01*
X00889635Y00866865D01*
X00889434Y00866878D01*
X00889242Y00866943D01*
X00885352Y00867455D01*
X00885200Y00867445D01*
X00885053Y00867479D01*
X00883091Y00867544D01*
X00883039Y00867535D01*
X00882989Y00867545D01*
X00865489Y00867536D01*
X00864807D01*
X00863466Y00867803D01*
X00862202Y00868326D01*
X00861066Y00869085D01*
X00860099Y00870052D01*
X00859339Y00871189D01*
X00858816Y00872452D01*
X00858549Y00873793D01*
Y00874477D01*
Y01614496D01*
Y01615180D01*
X00858816Y01616521D01*
X00859339Y01617784D01*
X00860099Y01618921D01*
X00861066Y01619888D01*
X00862202Y01620647D01*
X00863466Y01621171D01*
X00864807Y01621438D01*
X00865489D01*
X00882989Y01621428D01*
X00883039Y01621438D01*
X00883091Y01621430D01*
X00885053Y01621494D01*
X00885200Y01621528D01*
X00885352Y01621518D01*
X00889242Y01622031D01*
X00889433Y01622095D01*
X00889635Y01622109D01*
X00893425Y01623124D01*
X00893606Y01623214D01*
X00893804Y01623253D01*
X00897430Y01624755D01*
X00897597Y01624867D01*
X00897788Y01624932D01*
X00901187Y01626894D01*
X00901339Y01627027D01*
X00901519Y01627116D01*
X00904633Y01629505D01*
X00904766Y01629657D01*
X00904934Y01629769D01*
X00907708Y01632543D01*
X00907821Y01632711D01*
X00907972Y01632844D01*
X00910361Y01635958D01*
X00910450Y01636138D01*
X00910583Y01636290D01*
X00912545Y01639689D01*
X00912610Y01639880D01*
X00912722Y01640047D01*
X00914224Y01643673D01*
X00914263Y01643871D01*
X00914353Y01644052D01*
X00915368Y01647842D01*
X00915382Y01648044D01*
X00915446Y01648235D01*
X00915959Y01652125D01*
X00915949Y01652277D01*
X00915983Y01652424D01*
X00916047Y01654387D01*
X00916039Y01654437D01*
X00916049Y01654487D01*
X00916049Y01671996D01*
X00916046Y01672011D01*
X00916049Y01672026D01*
X00916042Y01672685D01*
X00916306Y01674011D01*
X00916830Y01675275D01*
X00917589Y01676411D01*
X00918556Y01677379D01*
X00919693Y01678138D01*
X00920956Y01678661D01*
X00922297Y01678928D01*
X01349932D01*
Y01517487D01*
X01350164Y01516316D01*
X01350827Y01515324D01*
X01351820Y01514661D01*
X01352990Y01514428D01*
X01487990D01*
X01489161Y01514661D01*
X01490153Y01515324D01*
X01490816Y01516316D01*
X01491049Y01517487D01*
Y01678928D01*
X01918000Y01678928D01*
D02*
G37*
%LPC*%
G36*
X01837306Y01633777D02*
X01833675D01*
X01830168Y01632837D01*
X01827023Y01631021D01*
X01824456Y01628454D01*
X01822640Y01625309D01*
X01821700Y01621802D01*
Y01618171D01*
X01822640Y01614664D01*
X01824456Y01611519D01*
X01827023Y01608952D01*
X01830168Y01607136D01*
X01833675Y01606197D01*
X01837306D01*
X01840813Y01607136D01*
X01843958Y01608952D01*
X01846525Y01611519D01*
X01848341Y01614664D01*
X01849280Y01618171D01*
Y01621802D01*
X01848341Y01625309D01*
X01846525Y01628454D01*
X01843958Y01631021D01*
X01840813Y01632837D01*
X01837306Y01633777D01*
D02*
G37*
G36*
X01170306D02*
X01166675D01*
X01163168Y01632837D01*
X01160023Y01631021D01*
X01157456Y01628454D01*
X01155640Y01625309D01*
X01154700Y01621802D01*
Y01618171D01*
X01155640Y01614664D01*
X01157456Y01611519D01*
X01160023Y01608952D01*
X01163168Y01607136D01*
X01166675Y01606197D01*
X01170306D01*
X01173813Y01607136D01*
X01176958Y01608952D01*
X01179525Y01611519D01*
X01181341Y01614664D01*
X01182280Y01618171D01*
Y01621802D01*
X01181341Y01625309D01*
X01179525Y01628454D01*
X01176958Y01631021D01*
X01173813Y01632837D01*
X01170306Y01633777D01*
D02*
G37*
G36*
X01837306Y01571277D02*
X01833675D01*
X01830168Y01570337D01*
X01827023Y01568521D01*
X01824456Y01565954D01*
X01822640Y01562809D01*
X01821700Y01559302D01*
Y01555671D01*
X01822640Y01552164D01*
X01824456Y01549019D01*
X01827023Y01546452D01*
X01830168Y01544636D01*
X01833675Y01543697D01*
X01837306D01*
X01840813Y01544636D01*
X01843958Y01546452D01*
X01846525Y01549019D01*
X01848341Y01552164D01*
X01849280Y01555671D01*
Y01559302D01*
X01848341Y01562809D01*
X01846525Y01565954D01*
X01843958Y01568521D01*
X01840813Y01570337D01*
X01837306Y01571277D01*
D02*
G37*
G36*
X01674306D02*
X01670675D01*
X01667168Y01570337D01*
X01664023Y01568521D01*
X01661456Y01565954D01*
X01659640Y01562809D01*
X01658700Y01559302D01*
Y01555671D01*
X01659640Y01552164D01*
X01661456Y01549019D01*
X01664023Y01546452D01*
X01667168Y01544636D01*
X01670675Y01543697D01*
X01674306D01*
X01677813Y01544636D01*
X01680958Y01546452D01*
X01683525Y01549019D01*
X01685341Y01552164D01*
X01686280Y01555671D01*
Y01559302D01*
X01685341Y01562809D01*
X01683525Y01565954D01*
X01680958Y01568521D01*
X01677813Y01570337D01*
X01674306Y01571277D01*
D02*
G37*
G36*
X01170306D02*
X01166675D01*
X01163168Y01570337D01*
X01160023Y01568521D01*
X01157456Y01565954D01*
X01155640Y01562809D01*
X01154700Y01559302D01*
Y01555671D01*
X01155640Y01552164D01*
X01157456Y01549019D01*
X01160023Y01546452D01*
X01163168Y01544636D01*
X01166675Y01543697D01*
X01170306D01*
X01173813Y01544636D01*
X01176958Y01546452D01*
X01179525Y01549019D01*
X01181341Y01552164D01*
X01182280Y01555671D01*
Y01559302D01*
X01181341Y01562809D01*
X01179525Y01565954D01*
X01176958Y01568521D01*
X01173813Y01570337D01*
X01170306Y01571277D01*
D02*
G37*
G36*
X01007306D02*
X01003675D01*
X01000168Y01570337D01*
X00997023Y01568521D01*
X00994456Y01565954D01*
X00992640Y01562809D01*
X00991701Y01559302D01*
Y01555671D01*
X00992640Y01552164D01*
X00994456Y01549019D01*
X00997023Y01546452D01*
X01000168Y01544636D01*
X01003675Y01543697D01*
X01007306D01*
X01010813Y01544636D01*
X01013958Y01546452D01*
X01016525Y01549019D01*
X01018341Y01552164D01*
X01019280Y01555671D01*
Y01559302D01*
X01018341Y01562809D01*
X01016525Y01565954D01*
X01013958Y01568521D01*
X01010813Y01570337D01*
X01007306Y01571277D01*
D02*
G37*
G36*
X01300993Y01590027D02*
X01298988D01*
X01297135Y01589259D01*
X01295718Y01587842D01*
X01294950Y01585989D01*
Y01583984D01*
X01295718Y01582132D01*
X01296106Y01581744D01*
Y01516480D01*
X01295718Y01516092D01*
X01294950Y01514239D01*
Y01512234D01*
X01295718Y01510382D01*
X01297135Y01508964D01*
X01298988Y01508197D01*
X01300993D01*
X01302845Y01508964D01*
X01304263Y01510382D01*
X01305030Y01512234D01*
Y01514239D01*
X01304263Y01516092D01*
X01303875Y01516480D01*
Y01581744D01*
X01304263Y01582132D01*
X01305030Y01583984D01*
Y01585989D01*
X01304263Y01587842D01*
X01302845Y01589259D01*
X01300993Y01590027D01*
D02*
G37*
G36*
X01443730Y01510027D02*
X01422650D01*
Y01488947D01*
X01443730D01*
Y01510027D01*
D02*
G37*
G36*
X01837306Y01508777D02*
X01833675D01*
X01830168Y01507837D01*
X01827023Y01506021D01*
X01824456Y01503454D01*
X01822640Y01500309D01*
X01821700Y01496802D01*
Y01493171D01*
X01822640Y01489664D01*
X01824456Y01486519D01*
X01827023Y01483952D01*
X01830168Y01482136D01*
X01833675Y01481197D01*
X01837306D01*
X01840813Y01482136D01*
X01843958Y01483952D01*
X01846525Y01486519D01*
X01848341Y01489664D01*
X01849280Y01493171D01*
Y01496802D01*
X01848341Y01500309D01*
X01846525Y01503454D01*
X01843958Y01506021D01*
X01840813Y01507837D01*
X01837306Y01508777D01*
D02*
G37*
G36*
X01674306D02*
X01670675D01*
X01667168Y01507837D01*
X01664023Y01506021D01*
X01661456Y01503454D01*
X01659640Y01500309D01*
X01658700Y01496802D01*
Y01493171D01*
X01659640Y01489664D01*
X01661456Y01486519D01*
X01664023Y01483952D01*
X01667168Y01482136D01*
X01670675Y01481197D01*
X01674306D01*
X01677813Y01482136D01*
X01680958Y01483952D01*
X01683525Y01486519D01*
X01685341Y01489664D01*
X01686280Y01493171D01*
Y01496802D01*
X01685341Y01500309D01*
X01683525Y01503454D01*
X01680958Y01506021D01*
X01677813Y01507837D01*
X01674306Y01508777D01*
D02*
G37*
G36*
X01170306D02*
X01166675D01*
X01163168Y01507837D01*
X01160023Y01506021D01*
X01157456Y01503454D01*
X01155640Y01500309D01*
X01154700Y01496802D01*
Y01493171D01*
X01155640Y01489664D01*
X01157456Y01486519D01*
X01160023Y01483952D01*
X01163168Y01482136D01*
X01166675Y01481197D01*
X01170306D01*
X01173813Y01482136D01*
X01176958Y01483952D01*
X01179525Y01486519D01*
X01181341Y01489664D01*
X01182280Y01493171D01*
Y01496802D01*
X01181341Y01500309D01*
X01179525Y01503454D01*
X01176958Y01506021D01*
X01173813Y01507837D01*
X01170306Y01508777D01*
D02*
G37*
G36*
X01007306D02*
X01003675D01*
X01000168Y01507837D01*
X00997023Y01506021D01*
X00994456Y01503454D01*
X00992640Y01500309D01*
X00991701Y01496802D01*
Y01493171D01*
X00992640Y01489664D01*
X00994456Y01486519D01*
X00997023Y01483952D01*
X01000168Y01482136D01*
X01003675Y01481197D01*
X01007306D01*
X01010813Y01482136D01*
X01013958Y01483952D01*
X01016525Y01486519D01*
X01018341Y01489664D01*
X01019280Y01493171D01*
Y01496802D01*
X01018341Y01500309D01*
X01016525Y01503454D01*
X01013958Y01506021D01*
X01010813Y01507837D01*
X01007306Y01508777D01*
D02*
G37*
G36*
X01821530Y01381027D02*
X01786450D01*
Y01345947D01*
X01821530D01*
Y01381027D01*
D02*
G37*
G36*
X01721530D02*
X01686450D01*
Y01345947D01*
X01721530D01*
Y01381027D01*
D02*
G37*
G36*
X01599200D02*
X01564120D01*
Y01345947D01*
X01599200D01*
Y01381027D01*
D02*
G37*
G36*
X01499200D02*
X01464120D01*
Y01345947D01*
X01499200D01*
Y01381027D01*
D02*
G37*
G36*
X01376860D02*
X01341780D01*
Y01345947D01*
X01376860D01*
Y01381027D01*
D02*
G37*
G36*
X01276860D02*
X01241780D01*
Y01345947D01*
X01276860D01*
Y01381027D01*
D02*
G37*
G36*
X01154530D02*
X01119450D01*
Y01345947D01*
X01154530D01*
Y01381027D01*
D02*
G37*
G36*
X01054530D02*
X01019450D01*
Y01345947D01*
X01054530D01*
Y01381027D01*
D02*
G37*
G36*
X01830490Y01427621D02*
X01656240D01*
X01654754Y01427326D01*
X01653494Y01426483D01*
X01625244Y01398233D01*
X01624402Y01396973D01*
X01624106Y01395487D01*
Y01323371D01*
X01390233D01*
X01389845Y01323759D01*
X01387993Y01324527D01*
X01385988D01*
X01384135Y01323759D01*
X01382718Y01322341D01*
X01381950Y01320489D01*
Y01318484D01*
X01382718Y01316632D01*
X01384135Y01315214D01*
X01385988Y01314447D01*
X01387993D01*
X01389845Y01315214D01*
X01390233Y01315602D01*
X01624998D01*
X01625385Y01315214D01*
X01627238Y01314447D01*
X01629243D01*
X01631095Y01315214D01*
X01632513Y01316632D01*
X01633280Y01318484D01*
Y01320489D01*
X01632513Y01322342D01*
X01631875Y01322980D01*
Y01393878D01*
X01657849Y01419852D01*
X01828881D01*
X01845333Y01403400D01*
Y01304047D01*
X01844160Y01303561D01*
X01839625Y01308096D01*
Y01377994D01*
X01840013Y01378382D01*
X01840780Y01380234D01*
Y01382239D01*
X01840013Y01384091D01*
X01838595Y01385509D01*
X01836743Y01386277D01*
X01834738D01*
X01832885Y01385509D01*
X01831468Y01384091D01*
X01830700Y01382239D01*
Y01380234D01*
X01831468Y01378382D01*
X01831856Y01377994D01*
Y01306487D01*
X01832151Y01305000D01*
X01832994Y01303740D01*
X01866244Y01270490D01*
X01867504Y01269648D01*
X01868990Y01269352D01*
X01888381D01*
X01935356Y01222378D01*
Y01017621D01*
X01894850D01*
X01870537Y01041934D01*
X01869277Y01042776D01*
X01867790Y01043071D01*
X01811030D01*
Y01049727D01*
X01789950D01*
Y01028647D01*
X01811030D01*
Y01035302D01*
X01866181D01*
X01890494Y01010990D01*
X01891754Y01010148D01*
X01893240Y01009852D01*
X01936990D01*
X01938477Y01010148D01*
X01939737Y01010990D01*
X01941987Y01013240D01*
X01942829Y01014500D01*
X01943125Y01015987D01*
Y01223987D01*
X01942829Y01225473D01*
X01941987Y01226733D01*
X01893389Y01275332D01*
X01893915Y01276602D01*
X01929131D01*
X01946106Y01259628D01*
Y01047230D01*
X01945718Y01046842D01*
X01944950Y01044989D01*
Y01042984D01*
X01945718Y01041132D01*
X01947135Y01039714D01*
X01948988Y01038947D01*
X01950993D01*
X01952845Y01039714D01*
X01954263Y01041132D01*
X01955030Y01042984D01*
Y01044989D01*
X01954263Y01046842D01*
X01953875Y01047230D01*
Y01261237D01*
X01953579Y01262723D01*
X01952737Y01263984D01*
X01933487Y01283233D01*
X01932227Y01284076D01*
X01930740Y01284371D01*
X01872599D01*
X01853103Y01303868D01*
Y01405009D01*
X01852807Y01406496D01*
X01851965Y01407756D01*
X01833237Y01426483D01*
X01831977Y01427326D01*
X01830490Y01427621D01*
D02*
G37*
G36*
X01780312Y01304527D02*
X01777669D01*
X01775115Y01303842D01*
X01772826Y01302521D01*
X01770956Y01300651D01*
X01769635Y01298362D01*
X01768950Y01295808D01*
Y01293165D01*
X01769635Y01290611D01*
X01770956Y01288322D01*
X01772826Y01286453D01*
X01775115Y01285131D01*
X01777669Y01284447D01*
X01780312D01*
X01782866Y01285131D01*
X01785155Y01286453D01*
X01787024Y01288322D01*
X01788346Y01290611D01*
X01789030Y01293165D01*
Y01295808D01*
X01788346Y01298362D01*
X01787024Y01300651D01*
X01785155Y01302521D01*
X01782866Y01303842D01*
X01780312Y01304527D01*
D02*
G37*
G36*
X01755312D02*
X01752669D01*
X01750115Y01303842D01*
X01747826Y01302521D01*
X01745956Y01300651D01*
X01744635Y01298362D01*
X01743950Y01295808D01*
Y01293165D01*
X01744635Y01290611D01*
X01745956Y01288322D01*
X01747826Y01286453D01*
X01750115Y01285131D01*
X01752669Y01284447D01*
X01755312D01*
X01757866Y01285131D01*
X01760155Y01286453D01*
X01762024Y01288322D01*
X01763346Y01290611D01*
X01764030Y01293165D01*
Y01295808D01*
X01763346Y01298362D01*
X01762024Y01300651D01*
X01760155Y01302521D01*
X01757866Y01303842D01*
X01755312Y01304527D01*
D02*
G37*
G36*
X01557982D02*
X01555339D01*
X01552785Y01303842D01*
X01550496Y01302521D01*
X01548626Y01300651D01*
X01547305Y01298362D01*
X01546620Y01295808D01*
Y01293165D01*
X01547305Y01290611D01*
X01548626Y01288322D01*
X01550496Y01286453D01*
X01552785Y01285131D01*
X01555339Y01284447D01*
X01557982D01*
X01560536Y01285131D01*
X01562825Y01286453D01*
X01564694Y01288322D01*
X01566016Y01290611D01*
X01566700Y01293165D01*
Y01295808D01*
X01566016Y01298362D01*
X01564694Y01300651D01*
X01562825Y01302521D01*
X01560536Y01303842D01*
X01557982Y01304527D01*
D02*
G37*
G36*
X01532982D02*
X01530339D01*
X01527785Y01303842D01*
X01525496Y01302521D01*
X01523626Y01300651D01*
X01522305Y01298362D01*
X01521620Y01295808D01*
Y01293165D01*
X01522305Y01290611D01*
X01523626Y01288322D01*
X01525496Y01286453D01*
X01527785Y01285131D01*
X01530339Y01284447D01*
X01532982D01*
X01535536Y01285131D01*
X01537825Y01286453D01*
X01539694Y01288322D01*
X01541016Y01290611D01*
X01541700Y01293165D01*
Y01295808D01*
X01541016Y01298362D01*
X01539694Y01300651D01*
X01537825Y01302521D01*
X01535536Y01303842D01*
X01532982Y01304527D01*
D02*
G37*
G36*
X01507982D02*
X01505339D01*
X01502785Y01303842D01*
X01500496Y01302521D01*
X01498626Y01300651D01*
X01497305Y01298362D01*
X01496620Y01295808D01*
Y01293165D01*
X01497305Y01290611D01*
X01498626Y01288322D01*
X01500496Y01286453D01*
X01502785Y01285131D01*
X01505339Y01284447D01*
X01507982D01*
X01510536Y01285131D01*
X01512825Y01286453D01*
X01514694Y01288322D01*
X01516016Y01290611D01*
X01516700Y01293165D01*
Y01295808D01*
X01516016Y01298362D01*
X01514694Y01300651D01*
X01512825Y01302521D01*
X01510536Y01303842D01*
X01507982Y01304527D01*
D02*
G37*
G36*
X01335642D02*
X01332999D01*
X01330445Y01303842D01*
X01328156Y01302521D01*
X01326286Y01300651D01*
X01324965Y01298362D01*
X01324280Y01295808D01*
Y01293165D01*
X01324965Y01290611D01*
X01326286Y01288322D01*
X01328156Y01286453D01*
X01330445Y01285131D01*
X01332999Y01284447D01*
X01335642D01*
X01338196Y01285131D01*
X01340485Y01286453D01*
X01342354Y01288322D01*
X01343676Y01290611D01*
X01344360Y01293165D01*
Y01295808D01*
X01343676Y01298362D01*
X01342354Y01300651D01*
X01340485Y01302521D01*
X01338196Y01303842D01*
X01335642Y01304527D01*
D02*
G37*
G36*
X01310642D02*
X01307999D01*
X01305445Y01303842D01*
X01303156Y01302521D01*
X01301286Y01300651D01*
X01299965Y01298362D01*
X01299280Y01295808D01*
Y01293165D01*
X01299965Y01290611D01*
X01301286Y01288322D01*
X01303156Y01286453D01*
X01305445Y01285131D01*
X01307999Y01284447D01*
X01310642D01*
X01313196Y01285131D01*
X01315485Y01286453D01*
X01317354Y01288322D01*
X01318676Y01290611D01*
X01319360Y01293165D01*
Y01295808D01*
X01318676Y01298362D01*
X01317354Y01300651D01*
X01315485Y01302521D01*
X01313196Y01303842D01*
X01310642Y01304527D01*
D02*
G37*
G36*
X01285642D02*
X01282999D01*
X01280445Y01303842D01*
X01278156Y01302521D01*
X01276286Y01300651D01*
X01274965Y01298362D01*
X01274280Y01295808D01*
Y01293165D01*
X01274965Y01290611D01*
X01276286Y01288322D01*
X01278156Y01286453D01*
X01280445Y01285131D01*
X01282999Y01284447D01*
X01285642D01*
X01288196Y01285131D01*
X01290485Y01286453D01*
X01292354Y01288322D01*
X01293676Y01290611D01*
X01294360Y01293165D01*
Y01295808D01*
X01293676Y01298362D01*
X01292354Y01300651D01*
X01290485Y01302521D01*
X01288196Y01303842D01*
X01285642Y01304527D01*
D02*
G37*
G36*
X01563743Y01468277D02*
X01561738D01*
X01559886Y01467509D01*
X01558468Y01466092D01*
X01557700Y01464239D01*
Y01462234D01*
X01558468Y01460382D01*
X01558856Y01459994D01*
Y01421096D01*
X01553131Y01415371D01*
X01098490D01*
X01097004Y01415076D01*
X01095744Y01414234D01*
X01084244Y01402733D01*
X01083401Y01401473D01*
X01083106Y01399987D01*
Y01326737D01*
X01083401Y01325250D01*
X01084244Y01323990D01*
X01088747Y01319487D01*
X01084244Y01314984D01*
X01083401Y01313723D01*
X01083106Y01312237D01*
Y01303837D01*
X01080826Y01302521D01*
X01078956Y01300651D01*
X01077635Y01298362D01*
X01076950Y01295808D01*
Y01293165D01*
X01077635Y01290611D01*
X01078956Y01288322D01*
X01080826Y01286453D01*
X01083115Y01285131D01*
X01085669Y01284447D01*
X01088312D01*
X01090866Y01285131D01*
X01093155Y01286453D01*
X01095024Y01288322D01*
X01096346Y01290611D01*
X01097030Y01293165D01*
Y01295808D01*
X01096346Y01298362D01*
X01095024Y01300651D01*
X01093155Y01302521D01*
X01090875Y01303837D01*
Y01310628D01*
X01095850Y01315602D01*
X01103131D01*
X01108106Y01310628D01*
Y01303837D01*
X01105826Y01302521D01*
X01103956Y01300651D01*
X01102635Y01298362D01*
X01101951Y01295808D01*
Y01293165D01*
X01102635Y01290611D01*
X01103956Y01288322D01*
X01105826Y01286453D01*
X01108115Y01285131D01*
X01110669Y01284447D01*
X01113312D01*
X01115866Y01285131D01*
X01118155Y01286453D01*
X01120024Y01288322D01*
X01121346Y01290611D01*
X01122030Y01293165D01*
Y01295808D01*
X01121346Y01298362D01*
X01120024Y01300651D01*
X01118155Y01302521D01*
X01115875Y01303837D01*
Y01312237D01*
X01115579Y01313723D01*
X01114737Y01314984D01*
X01107487Y01322233D01*
X01106227Y01323076D01*
X01104740Y01323371D01*
X01095850D01*
X01090875Y01328346D01*
Y01398378D01*
X01100099Y01407602D01*
X01554740D01*
X01556227Y01407898D01*
X01557487Y01408740D01*
X01565487Y01416740D01*
X01566329Y01418000D01*
X01566625Y01419487D01*
Y01459994D01*
X01567013Y01460382D01*
X01567780Y01462234D01*
Y01464239D01*
X01567013Y01466092D01*
X01565595Y01467509D01*
X01563743Y01468277D01*
D02*
G37*
G36*
X01530743Y01458277D02*
X01528738D01*
X01526886Y01457509D01*
X01525468Y01456092D01*
X01524700Y01454239D01*
Y01452234D01*
X01525468Y01450382D01*
X01525856Y01449994D01*
Y01439596D01*
X01518131Y01431871D01*
X01078990D01*
X01077504Y01431575D01*
X01076244Y01430733D01*
X01059244Y01413734D01*
X01058401Y01412473D01*
X01058106Y01410987D01*
Y01303837D01*
X01055826Y01302521D01*
X01053956Y01300651D01*
X01052635Y01298362D01*
X01051950Y01295808D01*
Y01293165D01*
X01052635Y01290611D01*
X01053956Y01288322D01*
X01055826Y01286453D01*
X01058115Y01285131D01*
X01060669Y01284447D01*
X01063312D01*
X01065866Y01285131D01*
X01068155Y01286453D01*
X01070024Y01288322D01*
X01071346Y01290611D01*
X01072030Y01293165D01*
Y01295808D01*
X01071346Y01298362D01*
X01070024Y01300651D01*
X01068155Y01302521D01*
X01065875Y01303837D01*
Y01409377D01*
X01080600Y01424102D01*
X01519740D01*
X01521227Y01424398D01*
X01522487Y01425240D01*
X01532487Y01435240D01*
X01533329Y01436500D01*
X01533625Y01437987D01*
Y01449994D01*
X01534013Y01450382D01*
X01534780Y01452234D01*
Y01454239D01*
X01534013Y01456092D01*
X01532595Y01457509D01*
X01530743Y01458277D01*
D02*
G37*
G36*
X01015490Y01268039D02*
X01015484Y01268038D01*
X01015479Y01268039D01*
X01014445Y01268038D01*
X01014150Y01267979D01*
X01013848Y01267979D01*
X01011821Y01267574D01*
X01011543Y01267459D01*
X01011247Y01267400D01*
X01009337Y01266607D01*
X01009087Y01266440D01*
X01008809Y01266324D01*
X01007090Y01265175D01*
X01006877Y01264961D01*
X01006627Y01264794D01*
X01005165Y01263331D01*
X01004998Y01263081D01*
X01004785Y01262868D01*
X01003637Y01261148D01*
X01003522Y01260870D01*
X01003355Y01260620D01*
X01002564Y01258709D01*
X01002505Y01258413D01*
X01002390Y01258135D01*
X01001987Y01256107D01*
X01001987Y01255806D01*
X01001928Y01255511D01*
Y01254477D01*
Y00974477D01*
Y00973442D01*
X01001987Y00973147D01*
Y00972845D01*
X01002390Y00970816D01*
X01002505Y00970538D01*
X01002564Y00970242D01*
X01003356Y00968331D01*
X01003523Y00968080D01*
X01003639Y00967802D01*
X01004788Y00966081D01*
X01005001Y00965869D01*
X01005169Y00965618D01*
X01006632Y00964155D01*
X01006882Y00963988D01*
X01007095Y00963774D01*
X01008816Y00962625D01*
X01009094Y00962510D01*
X01009344Y00962342D01*
X01011256Y00961551D01*
X01011552Y00961492D01*
X01011830Y00961376D01*
X01013859Y00960973D01*
X01014160D01*
X01014456Y00960914D01*
X01015490D01*
X01015495Y00960915D01*
X01015499Y00960914D01*
X01760490Y00960914D01*
X01761525D01*
X01761821Y00960973D01*
X01762122D01*
X01764151Y00961376D01*
X01764429Y00961492D01*
X01764725Y00961551D01*
X01766636Y00962342D01*
X01766887Y00962510D01*
X01767165Y00962625D01*
X01768886Y00963774D01*
X01769099Y00963988D01*
X01769349Y00964155D01*
X01770812Y00965618D01*
X01770980Y00965869D01*
X01771192Y00966081D01*
X01772342Y00967802D01*
X01772457Y00968080D01*
X01772625Y00968331D01*
X01773416Y00970242D01*
X01773475Y00970538D01*
X01773591Y00970816D01*
X01773994Y00972845D01*
Y00973147D01*
X01774053Y00973442D01*
Y00984195D01*
X01775225Y00984778D01*
X01775670Y00985122D01*
X01776122Y00985455D01*
X01777510Y00986976D01*
X01777801Y00987458D01*
X01778102Y00987932D01*
X01778846Y00989852D01*
X01778943Y00990406D01*
X01779053Y00990957D01*
Y00993081D01*
X01778820Y00994252D01*
X01777982Y00996275D01*
X01777319Y00997267D01*
X01775993Y00998593D01*
X01776892Y00999491D01*
X01777555Y01000484D01*
X01778316Y01002321D01*
X01778549Y01003492D01*
Y01005481D01*
X01778316Y01006652D01*
X01777555Y01008489D01*
X01776892Y01009482D01*
X01775637Y01010737D01*
X01776892Y01011991D01*
X01777555Y01012984D01*
X01778316Y01014821D01*
X01778549Y01015992D01*
Y01017981D01*
X01778316Y01019152D01*
X01777555Y01020989D01*
X01776892Y01021982D01*
X01775637Y01023237D01*
X01776892Y01024491D01*
X01777555Y01025484D01*
X01778316Y01027321D01*
X01778549Y01028492D01*
Y01030481D01*
X01778316Y01031652D01*
X01777555Y01033489D01*
X01776892Y01034482D01*
X01775637Y01035737D01*
X01776892Y01036991D01*
X01777555Y01037984D01*
X01778316Y01039821D01*
X01778549Y01040992D01*
Y01042981D01*
X01778316Y01044152D01*
X01777555Y01045989D01*
X01776892Y01046982D01*
X01775637Y01048237D01*
X01776892Y01049491D01*
X01777555Y01050484D01*
X01778316Y01052321D01*
X01778549Y01053492D01*
Y01055481D01*
X01778316Y01056652D01*
X01777555Y01058489D01*
X01776892Y01059482D01*
X01775637Y01060737D01*
X01776892Y01061991D01*
X01777555Y01062984D01*
X01778316Y01064821D01*
X01778549Y01065992D01*
Y01067981D01*
X01778316Y01069152D01*
X01777555Y01070989D01*
X01776892Y01071982D01*
X01775637Y01073237D01*
X01776892Y01074492D01*
X01777555Y01075484D01*
X01778316Y01077321D01*
X01778549Y01078492D01*
Y01080481D01*
X01778316Y01081652D01*
X01777555Y01083489D01*
X01776892Y01084482D01*
X01775637Y01085737D01*
X01776892Y01086992D01*
X01777555Y01087984D01*
X01778316Y01089821D01*
X01778549Y01090992D01*
Y01092981D01*
X01778316Y01094152D01*
X01777555Y01095989D01*
X01776892Y01096982D01*
X01775637Y01098237D01*
X01776892Y01099492D01*
X01777555Y01100484D01*
X01778316Y01102321D01*
X01778549Y01103492D01*
Y01105481D01*
X01778316Y01106652D01*
X01777555Y01108489D01*
X01776892Y01109482D01*
X01775637Y01110737D01*
X01776892Y01111992D01*
X01777555Y01112984D01*
X01778316Y01114821D01*
X01778549Y01115992D01*
Y01117981D01*
X01778316Y01119152D01*
X01777555Y01120989D01*
X01776892Y01121982D01*
X01775637Y01123237D01*
X01776892Y01124492D01*
X01777555Y01125484D01*
X01778316Y01127321D01*
X01778549Y01128492D01*
Y01130481D01*
X01778316Y01131652D01*
X01777555Y01133489D01*
X01776892Y01134482D01*
X01775637Y01135737D01*
X01776892Y01136992D01*
X01777555Y01137984D01*
X01778316Y01139821D01*
X01778549Y01140992D01*
Y01142981D01*
X01778316Y01144152D01*
X01777555Y01145989D01*
X01776892Y01146982D01*
X01775637Y01148237D01*
X01776892Y01149492D01*
X01777555Y01150484D01*
X01778316Y01152321D01*
X01778549Y01153492D01*
Y01155481D01*
X01778316Y01156652D01*
X01777555Y01158489D01*
X01776892Y01159482D01*
X01775637Y01160737D01*
X01776892Y01161992D01*
X01777555Y01162984D01*
X01778316Y01164821D01*
X01778549Y01165992D01*
Y01167981D01*
X01778316Y01169152D01*
X01777555Y01170989D01*
X01776892Y01171982D01*
X01775637Y01173237D01*
X01776892Y01174492D01*
X01777555Y01175484D01*
X01778316Y01177321D01*
X01778549Y01178492D01*
Y01180481D01*
X01778316Y01181652D01*
X01777555Y01183489D01*
X01776892Y01184482D01*
X01775637Y01185737D01*
X01776892Y01186992D01*
X01777555Y01187984D01*
X01778316Y01189821D01*
X01778549Y01190992D01*
Y01192981D01*
X01778316Y01194152D01*
X01777555Y01195989D01*
X01776892Y01196982D01*
X01775637Y01198237D01*
X01776892Y01199492D01*
X01777555Y01200484D01*
X01778316Y01202321D01*
X01778549Y01203492D01*
Y01205481D01*
X01778316Y01206652D01*
X01777555Y01208489D01*
X01776892Y01209482D01*
X01775637Y01210737D01*
X01776892Y01211992D01*
X01777555Y01212984D01*
X01778316Y01214821D01*
X01778549Y01215992D01*
Y01217981D01*
X01778316Y01219152D01*
X01777555Y01220989D01*
X01776892Y01221982D01*
X01775637Y01223237D01*
X01776892Y01224492D01*
X01777555Y01225484D01*
X01778316Y01227321D01*
X01778549Y01228492D01*
Y01230481D01*
X01778316Y01231652D01*
X01777555Y01233489D01*
X01776892Y01234482D01*
X01775993Y01235380D01*
X01777319Y01236706D01*
X01777982Y01237698D01*
X01778820Y01239721D01*
X01779053Y01240892D01*
Y01243016D01*
X01778943Y01243568D01*
X01778846Y01244121D01*
X01778102Y01246041D01*
X01777801Y01246516D01*
X01777510Y01246997D01*
X01776122Y01248518D01*
X01775669Y01248852D01*
X01775225Y01249195D01*
X01774053Y01249778D01*
Y01255511D01*
X01773994Y01255807D01*
Y01256108D01*
X01773591Y01258137D01*
X01773475Y01258416D01*
X01773416Y01258711D01*
X01772625Y01260623D01*
X01772457Y01260873D01*
X01772342Y01261151D01*
X01771192Y01262872D01*
X01770979Y01263085D01*
X01770812Y01263335D01*
X01769349Y01264798D01*
X01769099Y01264966D01*
X01768885Y01265179D01*
X01767165Y01266328D01*
X01766887Y01266443D01*
X01766636Y01266611D01*
X01764725Y01267403D01*
X01764429Y01267461D01*
X01764151Y01267577D01*
X01762122Y01267980D01*
X01761821D01*
X01761525Y01268039D01*
X01760490Y01268039D01*
X01015490Y01268039D01*
D02*
G37*
G36*
X01827278Y01259527D02*
X01824503D01*
X01821822Y01258808D01*
X01819419Y01257421D01*
X01817456Y01255458D01*
X01816069Y01253055D01*
X01815350Y01250374D01*
Y01247599D01*
X01816069Y01244918D01*
X01817456Y01242515D01*
X01819419Y01240553D01*
X01821822Y01239165D01*
X01824503Y01238447D01*
X01827278D01*
X01829959Y01239165D01*
X01832362Y01240553D01*
X01834324Y01242515D01*
X01835712Y01244918D01*
X01836430Y01247599D01*
Y01250374D01*
X01835712Y01253055D01*
X01834324Y01255458D01*
X01832362Y01257421D01*
X01829959Y01258808D01*
X01827278Y01259527D01*
D02*
G37*
G36*
X01811030D02*
X01789950D01*
Y01238447D01*
X01811030D01*
Y01259527D01*
D02*
G37*
G36*
Y01227527D02*
X01789950D01*
Y01206447D01*
X01811030D01*
Y01227527D01*
D02*
G37*
G36*
Y01176727D02*
X01789950D01*
Y01155647D01*
X01811030D01*
Y01176727D01*
D02*
G37*
G36*
Y01151327D02*
X01789950D01*
Y01130247D01*
X01811030D01*
Y01151327D01*
D02*
G37*
G36*
Y01100527D02*
X01789950D01*
Y01079447D01*
X01811030D01*
Y01100527D01*
D02*
G37*
G36*
Y01075127D02*
X01789950D01*
Y01054047D01*
X01811030D01*
Y01075127D01*
D02*
G37*
G36*
Y01125927D02*
X01789950D01*
Y01104847D01*
X01811030D01*
Y01110248D01*
X01905862D01*
X01922852Y01093258D01*
Y01025487D01*
X01922950Y01024990D01*
Y01024484D01*
X01923144Y01024016D01*
X01923243Y01023520D01*
X01923524Y01023099D01*
X01923718Y01022632D01*
X01924076Y01022274D01*
X01924357Y01021853D01*
X01924778Y01021572D01*
X01925135Y01021214D01*
X01925603Y01021020D01*
X01926024Y01020739D01*
X01926520Y01020640D01*
X01926988Y01020447D01*
X01927494D01*
X01927990Y01020348D01*
X01928487Y01020447D01*
X01928993D01*
X01929461Y01020640D01*
X01929957Y01020739D01*
X01930378Y01021020D01*
X01930845Y01021214D01*
X01931203Y01021572D01*
X01931624Y01021853D01*
X01931905Y01022274D01*
X01932263Y01022632D01*
X01932457Y01023099D01*
X01932738Y01023520D01*
X01932837Y01024016D01*
X01933030Y01024484D01*
Y01024990D01*
X01933129Y01025487D01*
Y01095387D01*
X01932738Y01097353D01*
X01931624Y01099020D01*
X01911624Y01119020D01*
X01909957Y01120134D01*
X01907990Y01120525D01*
X01811030D01*
Y01125927D01*
D02*
G37*
G36*
Y01024327D02*
X01789950D01*
Y01003247D01*
X01811030D01*
Y01024327D01*
D02*
G37*
G36*
X01191280Y00908727D02*
X01170201D01*
Y00887647D01*
X01191280D01*
Y00908727D01*
D02*
G37*
G36*
X01883640Y00941975D02*
X01636091D01*
X01635594Y00941877D01*
X01635088D01*
X01634620Y00941683D01*
X01634124Y00941584D01*
X01633703Y00941303D01*
X01633235Y00941109D01*
X01632878Y00940751D01*
X01632457Y00940470D01*
X01632176Y00940049D01*
X01631818Y00939691D01*
X01631624Y00939224D01*
X01631343Y00938803D01*
X01631244Y00938307D01*
X01631051Y00937839D01*
Y00937333D01*
X01630952Y00936837D01*
X01631051Y00936340D01*
Y00935834D01*
X01631244Y00935367D01*
X01631343Y00934870D01*
X01631624Y00934449D01*
X01631818Y00933982D01*
X01632176Y00933624D01*
X01632457Y00933203D01*
X01632878Y00932922D01*
X01633235Y00932564D01*
X01633703Y00932370D01*
X01634124Y00932089D01*
X01634620Y00931990D01*
X01635088Y00931797D01*
X01635594D01*
X01636091Y00931698D01*
X01673230D01*
X01673616Y00930428D01*
X01672407Y00929620D01*
X01632457Y00889670D01*
X01632176Y00889249D01*
X01631818Y00888892D01*
X01631624Y00888424D01*
X01631343Y00888003D01*
X01631244Y00887507D01*
X01631051Y00887039D01*
Y00886533D01*
X01630952Y00886037D01*
X01631051Y00885540D01*
Y00885034D01*
X01631244Y00884566D01*
X01631343Y00884070D01*
X01631624Y00883649D01*
X01631818Y00883182D01*
X01632176Y00882824D01*
X01632457Y00882403D01*
X01632878Y00882122D01*
X01633235Y00881764D01*
X01633703Y00881570D01*
X01634124Y00881289D01*
X01634620Y00881190D01*
X01635088Y00880997D01*
X01635594D01*
X01636091Y00880898D01*
X01636587Y00880997D01*
X01637093D01*
X01637561Y00881190D01*
X01638057Y00881289D01*
X01638478Y00881570D01*
X01638945Y00881764D01*
X01639303Y00882122D01*
X01639724Y00882403D01*
X01678169Y00920848D01*
X01742375D01*
X01742861Y00919675D01*
X01738257Y00915070D01*
X01737976Y00914650D01*
X01737618Y00914292D01*
X01737424Y00913824D01*
X01737143Y00913403D01*
X01737044Y00912907D01*
X01736850Y00912439D01*
Y00911933D01*
X01736752Y00911437D01*
X01736850Y00910940D01*
Y00910434D01*
X01737044Y00909967D01*
X01737143Y00909470D01*
X01737424Y00909049D01*
X01737618Y00908582D01*
X01737976Y00908224D01*
X01738257Y00907803D01*
X01738678Y00907522D01*
X01739035Y00907164D01*
X01739503Y00906970D01*
X01739924Y00906689D01*
X01740420Y00906590D01*
X01740888Y00906397D01*
X01741394D01*
X01741890Y00906298D01*
X01742387Y00906397D01*
X01742893D01*
X01743360Y00906590D01*
X01743857Y00906689D01*
X01744278Y00906970D01*
X01744745Y00907164D01*
X01745103Y00907522D01*
X01745524Y00907803D01*
X01749819Y00912098D01*
X01767579D01*
X01767625Y00911982D01*
X01767790Y00910828D01*
X01767603Y00910703D01*
X01767135Y00910509D01*
X01766778Y00910151D01*
X01766357Y00909870D01*
X01766076Y00909449D01*
X01765718Y00909092D01*
X01765524Y00908624D01*
X01765243Y00908203D01*
X01765144Y00907707D01*
X01764950Y00907239D01*
Y00906733D01*
X01764852Y00906237D01*
Y00885615D01*
X01757712Y00878475D01*
X01685890D01*
X01685394Y00878377D01*
X01684888D01*
X01684420Y00878183D01*
X01683924Y00878084D01*
X01683503Y00877803D01*
X01683035Y00877609D01*
X01682678Y00877251D01*
X01682257Y00876970D01*
X01681976Y00876550D01*
X01681618Y00876192D01*
X01681424Y00875724D01*
X01681143Y00875303D01*
X01681044Y00874807D01*
X01680850Y00874339D01*
Y00873833D01*
X01680752Y00873337D01*
X01680850Y00872840D01*
Y00872334D01*
X01681044Y00871867D01*
X01681143Y00871370D01*
X01681424Y00870949D01*
X01681618Y00870482D01*
X01681976Y00870124D01*
X01682257Y00869703D01*
X01682678Y00869422D01*
X01683035Y00869064D01*
X01683503Y00868870D01*
X01683924Y00868589D01*
X01684420Y00868490D01*
X01684888Y00868297D01*
X01685394D01*
X01685890Y00868198D01*
X01759840D01*
X01761807Y00868589D01*
X01763474Y00869703D01*
X01773624Y00879853D01*
X01774738Y00881520D01*
X01775129Y00883487D01*
Y00906237D01*
X01775030Y00906733D01*
Y00907239D01*
X01774837Y00907707D01*
X01774738Y00908203D01*
X01774457Y00908624D01*
X01774263Y00909092D01*
X01773905Y00909449D01*
X01773624Y00909870D01*
X01773203Y00910151D01*
X01772845Y00910509D01*
X01772378Y00910703D01*
X01772191Y00910828D01*
X01772356Y00911982D01*
X01772402Y00912098D01*
X01861362D01*
X01867102Y00906358D01*
Y00855237D01*
X01867493Y00853270D01*
X01868607Y00851603D01*
X01883607Y00836603D01*
X01885274Y00835489D01*
X01887240Y00835098D01*
X01907990D01*
X01908487Y00835197D01*
X01908993D01*
X01909460Y00835390D01*
X01909957Y00835489D01*
X01910378Y00835770D01*
X01910845Y00835964D01*
X01911203Y00836322D01*
X01911624Y00836603D01*
X01911905Y00837024D01*
X01912263Y00837382D01*
X01912457Y00837849D01*
X01912738Y00838270D01*
X01912837Y00838766D01*
X01913030Y00839234D01*
Y00839740D01*
X01913129Y00840237D01*
X01913030Y00840733D01*
Y00841239D01*
X01912837Y00841707D01*
X01912738Y00842203D01*
X01912457Y00842624D01*
X01912263Y00843092D01*
X01911905Y00843449D01*
X01911624Y00843870D01*
X01911203Y00844151D01*
X01910845Y00844509D01*
X01910378Y00844703D01*
X01909957Y00844984D01*
X01909460Y00845083D01*
X01908993Y00845277D01*
X01908487D01*
X01907990Y00845375D01*
X01889369D01*
X01877379Y00857365D01*
Y00908487D01*
X01876988Y00910453D01*
X01876036Y00911877D01*
X01877023Y00912687D01*
X01881602Y00908108D01*
Y00873487D01*
X01881993Y00871520D01*
X01883107Y00869853D01*
X01891357Y00861603D01*
X01893024Y00860489D01*
X01894990Y00860098D01*
X01918490D01*
X01920457Y00860489D01*
X01922124Y00861603D01*
X01925124Y00864603D01*
X01926238Y00866270D01*
X01926629Y00868237D01*
Y00914737D01*
X01926238Y00916703D01*
X01925124Y00918370D01*
X01911624Y00931870D01*
X01911203Y00932151D01*
X01910845Y00932509D01*
X01910378Y00932703D01*
X01909957Y00932984D01*
X01909460Y00933083D01*
X01908993Y00933277D01*
X01908487D01*
X01907990Y00933375D01*
X01907494Y00933277D01*
X01906988D01*
X01906520Y00933083D01*
X01906024Y00932984D01*
X01905603Y00932703D01*
X01905135Y00932509D01*
X01904778Y00932151D01*
X01904357Y00931870D01*
X01904076Y00931449D01*
X01903718Y00931092D01*
X01903524Y00930624D01*
X01903243Y00930203D01*
X01903144Y00929707D01*
X01902950Y00929239D01*
Y00928733D01*
X01902852Y00928237D01*
X01902950Y00927740D01*
Y00927234D01*
X01903144Y00926767D01*
X01903243Y00926270D01*
X01902201Y00925543D01*
X01887274Y00940470D01*
X01885607Y00941584D01*
X01883640Y00941975D01*
D02*
G37*
G36*
X01213990Y01628375D02*
X01213494Y01628277D01*
X01212988D01*
X01212520Y01628083D01*
X01212024Y01627984D01*
X01211603Y01627703D01*
X01211135Y01627509D01*
X01210778Y01627151D01*
X01210357Y01626870D01*
X01210076Y01626449D01*
X01209718Y01626091D01*
X01209524Y01625624D01*
X01209243Y01625203D01*
X01209144Y01624707D01*
X01208950Y01624239D01*
Y01623733D01*
X01208852Y01623237D01*
Y01602125D01*
X00928990D01*
X00927024Y01601734D01*
X00925357Y01600620D01*
X00900607Y01575870D01*
X00899493Y01574203D01*
X00899102Y01572237D01*
Y01059237D01*
X00899200Y01058740D01*
Y01058234D01*
X00899394Y01057766D01*
X00899493Y01057270D01*
X00899774Y01056849D01*
X00899968Y01056382D01*
X00900326Y01056024D01*
X00900607Y01055603D01*
X00901028Y01055322D01*
X00901385Y01054964D01*
X00901853Y01054770D01*
X00902274Y01054489D01*
X00902770Y01054390D01*
X00903238Y01054197D01*
X00903744D01*
X00904240Y01054098D01*
X00904737Y01054197D01*
X00905243D01*
X00905711Y01054390D01*
X00906207Y01054489D01*
X00906628Y01054770D01*
X00907095Y01054964D01*
X00907453Y01055322D01*
X00907874Y01055603D01*
X00908155Y01056024D01*
X00908513Y01056382D01*
X00908707Y01056849D01*
X00908988Y01057270D01*
X00909087Y01057766D01*
X00909280Y01058234D01*
Y01058740D01*
X00909379Y01059237D01*
Y01570108D01*
X00931119Y01591848D01*
X01208852D01*
Y01570737D01*
X01208950Y01570240D01*
Y01569734D01*
X01209144Y01569267D01*
X01209243Y01568770D01*
X01209524Y01568349D01*
X01209718Y01567882D01*
X01210076Y01567524D01*
X01210357Y01567103D01*
X01210778Y01566822D01*
X01211135Y01566464D01*
X01211603Y01566270D01*
X01212024Y01565989D01*
X01212520Y01565890D01*
X01212988Y01565697D01*
X01213494D01*
X01213990Y01565598D01*
X01214487Y01565697D01*
X01214993D01*
X01215461Y01565890D01*
X01215957Y01565989D01*
X01216378Y01566270D01*
X01216845Y01566464D01*
X01217203Y01566822D01*
X01217624Y01567103D01*
X01217905Y01567524D01*
X01218263Y01567882D01*
X01218457Y01568349D01*
X01218738Y01568770D01*
X01218837Y01569267D01*
X01219030Y01569734D01*
Y01570240D01*
X01219129Y01570737D01*
Y01591848D01*
X01254428D01*
X01254954Y01590578D01*
X01254218Y01589841D01*
X01253450Y01587989D01*
Y01585984D01*
X01254218Y01584132D01*
X01254606Y01583744D01*
Y01518730D01*
X01254218Y01518342D01*
X01253450Y01516489D01*
Y01514484D01*
X01254218Y01512632D01*
X01254606Y01512244D01*
Y01490596D01*
X01232631Y01468621D01*
X00984740D01*
X00983254Y01468326D01*
X00981994Y01467484D01*
X00962994Y01448483D01*
X00962151Y01447223D01*
X00962149Y01447211D01*
X00960879Y01447336D01*
Y01508858D01*
X00970869Y01518848D01*
X01215240D01*
X01217207Y01519239D01*
X01218874Y01520353D01*
X01230624Y01532103D01*
X01230905Y01532524D01*
X01231263Y01532882D01*
X01231457Y01533349D01*
X01231738Y01533770D01*
X01231837Y01534266D01*
X01232030Y01534734D01*
Y01535240D01*
X01232129Y01535737D01*
X01232030Y01536233D01*
Y01536739D01*
X01231837Y01537207D01*
X01231738Y01537703D01*
X01231457Y01538124D01*
X01231263Y01538591D01*
X01230905Y01538949D01*
X01230624Y01539370D01*
X01230203Y01539651D01*
X01229845Y01540009D01*
X01229378Y01540203D01*
X01228957Y01540484D01*
X01228461Y01540583D01*
X01227993Y01540777D01*
X01227487D01*
X01226990Y01540875D01*
X01226494Y01540777D01*
X01225988D01*
X01225520Y01540583D01*
X01225024Y01540484D01*
X01224603Y01540203D01*
X01224136Y01540009D01*
X01223778Y01539651D01*
X01223357Y01539370D01*
X01213112Y01529125D01*
X01204312D01*
Y01570737D01*
X01204213Y01571233D01*
Y01571739D01*
X01204019Y01572207D01*
X01203921Y01572703D01*
X01203639Y01573124D01*
X01203446Y01573591D01*
X01203088Y01573949D01*
X01202806Y01574370D01*
X01202386Y01574651D01*
X01202028Y01575009D01*
X01201560Y01575203D01*
X01201139Y01575484D01*
X01200643Y01575583D01*
X01200175Y01575777D01*
X01199669D01*
X01199173Y01575875D01*
X01198677Y01575777D01*
X01198170D01*
X01197703Y01575583D01*
X01197206Y01575484D01*
X01196786Y01575203D01*
X01196318Y01575009D01*
X01195960Y01574651D01*
X01195539Y01574370D01*
X01195258Y01573949D01*
X01194900Y01573591D01*
X01194706Y01573124D01*
X01194425Y01572703D01*
X01194327Y01572207D01*
X01194133Y01571739D01*
Y01571233D01*
X01194034Y01570737D01*
Y01529125D01*
X00968740D01*
X00966774Y01528734D01*
X00965107Y01527620D01*
X00952107Y01514620D01*
X00950993Y01512953D01*
X00950602Y01510986D01*
Y00924737D01*
Y00846737D01*
X00950700Y00846240D01*
Y00845734D01*
X00950894Y00845266D01*
X00950993Y00844770D01*
X00951274Y00844349D01*
X00951468Y00843882D01*
X00951826Y00843524D01*
X00952107Y00843103D01*
X00952527Y00842822D01*
X00952885Y00842464D01*
X00953353Y00842270D01*
X00953774Y00841989D01*
X00954270Y00841890D01*
X00954738Y00841697D01*
X00955244D01*
X00955740Y00841598D01*
X01113740D01*
X01115707Y00841989D01*
X01117374Y00843103D01*
X01139874Y00865603D01*
X01140155Y00866024D01*
X01140513Y00866382D01*
X01140707Y00866849D01*
X01140988Y00867270D01*
X01141087Y00867766D01*
X01141280Y00868234D01*
Y00868740D01*
X01141379Y00869237D01*
X01141280Y00869733D01*
Y00870239D01*
X01141087Y00870707D01*
X01140988Y00871203D01*
X01140707Y00871624D01*
X01140513Y00872092D01*
X01140155Y00872449D01*
X01139874Y00872870D01*
X01139453Y00873151D01*
X01139095Y00873509D01*
X01138628Y00873703D01*
X01138207Y00873984D01*
X01137711Y00874083D01*
X01137243Y00874277D01*
X01136737D01*
X01136240Y00874375D01*
X01135744Y00874277D01*
X01135238D01*
X01134770Y00874083D01*
X01134274Y00873984D01*
X01133853Y00873703D01*
X01133385Y00873509D01*
X01133028Y00873151D01*
X01132607Y00872870D01*
X01111612Y00851875D01*
X00960879D01*
Y00907174D01*
X00962149Y00907700D01*
X00962886Y00906964D01*
X00964738Y00906197D01*
X00966743D01*
X00968595Y00906964D01*
X00970013Y00908382D01*
X00970780Y00910234D01*
Y00912239D01*
X00970013Y00914091D01*
X00969625Y00914480D01*
Y01444128D01*
X00986349Y01460852D01*
X01234240D01*
X01235727Y01461148D01*
X01236987Y01461990D01*
X01258740Y01483743D01*
X01281450Y01461033D01*
Y01460484D01*
X01282218Y01458632D01*
X01283636Y01457214D01*
X01285488Y01456447D01*
X01287493D01*
X01289345Y01457214D01*
X01290763Y01458632D01*
X01291530Y01460484D01*
Y01462489D01*
X01290763Y01464341D01*
X01289345Y01465759D01*
X01287493Y01466527D01*
X01286944D01*
X01262375Y01491096D01*
Y01512244D01*
X01262763Y01512632D01*
X01263530Y01514484D01*
Y01516489D01*
X01262763Y01518342D01*
X01262375Y01518730D01*
Y01583744D01*
X01262763Y01584132D01*
X01263530Y01585984D01*
Y01587989D01*
X01262763Y01589841D01*
X01262027Y01590578D01*
X01262553Y01591848D01*
X01319612D01*
X01323852Y01587608D01*
Y01526237D01*
Y01483987D01*
X01324243Y01482020D01*
X01325357Y01480353D01*
X01330607Y01475103D01*
X01332274Y01473989D01*
X01334241Y01473598D01*
X01441102D01*
Y01445987D01*
X01441200Y01445490D01*
Y01444984D01*
X01441394Y01444516D01*
X01441493Y01444020D01*
X01441774Y01443599D01*
X01441968Y01443132D01*
X01442326Y01442774D01*
X01442607Y01442353D01*
X01443028Y01442072D01*
X01443385Y01441714D01*
X01443853Y01441520D01*
X01444274Y01441239D01*
X01444770Y01441140D01*
X01445238Y01440947D01*
X01445744D01*
X01446240Y01440848D01*
X01446737Y01440947D01*
X01447243D01*
X01447711Y01441140D01*
X01448207Y01441239D01*
X01448628Y01441520D01*
X01449095Y01441714D01*
X01449453Y01442072D01*
X01449874Y01442353D01*
X01450155Y01442774D01*
X01450513Y01443132D01*
X01450707Y01443599D01*
X01450988Y01444020D01*
X01451087Y01444516D01*
X01451280Y01444984D01*
Y01445490D01*
X01451379Y01445987D01*
Y01473598D01*
X01591852D01*
Y01453737D01*
X01592243Y01451770D01*
X01593357Y01450103D01*
X01598107Y01445353D01*
X01599774Y01444239D01*
X01601740Y01443848D01*
X01856112D01*
X01865102Y01434858D01*
Y01300487D01*
X01865201Y01299990D01*
Y01299484D01*
X01865394Y01299017D01*
X01865493Y01298520D01*
X01865774Y01298099D01*
X01865968Y01297632D01*
X01866326Y01297274D01*
X01866607Y01296853D01*
X01867028Y01296572D01*
X01867386Y01296214D01*
X01867853Y01296020D01*
X01868274Y01295739D01*
X01868770Y01295640D01*
X01869238Y01295447D01*
X01869744D01*
X01870240Y01295348D01*
X01953612D01*
X01967602Y01281358D01*
Y00966115D01*
X01957612Y00956125D01*
X01620240D01*
X01618274Y00955734D01*
X01616607Y00954620D01*
X01609857Y00947870D01*
X01608743Y00946203D01*
X01608352Y00944237D01*
Y00861487D01*
X01608743Y00859520D01*
X01609857Y00857853D01*
X01622407Y00845303D01*
X01624074Y00844189D01*
X01626040Y00843798D01*
X01660990D01*
X01661487Y00843897D01*
X01661993D01*
X01662461Y00844090D01*
X01662957Y00844189D01*
X01663378Y00844470D01*
X01663845Y00844664D01*
X01664203Y00845022D01*
X01664624Y00845303D01*
X01673669Y00854348D01*
X01840362D01*
X01865607Y00829103D01*
X01866028Y00828822D01*
X01866385Y00828464D01*
X01866853Y00828270D01*
X01867274Y00827989D01*
X01867770Y00827890D01*
X01868238Y00827697D01*
X01868744D01*
X01869240Y00827598D01*
X01869737Y00827697D01*
X01870243D01*
X01870711Y00827890D01*
X01871207Y00827989D01*
X01871628Y00828270D01*
X01872095Y00828464D01*
X01872453Y00828822D01*
X01872874Y00829103D01*
X01873155Y00829524D01*
X01873513Y00829882D01*
X01873707Y00830349D01*
X01873988Y00830770D01*
X01874087Y00831266D01*
X01874280Y00831734D01*
Y00832240D01*
X01874379Y00832737D01*
X01874280Y00833233D01*
Y00833739D01*
X01874087Y00834207D01*
X01873988Y00834703D01*
X01873707Y00835124D01*
X01873513Y00835592D01*
X01873155Y00835949D01*
X01872874Y00836370D01*
X01846124Y00863120D01*
X01844457Y00864234D01*
X01842490Y00864625D01*
X01671540D01*
X01669574Y00864234D01*
X01667907Y00863120D01*
X01658862Y00854075D01*
X01628169D01*
X01618629Y00863615D01*
Y00942108D01*
X01622369Y00945848D01*
X01959740D01*
X01961707Y00946239D01*
X01963374Y00947353D01*
X01976374Y00960353D01*
X01977488Y00962020D01*
X01977879Y00963987D01*
Y01283487D01*
X01977488Y01285453D01*
X01976374Y01287120D01*
X01959374Y01304120D01*
X01957707Y01305234D01*
X01955740Y01305625D01*
X01875379D01*
Y01436987D01*
X01874988Y01438953D01*
X01873874Y01440620D01*
X01861874Y01452620D01*
X01860207Y01453734D01*
X01858241Y01454125D01*
X01603869D01*
X01602129Y01455865D01*
Y01500737D01*
X01602030Y01501233D01*
Y01501739D01*
X01601837Y01502207D01*
X01601738Y01502703D01*
X01601457Y01503124D01*
X01601263Y01503592D01*
X01600905Y01503949D01*
X01600624Y01504370D01*
X01600203Y01504651D01*
X01599845Y01505009D01*
X01599378Y01505203D01*
X01598957Y01505484D01*
X01598461Y01505583D01*
X01597993Y01505777D01*
X01597487D01*
X01596990Y01505875D01*
X01596494Y01505777D01*
X01595988D01*
X01595520Y01505583D01*
X01595024Y01505484D01*
X01594603Y01505203D01*
X01594135Y01505009D01*
X01593778Y01504651D01*
X01593357Y01504370D01*
X01593076Y01503949D01*
X01592718Y01503592D01*
X01592524Y01503124D01*
X01592243Y01502703D01*
X01592144Y01502207D01*
X01591950Y01501739D01*
Y01501233D01*
X01591852Y01500737D01*
Y01483875D01*
X01515879D01*
Y01524237D01*
X01515780Y01524733D01*
Y01525239D01*
X01515587Y01525707D01*
X01515488Y01526203D01*
X01515207Y01526624D01*
X01515013Y01527092D01*
X01514655Y01527449D01*
X01514374Y01527870D01*
X01513953Y01528151D01*
X01513595Y01528509D01*
X01513128Y01528703D01*
X01512707Y01528984D01*
X01512211Y01529083D01*
X01511743Y01529277D01*
X01511237D01*
X01510741Y01529375D01*
X01510244Y01529277D01*
X01509738D01*
X01509270Y01529083D01*
X01508774Y01528984D01*
X01508353Y01528703D01*
X01507885Y01528509D01*
X01507528Y01528151D01*
X01507380Y01528053D01*
X01506421Y01528382D01*
X01506110Y01528615D01*
Y01543228D01*
X01506263Y01543382D01*
X01507030Y01545234D01*
Y01547239D01*
X01506263Y01549091D01*
X01504845Y01550509D01*
X01502993Y01551277D01*
X01500988D01*
X01499135Y01550509D01*
X01497718Y01549091D01*
X01496950Y01547239D01*
Y01545234D01*
X01497718Y01543382D01*
X01497871Y01543228D01*
Y01494443D01*
X01496534Y01493106D01*
X01481249D01*
X01481095Y01493259D01*
X01479243Y01494027D01*
X01477238D01*
X01475385Y01493259D01*
X01473968Y01491841D01*
X01473200Y01489989D01*
Y01487984D01*
X01473968Y01486132D01*
X01474954Y01485145D01*
X01474428Y01483875D01*
X01336369D01*
X01334129Y01486115D01*
Y01526237D01*
Y01589737D01*
X01333738Y01591703D01*
X01332624Y01593370D01*
X01325374Y01600620D01*
X01323707Y01601734D01*
X01321740Y01602125D01*
X01219129D01*
Y01623237D01*
X01219030Y01623733D01*
Y01624239D01*
X01218837Y01624707D01*
X01218738Y01625203D01*
X01218457Y01625624D01*
X01218263Y01626091D01*
X01217905Y01626449D01*
X01217624Y01626870D01*
X01217203Y01627151D01*
X01216845Y01627509D01*
X01216378Y01627703D01*
X01215957Y01627984D01*
X01215461Y01628083D01*
X01214993Y01628277D01*
X01214487D01*
X01213990Y01628375D01*
D02*
G37*
G36*
X01563190Y00953545D02*
X01207790D01*
X01206620Y00953313D01*
X01205628Y00952650D01*
X01204965Y00951657D01*
X01204732Y00950487D01*
Y00820487D01*
X01204965Y00819316D01*
X01205628Y00818324D01*
X01206620Y00817661D01*
X01207790Y00817428D01*
X01563190D01*
X01564361Y00817661D01*
X01565353Y00818324D01*
X01566016Y00819316D01*
X01566249Y00820487D01*
Y00950487D01*
X01566016Y00951657D01*
X01565353Y00952650D01*
X01564361Y00953313D01*
X01563190Y00953545D01*
D02*
G37*
G36*
X01731241Y00848125D02*
X01683490D01*
X01682994Y00848027D01*
X01682488D01*
X01682020Y00847833D01*
X01681524Y00847734D01*
X01681103Y00847453D01*
X01680636Y00847259D01*
X01680278Y00846901D01*
X01679857Y00846620D01*
X01679576Y00846199D01*
X01679218Y00845842D01*
X01679024Y00845374D01*
X01678743Y00844953D01*
X01678644Y00844457D01*
X01678450Y00843989D01*
Y00843483D01*
X01678352Y00842987D01*
X01678450Y00842490D01*
Y00841984D01*
X01678644Y00841516D01*
X01678743Y00841020D01*
X01679024Y00840599D01*
X01679218Y00840132D01*
X01679576Y00839774D01*
X01679857Y00839353D01*
X01680278Y00839072D01*
X01680636Y00838714D01*
X01681103Y00838520D01*
X01681524Y00838239D01*
X01682020Y00838140D01*
X01682488Y00837947D01*
X01682994D01*
X01683490Y00837848D01*
X01729112D01*
X01752357Y00814603D01*
X01754024Y00813489D01*
X01755990Y00813098D01*
X01769990D01*
X01770487Y00813197D01*
X01770993D01*
X01771461Y00813390D01*
X01771957Y00813489D01*
X01772378Y00813770D01*
X01772845Y00813964D01*
X01773203Y00814322D01*
X01773624Y00814603D01*
X01773905Y00815024D01*
X01774263Y00815382D01*
X01774457Y00815849D01*
X01774738Y00816270D01*
X01774837Y00816767D01*
X01775030Y00817234D01*
Y00817740D01*
X01775129Y00818237D01*
X01775030Y00818733D01*
Y00819239D01*
X01774837Y00819707D01*
X01774738Y00820203D01*
X01774457Y00820624D01*
X01774263Y00821092D01*
X01773905Y00821450D01*
X01773624Y00821870D01*
X01773203Y00822151D01*
X01772845Y00822509D01*
X01772378Y00822703D01*
X01771957Y00822984D01*
X01771461Y00823083D01*
X01770993Y00823277D01*
X01770487D01*
X01769990Y00823375D01*
X01758119D01*
X01734874Y00846620D01*
X01733207Y00847734D01*
X01731241Y00848125D01*
D02*
G37*
%LPD*%
G36*
X01500491Y01255914D02*
X01755415Y01255914D01*
X01756046Y01255883D01*
X01757355Y01255623D01*
X01758518Y01255141D01*
X01759565Y01254441D01*
X01760455Y01253551D01*
X01761155Y01252504D01*
X01761637Y01251341D01*
X01761897Y01250032D01*
X01761928Y01249401D01*
Y01241987D01*
X01761929Y01241982D01*
X01761928Y01241978D01*
X01761929Y01240884D01*
X01762042Y01240320D01*
X01762163Y01239715D01*
X01763001Y01237694D01*
X01763344Y01237182D01*
X01763665Y01236702D01*
X01764352Y01236015D01*
X01764353Y01234745D01*
X01764089Y01234482D01*
X01763426Y01233489D01*
X01762664Y01231652D01*
X01762432Y01230481D01*
Y01228492D01*
X01762664Y01227321D01*
X01763426Y01225484D01*
X01764089Y01224492D01*
X01765344Y01223237D01*
X01764089Y01221982D01*
X01763426Y01220989D01*
X01762664Y01219152D01*
X01762432Y01217981D01*
Y01215992D01*
X01762664Y01214821D01*
X01763426Y01212984D01*
X01764089Y01211992D01*
X01765344Y01210737D01*
X01764089Y01209482D01*
X01763426Y01208489D01*
X01762664Y01206652D01*
X01762432Y01205481D01*
Y01203492D01*
X01762664Y01202321D01*
X01763426Y01200484D01*
X01764089Y01199492D01*
X01765344Y01198237D01*
X01764089Y01196982D01*
X01763426Y01195989D01*
X01762664Y01194152D01*
X01762432Y01192981D01*
Y01190992D01*
X01762664Y01189821D01*
X01763426Y01187984D01*
X01764089Y01186992D01*
X01765344Y01185737D01*
X01764089Y01184482D01*
X01763426Y01183489D01*
X01762664Y01181652D01*
X01762432Y01180481D01*
Y01178492D01*
X01762664Y01177321D01*
X01763426Y01175484D01*
X01764089Y01174492D01*
X01765344Y01173237D01*
X01764089Y01171982D01*
X01763426Y01170989D01*
X01762664Y01169152D01*
X01762432Y01167981D01*
Y01165992D01*
X01762664Y01164821D01*
X01763426Y01162984D01*
X01764089Y01161992D01*
X01765344Y01160737D01*
X01764089Y01159482D01*
X01763426Y01158489D01*
X01762664Y01156652D01*
X01762432Y01155481D01*
Y01153492D01*
X01762664Y01152321D01*
X01763426Y01150484D01*
X01764089Y01149492D01*
X01765344Y01148237D01*
X01764089Y01146982D01*
X01763426Y01145989D01*
X01762664Y01144152D01*
X01762432Y01142981D01*
Y01140992D01*
X01762664Y01139821D01*
X01763426Y01137984D01*
X01764089Y01136992D01*
X01765344Y01135737D01*
X01764089Y01134482D01*
X01763426Y01133489D01*
X01762664Y01131652D01*
X01762432Y01130481D01*
Y01128492D01*
X01762664Y01127321D01*
X01763426Y01125484D01*
X01764089Y01124492D01*
X01765344Y01123237D01*
X01764089Y01121982D01*
X01763426Y01120989D01*
X01762664Y01119152D01*
X01762432Y01117981D01*
Y01115992D01*
X01762664Y01114821D01*
X01763426Y01112984D01*
X01764089Y01111992D01*
X01765344Y01110737D01*
X01764089Y01109482D01*
X01763426Y01108489D01*
X01762664Y01106652D01*
X01762432Y01105481D01*
Y01103492D01*
X01762664Y01102321D01*
X01763426Y01100484D01*
X01764089Y01099492D01*
X01765344Y01098237D01*
X01764089Y01096982D01*
X01763426Y01095989D01*
X01762664Y01094152D01*
X01762432Y01092981D01*
Y01090992D01*
X01762664Y01089821D01*
X01763426Y01087984D01*
X01764089Y01086992D01*
X01765344Y01085737D01*
X01764089Y01084482D01*
X01763426Y01083489D01*
X01762664Y01081652D01*
X01762432Y01080481D01*
Y01078492D01*
X01762664Y01077321D01*
X01763426Y01075484D01*
X01764089Y01074492D01*
X01765344Y01073237D01*
X01764089Y01071982D01*
X01763426Y01070989D01*
X01762664Y01069152D01*
X01762432Y01067981D01*
Y01065992D01*
X01762664Y01064821D01*
X01763426Y01062984D01*
X01764089Y01061991D01*
X01765344Y01060737D01*
X01764089Y01059482D01*
X01763426Y01058489D01*
X01762664Y01056652D01*
X01762432Y01055481D01*
Y01053492D01*
X01762664Y01052321D01*
X01763426Y01050484D01*
X01764089Y01049491D01*
X01765344Y01048237D01*
X01764089Y01046982D01*
X01763426Y01045989D01*
X01762664Y01044152D01*
X01762432Y01042981D01*
Y01040992D01*
X01762664Y01039821D01*
X01763426Y01037984D01*
X01764089Y01036991D01*
X01765344Y01035737D01*
X01764089Y01034482D01*
X01763426Y01033489D01*
X01762664Y01031652D01*
X01762432Y01030481D01*
Y01028492D01*
X01762664Y01027321D01*
X01763426Y01025484D01*
X01764089Y01024491D01*
X01765344Y01023237D01*
X01764089Y01021982D01*
X01763426Y01020989D01*
X01762664Y01019152D01*
X01762432Y01017981D01*
Y01015992D01*
X01762664Y01014821D01*
X01763426Y01012984D01*
X01764089Y01011991D01*
X01765344Y01010737D01*
X01764089Y01009482D01*
X01763426Y01008489D01*
X01762664Y01006652D01*
X01762432Y01005481D01*
Y01003492D01*
X01762664Y01002321D01*
X01763426Y01000484D01*
X01764089Y00999491D01*
X01764353Y00999228D01*
X01764352Y00997958D01*
X01763671Y00997279D01*
X01763339Y00996783D01*
X01763007Y00996289D01*
X01762167Y00994272D01*
X01762045Y00993671D01*
X01761931Y00993105D01*
X01761928Y00992012D01*
X01761929Y00992008D01*
X01761928Y00992003D01*
X01761929Y00992000D01*
X01761928Y00991997D01*
Y00979562D01*
X01761897Y00978931D01*
X01761637Y00977622D01*
X01761155Y00976459D01*
X01760455Y00975412D01*
X01759565Y00974522D01*
X01758518Y00973822D01*
X01757355Y00973341D01*
X01756046Y00973080D01*
X01755415Y00973049D01*
X01500561Y00973049D01*
X01499932Y00973080D01*
X01498624Y00973341D01*
X01497461Y00973823D01*
X01496414Y00974523D01*
X01495525Y00975413D01*
X01494826Y00976460D01*
X01494344Y00977623D01*
X01494084Y00978931D01*
X01494053Y00979562D01*
Y01073891D01*
X01495323Y01074276D01*
X01497005Y01071759D01*
X01499448Y01069316D01*
X01502321Y01067396D01*
X01505513Y01066074D01*
X01508902Y01065400D01*
X01512357D01*
X01515746Y01066074D01*
X01518938Y01067396D01*
X01521811Y01069316D01*
X01524254Y01071759D01*
X01526173Y01074632D01*
X01527495Y01077824D01*
X01528170Y01081212D01*
Y01084667D01*
X01527495Y01088056D01*
X01526173Y01091248D01*
X01524254Y01094121D01*
X01521811Y01096564D01*
X01518938Y01098484D01*
X01515746Y01099806D01*
X01512357Y01100480D01*
X01508902D01*
X01505513Y01099806D01*
X01502321Y01098484D01*
X01499448Y01096564D01*
X01497005Y01094121D01*
X01495323Y01091603D01*
X01494053Y01091989D01*
Y01138785D01*
X01495323Y01139170D01*
X01497005Y01136652D01*
X01499448Y01134209D01*
X01502321Y01132290D01*
X01505513Y01130967D01*
X01508902Y01130293D01*
X01512357D01*
X01515746Y01130967D01*
X01518938Y01132290D01*
X01521811Y01134209D01*
X01524254Y01136652D01*
X01526173Y01139525D01*
X01527495Y01142717D01*
X01527506Y01142771D01*
X01666164D01*
X01667045Y01142947D01*
X01667243D01*
X01667426Y01143022D01*
X01668130Y01143163D01*
X01668728Y01143562D01*
X01669095Y01143714D01*
X01669377Y01143995D01*
X01669798Y01144276D01*
X01669874Y01144353D01*
X01670155Y01144774D01*
X01670513Y01145132D01*
X01670707Y01145599D01*
X01670988Y01146020D01*
X01671087Y01146516D01*
X01671280Y01146984D01*
Y01147490D01*
X01671379Y01147987D01*
X01671280Y01148483D01*
Y01148989D01*
X01671087Y01149457D01*
X01670988Y01149953D01*
X01670707Y01150374D01*
X01670513Y01150842D01*
X01670155Y01151199D01*
X01669874Y01151620D01*
X01669453Y01151901D01*
X01669095Y01152259D01*
X01668628Y01152453D01*
X01668207Y01152734D01*
X01667711Y01152833D01*
X01667243Y01153027D01*
X01666737D01*
X01666240Y01153125D01*
X01665855Y01153049D01*
X01527454D01*
X01526173Y01156142D01*
X01524254Y01159015D01*
X01521811Y01161458D01*
X01518938Y01163377D01*
X01515746Y01164699D01*
X01512357Y01165373D01*
X01508902D01*
X01505513Y01164699D01*
X01502321Y01163377D01*
X01499448Y01161458D01*
X01497005Y01159015D01*
X01495323Y01156497D01*
X01494053Y01156882D01*
Y01249412D01*
X01494084Y01250038D01*
X01494341Y01251339D01*
X01494816Y01252496D01*
X01495507Y01253539D01*
X01496387Y01254428D01*
X01497423Y01255129D01*
X01498575Y01255617D01*
X01499873Y01255888D01*
X01500452Y01255922D01*
X01500491Y01255914D01*
D02*
G37*
%LPC*%
G36*
X01715378Y01251027D02*
X01712603D01*
X01709922Y01250308D01*
X01707519Y01248921D01*
X01705556Y01246958D01*
X01704169Y01244555D01*
X01703450Y01241874D01*
Y01239099D01*
X01704169Y01236418D01*
X01705556Y01234015D01*
X01707519Y01232053D01*
X01709922Y01230665D01*
X01712603Y01229947D01*
X01715378D01*
X01718059Y01230665D01*
X01720462Y01232053D01*
X01722424Y01234015D01*
X01723812Y01236418D01*
X01724530Y01239099D01*
Y01241874D01*
X01723812Y01244555D01*
X01722424Y01246958D01*
X01720462Y01248921D01*
X01718059Y01250308D01*
X01715378Y01251027D01*
D02*
G37*
G36*
X01699130D02*
X01678050D01*
Y01229947D01*
X01699130D01*
Y01251027D01*
D02*
G37*
G36*
X01740490Y01226625D02*
X01693361D01*
X01691395Y01226234D01*
X01689727Y01225120D01*
X01680494Y01215887D01*
X01677324Y01217199D01*
X01673935Y01217873D01*
X01670480D01*
X01667092Y01217199D01*
X01663900Y01215877D01*
X01661027Y01213958D01*
X01658584Y01211515D01*
X01656664Y01208642D01*
X01655342Y01205450D01*
X01654668Y01202061D01*
Y01198606D01*
X01655342Y01195217D01*
X01656664Y01192025D01*
X01658584Y01189152D01*
X01661027Y01186709D01*
X01663900Y01184790D01*
X01667092Y01183467D01*
X01670480Y01182793D01*
X01673935D01*
X01677324Y01183467D01*
X01680516Y01184790D01*
X01683389Y01186709D01*
X01685832Y01189152D01*
X01687752Y01192025D01*
X01689074Y01195217D01*
X01689748Y01198606D01*
Y01202061D01*
X01689074Y01205450D01*
X01687761Y01208619D01*
X01695490Y01216348D01*
X01735450D01*
Y01205447D01*
X01756530D01*
Y01226527D01*
X01740987D01*
X01740490Y01226625D01*
D02*
G37*
G36*
X01550500Y01217873D02*
X01547045D01*
X01543657Y01217199D01*
X01540465Y01215877D01*
X01537592Y01213958D01*
X01535149Y01211515D01*
X01533229Y01208642D01*
X01531907Y01205450D01*
X01531233Y01202061D01*
Y01198606D01*
X01531907Y01195217D01*
X01533229Y01192025D01*
X01535149Y01189152D01*
X01537592Y01186709D01*
X01540465Y01184790D01*
X01543657Y01183467D01*
X01547045Y01182793D01*
X01550500D01*
X01553889Y01183467D01*
X01557081Y01184790D01*
X01559954Y01186709D01*
X01562397Y01189152D01*
X01564317Y01192025D01*
X01565639Y01195217D01*
X01566313Y01198606D01*
Y01202061D01*
X01565639Y01205450D01*
X01564317Y01208642D01*
X01562397Y01211515D01*
X01559954Y01213958D01*
X01557081Y01215877D01*
X01553889Y01217199D01*
X01550500Y01217873D01*
D02*
G37*
G36*
X01630490Y01250625D02*
X01616990D01*
X01616494Y01250527D01*
X01615988D01*
X01615520Y01250333D01*
X01615024Y01250234D01*
X01614603Y01249953D01*
X01614135Y01249759D01*
X01613778Y01249401D01*
X01613357Y01249120D01*
X01613076Y01248699D01*
X01612718Y01248342D01*
X01612524Y01247874D01*
X01612243Y01247453D01*
X01612144Y01246957D01*
X01611950Y01246489D01*
Y01245983D01*
X01611852Y01245487D01*
X01611950Y01244990D01*
Y01244484D01*
X01612144Y01244016D01*
X01612243Y01243520D01*
X01612524Y01243099D01*
X01612718Y01242632D01*
X01613076Y01242274D01*
X01613357Y01241853D01*
X01613778Y01241572D01*
X01614135Y01241214D01*
X01614603Y01241020D01*
X01615024Y01240739D01*
X01615520Y01240640D01*
X01615988Y01240447D01*
X01616494D01*
X01616990Y01240348D01*
X01628362D01*
X01636352Y01232358D01*
Y01183237D01*
X01636743Y01181270D01*
X01637857Y01179603D01*
X01649857Y01167603D01*
X01650916Y01166895D01*
X01650939Y01166771D01*
X01650531Y01165625D01*
X01628972D01*
X01615629Y01178968D01*
Y01203530D01*
X01618799Y01204843D01*
X01621671Y01206762D01*
X01624115Y01209206D01*
X01626034Y01212078D01*
X01627356Y01215270D01*
X01628030Y01218659D01*
Y01222114D01*
X01627356Y01225503D01*
X01626034Y01228695D01*
X01624115Y01231568D01*
X01621671Y01234011D01*
X01618799Y01235930D01*
X01615607Y01237253D01*
X01612218Y01237927D01*
X01608763D01*
X01605374Y01237253D01*
X01602182Y01235930D01*
X01599309Y01234011D01*
X01596866Y01231568D01*
X01594947Y01228695D01*
X01593625Y01225503D01*
X01592950Y01222114D01*
Y01218659D01*
X01593625Y01215270D01*
X01594947Y01212078D01*
X01596866Y01209206D01*
X01599309Y01206762D01*
X01602182Y01204843D01*
X01605352Y01203530D01*
Y01176839D01*
X01605743Y01174873D01*
X01606857Y01173206D01*
X01623210Y01156853D01*
X01624877Y01155739D01*
X01626843Y01155348D01*
X01686490D01*
X01688457Y01155739D01*
X01690124Y01156853D01*
X01707619Y01174348D01*
X01729562D01*
X01735450Y01168459D01*
Y01154647D01*
X01756530D01*
Y01175727D01*
X01742718D01*
X01739571Y01178873D01*
X01740057Y01180047D01*
X01756530D01*
Y01201127D01*
X01740939D01*
X01740375Y01201239D01*
X01704604D01*
X01702637Y01200848D01*
X01700970Y01199734D01*
X01677612Y01176375D01*
X01655619D01*
X01646629Y01185365D01*
Y01234487D01*
X01646238Y01236453D01*
X01645124Y01238120D01*
X01634124Y01249120D01*
X01632457Y01250234D01*
X01630490Y01250625D01*
D02*
G37*
G36*
X01712079Y01165373D02*
X01708624D01*
X01705235Y01164699D01*
X01702043Y01163377D01*
X01699170Y01161458D01*
X01696727Y01159015D01*
X01694808Y01156142D01*
X01693485Y01152950D01*
X01692811Y01149561D01*
Y01146106D01*
X01693485Y01142717D01*
X01694798Y01139548D01*
X01669357Y01114106D01*
X01668243Y01112439D01*
X01667852Y01110472D01*
Y01069987D01*
X01668243Y01068020D01*
X01669357Y01066353D01*
X01680263Y01055446D01*
X01681931Y01054333D01*
X01683897Y01053941D01*
X01737561D01*
X01737594Y01053948D01*
X01740490D01*
X01740987Y01054047D01*
X01756530D01*
Y01075127D01*
X01735450D01*
Y01064219D01*
X01712651D01*
X01712526Y01065489D01*
X01715468Y01066074D01*
X01718660Y01067396D01*
X01721532Y01069316D01*
X01723976Y01071759D01*
X01725895Y01074632D01*
X01727217Y01077824D01*
X01727891Y01081212D01*
Y01084667D01*
X01727217Y01088056D01*
X01725895Y01091248D01*
X01723976Y01094121D01*
X01721532Y01096564D01*
X01718660Y01098484D01*
X01715468Y01099806D01*
X01712079Y01100480D01*
X01708624D01*
X01705235Y01099806D01*
X01702043Y01098484D01*
X01699170Y01096564D01*
X01696727Y01094121D01*
X01694808Y01091248D01*
X01693485Y01088056D01*
X01692811Y01084667D01*
Y01081212D01*
X01693485Y01077824D01*
X01694808Y01074632D01*
X01696727Y01071759D01*
X01699170Y01069316D01*
X01702043Y01067396D01*
X01705235Y01066074D01*
X01708177Y01065489D01*
X01708052Y01064219D01*
X01686026D01*
X01678129Y01072115D01*
Y01108344D01*
X01702066Y01132280D01*
X01705235Y01130967D01*
X01708624Y01130293D01*
X01712079D01*
X01715468Y01130967D01*
X01718660Y01132290D01*
X01721532Y01134209D01*
X01723976Y01136652D01*
X01725895Y01139525D01*
X01727217Y01142717D01*
X01727891Y01146106D01*
Y01149561D01*
X01727217Y01152950D01*
X01725895Y01156142D01*
X01723976Y01159015D01*
X01721532Y01161458D01*
X01718660Y01163377D01*
X01715468Y01164699D01*
X01712079Y01165373D01*
D02*
G37*
G36*
X01621030Y01138627D02*
X01599950D01*
Y01117547D01*
X01621030D01*
Y01138627D01*
D02*
G37*
G36*
X01756530Y01150327D02*
X01735450D01*
Y01136514D01*
X01714062Y01115125D01*
X01692740D01*
X01690774Y01114734D01*
X01689107Y01113620D01*
X01681755Y01106269D01*
X01680641Y01104602D01*
X01680250Y01102635D01*
Y01089221D01*
X01680349Y01088724D01*
Y01088218D01*
X01680543Y01087751D01*
X01680641Y01087254D01*
X01680923Y01086833D01*
X01681116Y01086366D01*
X01681474Y01086008D01*
X01681755Y01085587D01*
X01682176Y01085306D01*
X01682534Y01084948D01*
X01683002Y01084754D01*
X01683422Y01084473D01*
X01683919Y01084374D01*
X01684386Y01084181D01*
X01684892D01*
X01685389Y01084082D01*
X01685885Y01084181D01*
X01686391D01*
X01686859Y01084374D01*
X01687355Y01084473D01*
X01687776Y01084754D01*
X01688244Y01084948D01*
X01688602Y01085306D01*
X01689023Y01085587D01*
X01689304Y01086008D01*
X01689662Y01086366D01*
X01689855Y01086833D01*
X01690136Y01087254D01*
X01690235Y01087751D01*
X01690429Y01088218D01*
Y01088724D01*
X01690528Y01089221D01*
Y01100507D01*
X01694869Y01104848D01*
X01716190D01*
X01718157Y01105239D01*
X01719824Y01106353D01*
X01734277Y01120806D01*
X01735450Y01120320D01*
Y01103847D01*
X01756530D01*
Y01124927D01*
X01740057D01*
X01739571Y01126100D01*
X01742718Y01129247D01*
X01756530D01*
Y01150327D01*
D02*
G37*
G36*
X01611878Y01113227D02*
X01609103D01*
X01606422Y01112508D01*
X01604019Y01111121D01*
X01602056Y01109158D01*
X01600669Y01106755D01*
X01599950Y01104074D01*
Y01101299D01*
X01600669Y01098618D01*
X01602056Y01096215D01*
X01604019Y01094252D01*
X01606422Y01092865D01*
X01609103Y01092147D01*
X01611878D01*
X01614559Y01092865D01*
X01616962Y01094252D01*
X01618925Y01096215D01*
X01620312Y01098618D01*
X01621030Y01101299D01*
Y01104074D01*
X01620312Y01106755D01*
X01618925Y01109158D01*
X01616962Y01111121D01*
X01614559Y01112508D01*
X01611878Y01113227D01*
D02*
G37*
G36*
X01756530Y01100527D02*
X01735450D01*
Y01079447D01*
X01756530D01*
Y01100527D01*
D02*
G37*
G36*
Y01049727D02*
X01735450D01*
Y01028647D01*
X01756530D01*
Y01049727D01*
D02*
G37*
G36*
X01673935Y01047980D02*
X01670480D01*
X01667092Y01047306D01*
X01663900Y01045984D01*
X01661027Y01044064D01*
X01658584Y01041621D01*
X01656664Y01038748D01*
X01655342Y01035556D01*
X01654668Y01032167D01*
Y01028712D01*
X01655342Y01025324D01*
X01656664Y01022132D01*
X01658584Y01019259D01*
X01661027Y01016816D01*
X01663900Y01014896D01*
X01667092Y01013574D01*
X01670480Y01012900D01*
X01673935D01*
X01677324Y01013574D01*
X01680516Y01014896D01*
X01683389Y01016816D01*
X01685832Y01019259D01*
X01687752Y01022132D01*
X01689074Y01025324D01*
X01689748Y01028712D01*
Y01032167D01*
X01689074Y01035556D01*
X01687752Y01038748D01*
X01685832Y01041621D01*
X01683389Y01044064D01*
X01680516Y01045984D01*
X01677324Y01047306D01*
X01673935Y01047980D01*
D02*
G37*
G36*
X01550500D02*
X01547045D01*
X01543657Y01047306D01*
X01540465Y01045984D01*
X01537592Y01044064D01*
X01535149Y01041621D01*
X01533229Y01038748D01*
X01531907Y01035556D01*
X01531233Y01032167D01*
Y01028712D01*
X01531907Y01025324D01*
X01533229Y01022132D01*
X01535149Y01019259D01*
X01537592Y01016816D01*
X01540465Y01014896D01*
X01543657Y01013574D01*
X01547045Y01012900D01*
X01550500D01*
X01553889Y01013574D01*
X01557081Y01014896D01*
X01559954Y01016816D01*
X01562397Y01019259D01*
X01564317Y01022132D01*
X01565639Y01025324D01*
X01566313Y01028712D01*
Y01032167D01*
X01565639Y01035556D01*
X01564317Y01038748D01*
X01562397Y01041621D01*
X01559954Y01044064D01*
X01557081Y01045984D01*
X01553889Y01047306D01*
X01550500Y01047980D01*
D02*
G37*
G36*
X01756530Y01024327D02*
X01735450D01*
Y01003247D01*
X01756530D01*
Y01024327D01*
D02*
G37*
%LPD*%
G36*
X01735450Y01184563D02*
X01734180Y01183884D01*
X01733657Y01184234D01*
X01731690Y01184625D01*
X01705490D01*
X01703524Y01184234D01*
X01701857Y01183120D01*
X01684362Y01165625D01*
X01682700D01*
X01682315Y01166895D01*
X01683374Y01167603D01*
X01706733Y01190962D01*
X01735450D01*
Y01184563D01*
D02*
G37*
G36*
X01902852Y00910358D02*
Y00884237D01*
X01902950Y00883740D01*
Y00883234D01*
X01903144Y00882766D01*
X01903243Y00882270D01*
X01903524Y00881849D01*
X01903718Y00881382D01*
X01904076Y00881024D01*
X01904357Y00880603D01*
X01904778Y00880322D01*
X01905135Y00879964D01*
X01905603Y00879770D01*
X01906024Y00879489D01*
X01906520Y00879390D01*
X01906988Y00879197D01*
X01907494D01*
X01907990Y00879098D01*
X01908487Y00879197D01*
X01908993D01*
X01909460Y00879390D01*
X01909957Y00879489D01*
X01910378Y00879770D01*
X01910845Y00879964D01*
X01911203Y00880322D01*
X01911624Y00880603D01*
X01911905Y00881024D01*
X01912263Y00881382D01*
X01912457Y00881849D01*
X01912738Y00882270D01*
X01912837Y00882766D01*
X01913030Y00883234D01*
Y00883740D01*
X01913129Y00884237D01*
Y00912487D01*
X01912738Y00914453D01*
X01913780Y00915180D01*
X01916352Y00912608D01*
Y00870375D01*
X01897119D01*
X01891879Y00875615D01*
Y00910237D01*
X01891488Y00912203D01*
X01890374Y00913870D01*
X01874624Y00929620D01*
X01873415Y00930428D01*
X01873801Y00931698D01*
X01881512D01*
X01902852Y00910358D01*
D02*
G37*
D10*
X00855490Y00874477D02*
G03*
X00865490Y00864477I00010000J00000000D01*
G01*
X00912990Y00834487D02*
G03*
X00882990Y00864487I-00030000J00000000D01*
G01*
X00912981Y00816987D02*
G03*
X00922981Y00806987I00010000J00000000D01*
G01*
X01927990Y01654487D02*
G03*
X01957990Y01624487I00030000J00000000D01*
G01*
X01918000Y00806986D02*
G03*
X01928000Y00816987I00000000J00010000D01*
G01*
X00922981Y01681987D02*
G03*
X00912981Y01671987I00000000J-00010000D01*
G01*
X00865490Y01624496D02*
G03*
X00855490Y01614496I00000000J-00010000D01*
G01*
X01985491D02*
G03*
X01975491Y01624496I-00010000J00000000D01*
G01*
Y00864477D02*
G03*
X01985491Y00874477I00000000J00010000D01*
G01*
X01928000Y01671987D02*
G03*
X01918000Y01681987I-00010000J00000000D01*
G01*
X00882990Y01624487D02*
G03*
X00912990Y01654487I00000000J00030000D01*
G01*
X01957990Y00864487D02*
G03*
X01927990Y00834487I00000000J-00030000D01*
G01*
X01207790Y00820487D02*
X01433190Y00820487D01*
X01563190D01*
X01433190Y00950487D02*
X01563190D01*
X01207790Y00950487D02*
X01433190Y00950487D01*
X01563190Y00820487D02*
Y00950487D01*
X01207790Y00820487D02*
Y00950487D01*
X00865481Y00864487D02*
X00882990D01*
X00912990Y00816977D02*
Y00834487D01*
X01927990Y00816977D02*
Y00834487D01*
X01957990Y01624487D02*
X01975500D01*
X01487991Y01681987D02*
X01918000Y01681987D01*
X01927990Y01654487D02*
Y01671996D01*
X01352990Y01517487D02*
Y01669287D01*
X00912990Y01654487D02*
Y01671996D01*
X01957990Y00864487D02*
X01975500D01*
X00922981Y01681987D02*
X01352990D01*
X00922981Y00806987D02*
X01918000Y00806987D01*
X00855490Y00874477D02*
X00855490Y01614496D01*
X01352990Y01669287D02*
Y01681987D01*
X00865481Y01624487D02*
X00882990D01*
X01487991Y01517487D02*
Y01681987D01*
X01433190Y01517487D02*
X01487991D01*
X01352990D02*
X01433190D01*
X01985490Y00874477D02*
X01985490Y01614496D01*
D17*
X01015490Y01264477D02*
G03*
X01005490Y01254477I00000000J-00010000D01*
G01*
Y00974477D02*
G03*
X01015490Y00964477I00010000J00000000D01*
G01*
X01755490Y00969487D02*
G03*
X01765490Y00979487I00000000J00010000D01*
G01*
X01490491D02*
G03*
X01500491Y00969487I00010000J00000000D01*
G01*
Y01259487D02*
G03*
X01490491Y01249487I00000000J-00010000D01*
G01*
X01765490Y01249477D02*
G03*
X01755490Y01259477I-00010000J00000000D01*
G01*
X01770490Y01254477D02*
G03*
X01760490Y01264477I-00010000J00000000D01*
G01*
X01775490Y01004487D02*
G03*
X01775490Y01004487I-00005000J00000000D01*
G01*
Y00991987D02*
G03*
X01775490Y00991987I-00005000J00000000D01*
G01*
Y01041987D02*
G03*
X01775490Y01041987I-00005000J00000000D01*
G01*
Y01029487D02*
G03*
X01775490Y01029487I-00005000J00000000D01*
G01*
Y01016987D02*
G03*
X01775490Y01016987I-00005000J00000000D01*
G01*
Y01079487D02*
G03*
X01775490Y01079487I-00005000J00000000D01*
G01*
Y01066987D02*
G03*
X01775490Y01066987I-00005000J00000000D01*
G01*
Y01054487D02*
G03*
X01775490Y01054487I-00005000J00000000D01*
G01*
Y01116987D02*
G03*
X01775490Y01116987I-00005000J00000000D01*
G01*
Y01104487D02*
G03*
X01775490Y01104487I-00005000J00000000D01*
G01*
Y01091987D02*
G03*
X01775490Y01091987I-00005000J00000000D01*
G01*
Y01129487D02*
G03*
X01775490Y01129487I-00005000J00000000D01*
G01*
Y01141987D02*
G03*
X01775490Y01141987I-00005000J00000000D01*
G01*
Y01154487D02*
G03*
X01775490Y01154487I-00005000J00000000D01*
G01*
Y01166987D02*
G03*
X01775490Y01166987I-00005000J00000000D01*
G01*
Y01179487D02*
G03*
X01775490Y01179487I-00005000J00000000D01*
G01*
Y01191987D02*
G03*
X01775490Y01191987I-00005000J00000000D01*
G01*
Y01204487D02*
G03*
X01775490Y01204487I-00005000J00000000D01*
G01*
Y01216987D02*
G03*
X01775490Y01216987I-00005000J00000000D01*
G01*
Y01229487D02*
G03*
X01775490Y01229487I-00005000J00000000D01*
G01*
Y01241987D02*
G03*
X01775490Y01241987I-00005000J00000000D01*
G01*
X01760490Y00964477D02*
G03*
X01770490Y00974477I00000000J00010000D01*
G01*
X01005490D02*
Y01254477D01*
X01765490Y00979487D02*
Y00991997D01*
X01500491Y00969487D02*
X01755490Y00969487D01*
X01490491Y00979487D02*
Y01249487D01*
X01500491Y01259477D02*
X01755490Y01259477D01*
X01765490Y01241987D02*
Y01249477D01*
X01770490Y00974477D02*
Y00986987D01*
Y01246987D02*
Y01254477D01*
X01015490Y01264477D02*
X01760490Y01264477D01*
X01015490Y00964477D02*
X01760490Y00964477D01*
D31*
X01258490Y01489487D02*
X01286490Y01461487D01*
X01867790Y01039187D02*
X01893240Y01013737D01*
X01800490Y01039187D02*
X01867790D01*
X01893240Y01013737D02*
X01936990D01*
X01939240Y01015987D01*
X01889990Y01273237D02*
X01939240Y01223987D01*
Y01015987D02*
Y01223987D01*
X01868990Y01273237D02*
X01889990D01*
X01870990Y01280487D02*
X01930740D01*
X01849218Y01302259D02*
X01870990Y01280487D01*
X01930740D02*
X01949990Y01261237D01*
X01835740Y01306487D02*
X01868990Y01273237D01*
X01835740Y01306487D02*
Y01381237D01*
X01849218Y01302259D02*
Y01405009D01*
X01299990Y01513237D02*
Y01584987D01*
X01234240Y01464737D02*
X01258490Y01488987D01*
Y01515487D01*
X00984740Y01464737D02*
X01234240D01*
X00965740Y01445737D02*
X00984740Y01464737D01*
X00965740Y00911237D02*
Y01445737D01*
X01258490Y01515487D02*
Y01586987D01*
X01258490Y01586987D02*
X01258490Y01586987D01*
X01098490Y01411487D02*
X01554740D01*
X01562740Y01419487D02*
Y01463237D01*
X01554740Y01411487D02*
X01562740Y01419487D01*
X01086990Y01399987D02*
X01098490Y01411487D01*
X01086990Y01326737D02*
Y01399987D01*
Y01326737D02*
X01094240Y01319487D01*
X01104740D01*
X01111990Y01294487D02*
Y01312237D01*
X01104740Y01319487D02*
X01111990Y01312237D01*
X01086990D02*
X01094240Y01319487D01*
X01086990Y01294487D02*
Y01312237D01*
X01529740Y01437987D02*
Y01453237D01*
X01519740Y01427987D02*
X01529740Y01437987D01*
X01078990Y01427987D02*
X01519740D01*
X01061990Y01410987D02*
X01078990Y01427987D01*
X01061990Y01294487D02*
Y01410987D01*
X01628240Y01319487D02*
X01628240Y01319487D01*
X01386990Y01319487D02*
X01628240D01*
X01627990Y01319737D02*
X01628240Y01319487D01*
X01627990Y01319737D02*
Y01395487D01*
X01656240Y01423737D01*
X01830490D01*
X01849218Y01405009D01*
X01949990Y01043987D02*
Y01261237D01*
D53*
X01630490Y01245487D02*
X01641490Y01234487D01*
X01616990Y01245487D02*
X01630490D01*
X01672990Y01069987D02*
X01683897Y01059080D01*
X01737561D01*
X01672990Y01069987D02*
Y01110472D01*
X01692740Y01109987D02*
X01716190D01*
X01685389Y01102635D02*
X01692740Y01109987D01*
X01716190D02*
X01745990Y01139787D01*
X01704604Y01196100D02*
X01740375D01*
X01679740Y01171237D02*
X01704604Y01196100D01*
X01653490Y01171237D02*
X01679740D01*
X01641490Y01183237D02*
X01653490Y01171237D01*
X01686490Y01160487D02*
X01705490Y01179487D01*
X01610490Y01176839D02*
X01626843Y01160487D01*
X01686490D01*
X01641490Y01183237D02*
Y01234487D01*
X01705490Y01179487D02*
X01731690D01*
X01745990Y01165187D01*
X01685389Y01089221D02*
Y01102635D01*
X01672990Y01110472D02*
X01710351Y01147833D01*
X01737568Y01059087D02*
X01740490D01*
X01737561Y01059080D02*
X01737568Y01059087D01*
X01740490D02*
X01745990Y01064587D01*
X01610490Y01176839D02*
Y01220387D01*
X01740490Y01195987D02*
X01745990Y01190587D01*
X01740375Y01196100D02*
X01740490Y01195987D01*
X01740490Y01221487D02*
X01745990Y01215987D01*
X01693361Y01221487D02*
X01740490D01*
X01672208Y01200333D02*
X01693361Y01221487D01*
X01510629Y01147833D02*
X01510706Y01147910D01*
X01666164D02*
X01666240Y01147987D01*
X01510706Y01147910D02*
X01666164D01*
X01870240Y01300487D02*
Y01436987D01*
X01596990Y01453737D02*
X01601740Y01448987D01*
X01596990Y01453737D02*
Y01500737D01*
X01601740Y01448987D02*
X01858241D01*
X00955740Y01510986D02*
X00968740Y01523987D01*
X01198240D01*
X01870240Y01300487D02*
X01955740D01*
X01972740Y00963987D02*
Y01283487D01*
X01955740Y01300487D02*
X01972740Y01283487D01*
X01800490Y01115387D02*
X01907990D01*
X01927990Y01025487D02*
Y01095387D01*
X01907990Y01115387D02*
X01927990Y01095387D01*
X01215240Y01523987D02*
X01226990Y01535737D01*
X01198240Y01523987D02*
X01215240D01*
X01198240D02*
X01199173Y01524919D01*
Y01570737D01*
X01321740Y01596987D02*
X01328990Y01589737D01*
Y01526237D02*
Y01589737D01*
Y01483987D02*
Y01526237D01*
X00955740Y00924737D02*
Y01510986D01*
X01113740Y00846737D02*
X01136240Y00869237D01*
X00955740Y00846737D02*
X01113740D01*
X00955740D02*
Y00924737D01*
X01918490Y00865237D02*
X01921490Y00868237D01*
Y00914737D01*
X01894990Y00865237D02*
X01918490D01*
X01887240Y00840237D02*
X01907990D01*
X01872240Y00855237D02*
X01887240Y00840237D01*
X01213990Y01596987D02*
X01321740D01*
X01328990Y01483987D02*
X01334241Y01478737D01*
X01446240D01*
X01510990D02*
X01594061D01*
X01858241Y01448987D02*
X01870240Y01436987D01*
X01510741Y01478987D02*
X01510990Y01478737D01*
X01510741Y01478987D02*
Y01524237D01*
X01446240Y01478737D02*
X01510990D01*
X01446240Y01445987D02*
Y01478737D01*
X00904240Y01059237D02*
Y01572237D01*
X00928990Y01596987D02*
X01213990D01*
X00904240Y01572237D02*
X00928990Y01596987D01*
X01213990D02*
Y01623237D01*
Y01570737D02*
Y01596987D01*
X01959740Y00950987D02*
X01972740Y00963987D01*
X01620240Y00950987D02*
X01959740D01*
X01613490Y00944237D02*
X01620240Y00950987D01*
X01613490Y00861487D02*
Y00944237D01*
Y00861487D02*
X01626040Y00848937D01*
X01660990D01*
X01842490Y00859487D02*
X01869240Y00832737D01*
X01660990Y00848937D02*
X01671540Y00859487D01*
X01842490D01*
X01683490Y00842987D02*
X01731241D01*
X01755990Y00818237D01*
X01636091Y00886037D02*
X01676040Y00925987D01*
X01870990D01*
X01872240Y00855237D02*
Y00908487D01*
X01870990Y00925987D02*
X01886740Y00910237D01*
Y00873487D02*
Y00910237D01*
X01907990Y00928237D02*
X01921490Y00914737D01*
X01886740Y00873487D02*
X01894990Y00865237D01*
X01863490Y00917237D02*
X01872240Y00908487D01*
X01747690Y00917237D02*
X01863490D01*
X01741890Y00911437D02*
X01747690Y00917237D01*
X01685890Y00873337D02*
X01759840D01*
X01769990Y00883487D02*
Y00906237D01*
X01759840Y00873337D02*
X01769990Y00883487D01*
X01755990Y00818237D02*
X01769990D01*
X01907990Y00884237D02*
Y00912487D01*
X01883640Y00936837D02*
X01907990Y00912487D01*
X01636091Y00936837D02*
X01883640D01*
D54*
X01498240Y01488987D02*
X01501990Y01492737D01*
Y01546237D01*
X01478240Y01488987D02*
X01498240D01*
D55*
X01180740Y00872787D02*
D03*
X01407790Y01499487D02*
D03*
X01610490Y01102687D02*
D03*
X01713990Y01240487D02*
D03*
X01825890Y01248987D02*
D03*
D56*
X01180740Y00898187D02*
D03*
X01800490Y01191587D02*
D03*
Y01216987D02*
D03*
X01745990Y01013787D02*
D03*
Y01064587D02*
D03*
X01610490Y01128087D02*
D03*
X01745990Y01039187D02*
D03*
Y01139787D02*
D03*
Y01114387D02*
D03*
Y01089987D02*
D03*
X01800490Y01013787D02*
D03*
Y01064587D02*
D03*
Y01039187D02*
D03*
Y01089987D02*
D03*
Y01115387D02*
D03*
Y01140787D02*
D03*
Y01166187D02*
D03*
X01745990Y01215987D02*
D03*
Y01165187D02*
D03*
Y01190587D02*
D03*
D57*
X01259320Y01363487D02*
D03*
X01359320D02*
D03*
X01036990D02*
D03*
X01136990D02*
D03*
X01703990D02*
D03*
X01803990D02*
D03*
X01481660D02*
D03*
X01581660D02*
D03*
D58*
X01284320Y01294487D02*
D03*
X01334320D02*
D03*
X01309320D02*
D03*
X01061990D02*
D03*
X01111990D02*
D03*
X01086990D02*
D03*
X01728990D02*
D03*
X01778990D02*
D03*
X01753990D02*
D03*
X01506660D02*
D03*
X01556660D02*
D03*
X01531660D02*
D03*
D59*
X01005490Y01619987D02*
D03*
Y01557487D02*
D03*
Y01494987D02*
D03*
X01168490D02*
D03*
Y01557487D02*
D03*
Y01619987D02*
D03*
X01672490D02*
D03*
Y01557487D02*
D03*
Y01494987D02*
D03*
X01835490D02*
D03*
Y01557487D02*
D03*
Y01619987D02*
D03*
D60*
X01433190Y01499487D02*
D03*
X01688590Y01240487D02*
D03*
X01800490Y01248987D02*
D03*
D61*
X01548773Y01030440D02*
D03*
X01510629Y01082940D02*
D03*
Y01147833D02*
D03*
X01548773Y01200333D02*
D03*
X01610490Y01220387D02*
D03*
X01672208Y01200333D02*
D03*
X01710351Y01147833D02*
D03*
Y01082940D02*
D03*
X01672208Y01030440D02*
D03*
D62*
X01616990Y01245487D02*
D03*
X00987990Y01274487D02*
D03*
Y01249487D02*
D03*
Y01224487D02*
D03*
Y01199487D02*
D03*
Y01174487D02*
D03*
Y01149487D02*
D03*
Y01124487D02*
D03*
Y01099487D02*
D03*
X01442990Y01364487D02*
D03*
X01402990D02*
D03*
X01462990Y01454487D02*
D03*
X01457990Y01504487D02*
D03*
X01482990D02*
D03*
X01357640Y01499449D02*
D03*
X01382640D02*
D03*
X01616721Y01539135D02*
D03*
Y01564135D02*
D03*
X01960838Y01188681D02*
D03*
Y01163681D02*
D03*
Y01138681D02*
D03*
Y01113681D02*
D03*
X01925700Y01115276D02*
D03*
X01827002Y01102925D02*
D03*
X01843990Y01049487D02*
D03*
X01792990Y00984487D02*
D03*
X01907990Y00974487D02*
D03*
X01932990D02*
D03*
X01957990D02*
D03*
X01857990Y01189487D02*
D03*
X01882990D02*
D03*
X01907990D02*
D03*
X01386990Y01331737D02*
D03*
X01647807Y01319487D02*
D03*
X01612990Y01364487D02*
D03*
X01652990D02*
D03*
X01547990Y01624487D02*
D03*
Y01649487D02*
D03*
X01522990D02*
D03*
Y01624487D02*
D03*
X01197990Y01399487D02*
D03*
Y01374487D02*
D03*
Y01349487D02*
D03*
Y01324487D02*
D03*
X01172990Y01399487D02*
D03*
Y01374487D02*
D03*
Y01349487D02*
D03*
Y01324487D02*
D03*
X00997990Y01399487D02*
D03*
Y01374487D02*
D03*
Y01349487D02*
D03*
Y01324487D02*
D03*
X00947990Y01649487D02*
D03*
Y01624487D02*
D03*
X00922990D02*
D03*
Y01524487D02*
D03*
Y01549487D02*
D03*
Y01574487D02*
D03*
Y01424487D02*
D03*
Y01449487D02*
D03*
Y01474487D02*
D03*
Y01499487D02*
D03*
Y01324487D02*
D03*
Y01349487D02*
D03*
Y01374487D02*
D03*
Y01399487D02*
D03*
Y01099487D02*
D03*
Y01124487D02*
D03*
Y01149487D02*
D03*
Y01174487D02*
D03*
X00872990Y01599487D02*
D03*
Y01574487D02*
D03*
Y01549487D02*
D03*
Y01374487D02*
D03*
Y01399487D02*
D03*
Y01424487D02*
D03*
Y01449487D02*
D03*
Y01474487D02*
D03*
Y01499487D02*
D03*
Y01524487D02*
D03*
Y01349487D02*
D03*
Y01324487D02*
D03*
Y01299487D02*
D03*
Y01274487D02*
D03*
Y01249487D02*
D03*
Y01224487D02*
D03*
Y01199487D02*
D03*
Y01174487D02*
D03*
Y01149487D02*
D03*
Y01124487D02*
D03*
Y01099487D02*
D03*
Y01074487D02*
D03*
Y01049487D02*
D03*
Y01024487D02*
D03*
Y00999487D02*
D03*
Y00974487D02*
D03*
Y00949487D02*
D03*
X01172990D02*
D03*
Y00924487D02*
D03*
Y00824487D02*
D03*
Y00849487D02*
D03*
X01647990Y00824487D02*
D03*
X01622990D02*
D03*
X01597990D02*
D03*
Y00849487D02*
D03*
Y00874487D02*
D03*
Y00899487D02*
D03*
Y00924487D02*
D03*
Y00949487D02*
D03*
X01972990Y00874487D02*
D03*
Y00924487D02*
D03*
X01947990Y00874487D02*
D03*
Y00924487D02*
D03*
X01897990Y01349487D02*
D03*
Y01374487D02*
D03*
Y01399487D02*
D03*
Y01424487D02*
D03*
Y01449487D02*
D03*
Y01474487D02*
D03*
Y01499487D02*
D03*
Y01524487D02*
D03*
Y01549487D02*
D03*
Y01574487D02*
D03*
Y01599487D02*
D03*
X01947990Y01374487D02*
D03*
Y01399487D02*
D03*
Y01424487D02*
D03*
Y01449487D02*
D03*
Y01474487D02*
D03*
Y01499487D02*
D03*
Y01524487D02*
D03*
Y01549487D02*
D03*
Y01574487D02*
D03*
Y01599487D02*
D03*
X01685389Y01089221D02*
D03*
X01666240Y01147987D02*
D03*
X01286490Y01461487D02*
D03*
X01870240Y01300487D02*
D03*
X01835740Y01381237D02*
D03*
X01299990Y01513237D02*
D03*
Y01584987D02*
D03*
X01478240Y01488987D02*
D03*
X00965740Y00911237D02*
D03*
X01258490Y01515487D02*
D03*
X01258490Y01586987D02*
D03*
X01562740Y01463237D02*
D03*
X01529740Y01453237D02*
D03*
X01386990Y01319487D02*
D03*
X01628240Y01319487D02*
D03*
X01949990Y01043987D02*
D03*
X01927990Y01025487D02*
D03*
X01501990Y01546237D02*
D03*
X01199173Y01570737D02*
D03*
X01226990Y01535737D02*
D03*
X01328990Y01526237D02*
D03*
X01136240Y00869237D02*
D03*
X00955740Y00846737D02*
D03*
Y00924737D02*
D03*
X01446240Y01445987D02*
D03*
X01869240Y00832737D02*
D03*
X01660990Y00848937D02*
D03*
X01596990Y01500737D02*
D03*
X01510741Y01524237D02*
D03*
X00904240Y01059237D02*
D03*
X01213990Y01570737D02*
D03*
Y01623237D02*
D03*
X01683490Y00842987D02*
D03*
X01769990Y00906237D02*
D03*
X01741890Y00911437D02*
D03*
X01636091Y00886037D02*
D03*
X01685890Y00873337D02*
D03*
X01636091Y00936837D02*
D03*
X01769990Y00818237D02*
D03*
X01907990Y00840237D02*
D03*
Y00884237D02*
D03*
Y00928237D02*
D03*
M02*
