G04*
G04 #@! TF.GenerationSoftware,Altium Limited,Altium Designer,24.0.1 (36)*
G04*
G04 Layer_Color=8421504*
%FSAX44Y44*%
%MOMM*%
G71*
G04*
G04 #@! TF.SameCoordinates,BC1AE164-091E-45D8-8033-5DBA2348E9FA*
G04*
G04*
G04 #@! TF.FilePolarity,Positive*
G04*
G01*
G75*
%ADD10C,0.2000*%
%ADD17C,0.1000*%
%ADD18R,1.3000X0.7000*%
%ADD19R,0.7000X1.3000*%
%ADD20R,1.6000X0.9000*%
%ADD21R,0.9000X1.6000*%
%ADD22R,1.8000X0.7000*%
%ADD23R,1.2000X1.4000*%
%ADD24R,3.5000X1.4000*%
%ADD25R,1.2000X0.6000*%
%ADD26R,0.7000X1.8000*%
%ADD27R,1.2000X0.5500*%
%ADD28R,1.2000X1.2000*%
%ADD29R,1.5000X1.6000*%
%ADD30R,1.4000X1.6000*%
D10*
X00855490Y00874477D02*
G03*
X00865490Y00864477I00010000J00000000D01*
G01*
X00912990Y00834487D02*
G03*
X00882990Y00864487I-00030000J00000000D01*
G01*
X00912981Y00816987D02*
G03*
X00922981Y00806987I00010000J00000000D01*
G01*
X01927990Y01654487D02*
G03*
X01957990Y01624487I00030000J00000000D01*
G01*
X01918000Y00806986D02*
G03*
X01928000Y00816987I00000000J00010000D01*
G01*
X00922981Y01681987D02*
G03*
X00912981Y01671987I00000000J-00010000D01*
G01*
X00865490Y01624496D02*
G03*
X00855490Y01614496I00000000J-00010000D01*
G01*
X01985491D02*
G03*
X01975491Y01624496I-00010000J00000000D01*
G01*
Y00864477D02*
G03*
X01985491Y00874477I00000000J00010000D01*
G01*
X01928000Y01671987D02*
G03*
X01918000Y01681987I-00010000J00000000D01*
G01*
X00882990Y01624487D02*
G03*
X00912990Y01654487I00000000J00030000D01*
G01*
X01957990Y00864487D02*
G03*
X01927990Y00834487I00000000J-00030000D01*
G01*
X01207790Y00820487D02*
X01433190Y00820487D01*
X01563190D01*
X01433190Y00950487D02*
X01563190D01*
X01207790Y00950487D02*
X01433190Y00950487D01*
X01563190Y00820487D02*
Y00950487D01*
X01207790Y00820487D02*
Y00950487D01*
X00865481Y00864487D02*
X00882990D01*
X00912990Y00816977D02*
Y00834487D01*
X01927990Y00816977D02*
Y00834487D01*
X01957990Y01624487D02*
X01975500D01*
X01487991Y01681987D02*
X01918000Y01681987D01*
X01927990Y01654487D02*
Y01671996D01*
X01352990Y01517487D02*
Y01669287D01*
X00912990Y01654487D02*
Y01671996D01*
X01957990Y00864487D02*
X01975500D01*
X00922981Y01681987D02*
X01352990D01*
X00922981Y00806987D02*
X01918000Y00806987D01*
X00855490Y00874477D02*
X00855490Y01614496D01*
X01352990Y01669287D02*
Y01681987D01*
X00865481Y01624487D02*
X00882990D01*
X01487991Y01517487D02*
Y01681987D01*
X01433190Y01517487D02*
X01487991D01*
X01352990D02*
X01433190D01*
X01985490Y00874477D02*
X01985490Y01614496D01*
D17*
X01015490Y01264477D02*
G03*
X01005490Y01254477I00000000J-00010000D01*
G01*
Y00974477D02*
G03*
X01015490Y00964477I00010000J00000000D01*
G01*
X01755490Y00975487D02*
G03*
X01765490Y00985487I00000000J00010000D01*
G01*
X01490491D02*
G03*
X01500491Y00975487I00010000J00000000D01*
G01*
Y01253487D02*
G03*
X01490491Y01243487I00000000J-00010000D01*
G01*
X01765490Y01243477D02*
G03*
X01755490Y01253477I-00010000J00000000D01*
G01*
X01775490Y01254477D02*
G03*
X01765490Y01264477I-00010000J00000000D01*
G01*
X01775490Y01004487D02*
G03*
X01775490Y01004487I-00005000J00000000D01*
G01*
Y01041987D02*
G03*
X01775490Y01041987I-00005000J00000000D01*
G01*
Y01029487D02*
G03*
X01775490Y01029487I-00005000J00000000D01*
G01*
Y01016987D02*
G03*
X01775490Y01016987I-00005000J00000000D01*
G01*
Y01079487D02*
G03*
X01775490Y01079487I-00005000J00000000D01*
G01*
Y01066987D02*
G03*
X01775490Y01066987I-00005000J00000000D01*
G01*
Y01054487D02*
G03*
X01775490Y01054487I-00005000J00000000D01*
G01*
Y01116987D02*
G03*
X01775490Y01116987I-00005000J00000000D01*
G01*
Y01104487D02*
G03*
X01775490Y01104487I-00005000J00000000D01*
G01*
Y01091987D02*
G03*
X01775490Y01091987I-00005000J00000000D01*
G01*
Y01129487D02*
G03*
X01775490Y01129487I-00005000J00000000D01*
G01*
Y01141987D02*
G03*
X01775490Y01141987I-00005000J00000000D01*
G01*
Y01154487D02*
G03*
X01775490Y01154487I-00005000J00000000D01*
G01*
Y01166987D02*
G03*
X01775490Y01166987I-00005000J00000000D01*
G01*
Y01179487D02*
G03*
X01775490Y01179487I-00005000J00000000D01*
G01*
Y01191987D02*
G03*
X01775490Y01191987I-00005000J00000000D01*
G01*
Y01204487D02*
G03*
X01775490Y01204487I-00005000J00000000D01*
G01*
Y01216987D02*
G03*
X01775490Y01216987I-00005000J00000000D01*
G01*
Y01229487D02*
G03*
X01775490Y01229487I-00005000J00000000D01*
G01*
X01765490Y00964477D02*
G03*
X01775490Y00974477I00000000J00010000D01*
G01*
X01005490D02*
Y01254477D01*
X01765490Y00985487D02*
Y01004487D01*
X01500491Y00975487D02*
X01755490Y00975487D01*
X01490491Y00983487D02*
Y01245487D01*
X01500491Y01253477D02*
X01755490Y01253477D01*
X01765490Y01229487D02*
Y01243477D01*
X01775490Y00974477D02*
Y01004487D01*
Y01228989D02*
Y01254477D01*
X01015490Y01264477D02*
X01765490Y01264477D01*
X01015490Y00964477D02*
X01765490Y00964477D01*
D18*
X01529740Y01546237D02*
D03*
Y01527237D02*
D03*
Y01514237D02*
D03*
Y01495237D02*
D03*
X01870240Y01221487D02*
D03*
Y01240487D02*
D03*
Y01271487D02*
D03*
Y01290487D02*
D03*
X01959241Y01221487D02*
D03*
Y01240487D02*
D03*
Y01271487D02*
D03*
Y01290487D02*
D03*
Y01303487D02*
D03*
Y01322487D02*
D03*
X01940240D02*
D03*
Y01303487D02*
D03*
X01616740Y01607237D02*
D03*
Y01626237D02*
D03*
X01575740Y01463237D02*
D03*
Y01444237D02*
D03*
X01597740Y01626237D02*
D03*
Y01607237D02*
D03*
X01559740Y01594237D02*
D03*
Y01575237D02*
D03*
X01578740Y01594237D02*
D03*
Y01575237D02*
D03*
Y01626237D02*
D03*
Y01607237D02*
D03*
X01239990Y01516737D02*
D03*
Y01535737D02*
D03*
Y01588237D02*
D03*
Y01607237D02*
D03*
X01510740Y01514237D02*
D03*
Y01495237D02*
D03*
X01884990Y01149487D02*
D03*
Y01130487D02*
D03*
X01903990Y01149487D02*
D03*
Y01130487D02*
D03*
X01832240Y01271487D02*
D03*
Y01290487D02*
D03*
X01079240Y00933237D02*
D03*
Y00914237D02*
D03*
X01155240Y00879237D02*
D03*
Y00898237D02*
D03*
X01079240Y00838237D02*
D03*
Y00857237D02*
D03*
X01136240Y00879237D02*
D03*
Y00898237D02*
D03*
X01453990Y01341487D02*
D03*
Y01322487D02*
D03*
X01386990Y01290487D02*
D03*
Y01309487D02*
D03*
X01231740D02*
D03*
Y01290487D02*
D03*
X01922990Y01149487D02*
D03*
Y01130487D02*
D03*
X01453990Y01290487D02*
D03*
Y01309487D02*
D03*
X01434990Y01290487D02*
D03*
Y01309487D02*
D03*
X01529740Y01463237D02*
D03*
Y01482237D02*
D03*
X01628240Y01309487D02*
D03*
Y01290487D02*
D03*
X01594740Y01463237D02*
D03*
Y01444237D02*
D03*
X01609240Y01309487D02*
D03*
Y01290487D02*
D03*
D19*
X01299990Y01526237D02*
D03*
X01318990D02*
D03*
Y01597987D02*
D03*
X01299990D02*
D03*
X01497240Y01432987D02*
D03*
X01478240D02*
D03*
X01414240D02*
D03*
X01433240D02*
D03*
X01848240Y01340487D02*
D03*
X01829240D02*
D03*
X01497240Y01451987D02*
D03*
X01478240D02*
D03*
X00933240Y00960237D02*
D03*
X00914240D02*
D03*
X01277490Y01562237D02*
D03*
X01258490D02*
D03*
X01255991Y01633737D02*
D03*
X01274990D02*
D03*
X01414190Y01451987D02*
D03*
X01433190D02*
D03*
X01446240Y01432987D02*
D03*
X01465240D02*
D03*
X01242990Y01551737D02*
D03*
X01223990D02*
D03*
Y01570737D02*
D03*
X01242990D02*
D03*
X01223990Y01623237D02*
D03*
X01242990D02*
D03*
Y01642237D02*
D03*
X01223990D02*
D03*
X01873990Y01089987D02*
D03*
X01854990D02*
D03*
X01905990D02*
D03*
X01886991D02*
D03*
X01822990Y01064487D02*
D03*
X01841990D02*
D03*
X00933240Y01059237D02*
D03*
X00914240D02*
D03*
X01041740Y00917237D02*
D03*
X01060740D02*
D03*
X00965740Y00924737D02*
D03*
X00984740D02*
D03*
X01016740Y00898237D02*
D03*
X00997740D02*
D03*
X00965740D02*
D03*
X00984740D02*
D03*
X01120240Y00895237D02*
D03*
X01101240D02*
D03*
X00997740Y00873237D02*
D03*
X01016740D02*
D03*
X00965740Y00846737D02*
D03*
X00984740D02*
D03*
X00965740Y00873237D02*
D03*
X00984740D02*
D03*
X01697990Y00823987D02*
D03*
X01716990D02*
D03*
X01697990Y00842987D02*
D03*
X01716990D02*
D03*
X01041740Y00854237D02*
D03*
X01060740D02*
D03*
X01101240Y00876237D02*
D03*
X01120240D02*
D03*
X01841990Y01032987D02*
D03*
X01822990D02*
D03*
X01841990Y01013987D02*
D03*
X01822990D02*
D03*
X01873990Y01070987D02*
D03*
X01854990D02*
D03*
X01873990Y01013987D02*
D03*
X01854990D02*
D03*
X01916990Y01004987D02*
D03*
X01897990D02*
D03*
X01873990Y01032987D02*
D03*
X01854990D02*
D03*
X01815699Y01274422D02*
D03*
X01796699D02*
D03*
X01575740Y01479237D02*
D03*
X01556740D02*
D03*
X01594740D02*
D03*
X01613740D02*
D03*
D20*
X01935490Y01072987D02*
D03*
Y01043987D02*
D03*
X01876990Y00961237D02*
D03*
Y00990237D02*
D03*
X01913490Y01043987D02*
D03*
Y01072987D02*
D03*
X01891490Y01043987D02*
D03*
Y01072987D02*
D03*
D21*
X01907990Y00942737D02*
D03*
X01878990D02*
D03*
X01769990Y00920737D02*
D03*
X01798990D02*
D03*
X01907990Y00898737D02*
D03*
X01878990D02*
D03*
X01769990Y00876737D02*
D03*
X01798990D02*
D03*
X01907990Y00854737D02*
D03*
X01878990D02*
D03*
X01769990Y00832737D02*
D03*
X01798990D02*
D03*
X01887990Y01025487D02*
D03*
X01916990D02*
D03*
D22*
X01660990Y00936837D02*
D03*
Y00873337D02*
D03*
X01716990Y00898737D02*
D03*
X01660990Y00860637D02*
D03*
X01716990Y00886037D02*
D03*
Y00860637D02*
D03*
Y00873337D02*
D03*
X01660990Y00898737D02*
D03*
X01716990Y00924137D02*
D03*
X01660990Y00886037D02*
D03*
X01716990Y00911437D02*
D03*
X01660990Y00924137D02*
D03*
Y00911437D02*
D03*
X01716990Y00936837D02*
D03*
D23*
X01891741Y01286987D02*
D03*
X01937740D02*
D03*
X01914740D02*
D03*
D24*
Y01224987D02*
D03*
D25*
X01857740Y01323487D02*
D03*
Y01304487D02*
D03*
X01831740Y01313987D02*
D03*
X01026240Y00934237D02*
D03*
Y00915237D02*
D03*
X01000240Y00924737D02*
D03*
X01026240Y00856237D02*
D03*
Y00837237D02*
D03*
X01000240Y00846737D02*
D03*
D26*
X00926890Y00981737D02*
D03*
Y01037737D02*
D03*
X00914190Y00981737D02*
D03*
Y01037737D02*
D03*
X00939590Y00981737D02*
D03*
Y01037737D02*
D03*
X00952290Y00981737D02*
D03*
Y01037737D02*
D03*
X01572590Y01556737D02*
D03*
Y01500737D02*
D03*
X01585290Y01556737D02*
D03*
Y01500737D02*
D03*
X01559890Y01556737D02*
D03*
Y01500737D02*
D03*
X01547190Y01556737D02*
D03*
Y01500737D02*
D03*
D27*
X01284490Y01616737D02*
D03*
Y01607237D02*
D03*
Y01597737D02*
D03*
X01258490Y01616737D02*
D03*
Y01607237D02*
D03*
Y01597737D02*
D03*
X01284490Y01545237D02*
D03*
Y01535737D02*
D03*
Y01526237D02*
D03*
X01258490Y01545237D02*
D03*
Y01535737D02*
D03*
Y01526237D02*
D03*
D28*
X01862990Y01130487D02*
D03*
Y01150487D02*
D03*
D29*
X01830490Y01140487D02*
D03*
D30*
X01855990Y00854736D02*
D03*
X01821990D02*
D03*
Y00876737D02*
D03*
X01855990D02*
D03*
Y00898736D02*
D03*
X01821990D02*
D03*
X01079240Y00874737D02*
D03*
X01045240D02*
D03*
X01821990Y00832737D02*
D03*
X01855990D02*
D03*
X01079240Y00896737D02*
D03*
X01045240D02*
D03*
X01821990Y00920737D02*
D03*
X01855990D02*
D03*
X01821990Y00964737D02*
D03*
X01855990D02*
D03*
Y00942737D02*
D03*
X01821990D02*
D03*
X01433190Y01472487D02*
D03*
X01399190D02*
D03*
M02*
