G04*
G04 #@! TF.GenerationSoftware,Altium Limited,Altium Designer,24.0.1 (36)*
G04*
G04 Layer_Color=16711935*
%FSAX44Y44*%
%MOMM*%
G71*
G04*
G04 #@! TF.SameCoordinates,AD116AE3-DE06-480B-A5EE-D1CFDF242DD9*
G04*
G04*
G04 #@! TF.FilePolarity,Negative*
G04*
G01*
G75*
%ADD10C,0.2000*%
%ADD17C,0.1000*%
%ADD45C,1.8032*%
%ADD46R,1.8032X1.8032*%
%ADD47R,3.2032X3.2032*%
%ADD48C,1.7032*%
%ADD49C,2.4532*%
%ADD50R,1.8032X1.8032*%
%ADD51C,3.2032*%
%ADD52C,0.7032*%
D10*
X00855490Y00874477D02*
G03*
X00865490Y00864477I00010000J00000000D01*
G01*
X00912990Y00834487D02*
G03*
X00882990Y00864487I-00030000J00000000D01*
G01*
X00912981Y00816987D02*
G03*
X00922981Y00806987I00010000J00000000D01*
G01*
X01927990Y01654487D02*
G03*
X01957990Y01624487I00030000J00000000D01*
G01*
X01918000Y00806986D02*
G03*
X01928000Y00816987I00000000J00010000D01*
G01*
X00922981Y01681987D02*
G03*
X00912981Y01671987I00000000J-00010000D01*
G01*
X00865490Y01624496D02*
G03*
X00855490Y01614496I00000000J-00010000D01*
G01*
X01985491D02*
G03*
X01975491Y01624496I-00010000J00000000D01*
G01*
Y00864477D02*
G03*
X01985491Y00874477I00000000J00010000D01*
G01*
X01928000Y01671987D02*
G03*
X01918000Y01681987I-00010000J00000000D01*
G01*
X00882990Y01624487D02*
G03*
X00912990Y01654487I00000000J00030000D01*
G01*
X01957990Y00864487D02*
G03*
X01927990Y00834487I00000000J-00030000D01*
G01*
X01207790Y00820487D02*
X01433190Y00820487D01*
X01563190D01*
X01433190Y00950487D02*
X01563190D01*
X01207790Y00950487D02*
X01433190Y00950487D01*
X01563190Y00820487D02*
Y00950487D01*
X01207790Y00820487D02*
Y00950487D01*
X00865481Y00864487D02*
X00882990D01*
X00912990Y00816977D02*
Y00834487D01*
X01927990Y00816977D02*
Y00834487D01*
X01957990Y01624487D02*
X01975500D01*
X01487991Y01681987D02*
X01918000Y01681987D01*
X01927990Y01654487D02*
Y01671996D01*
X01352990Y01517487D02*
Y01669287D01*
X00912990Y01654487D02*
Y01671996D01*
X01957990Y00864487D02*
X01975500D01*
X00922981Y01681987D02*
X01352990D01*
X00922981Y00806987D02*
X01918000Y00806987D01*
X00855490Y00874477D02*
X00855490Y01614496D01*
X01352990Y01669287D02*
Y01681987D01*
X00865481Y01624487D02*
X00882990D01*
X01487991Y01517487D02*
Y01681987D01*
X01433190Y01517487D02*
X01487991D01*
X01352990D02*
X01433190D01*
X01985490Y00874477D02*
X01985490Y01614496D01*
D17*
X01015490Y01264477D02*
G03*
X01005490Y01254477I00000000J-00010000D01*
G01*
Y00974477D02*
G03*
X01015490Y00964477I00010000J00000000D01*
G01*
X01755490Y00969487D02*
G03*
X01765490Y00979487I00000000J00010000D01*
G01*
X01490491D02*
G03*
X01500491Y00969487I00010000J00000000D01*
G01*
Y01259487D02*
G03*
X01490491Y01249487I00000000J-00010000D01*
G01*
X01765490Y01249477D02*
G03*
X01755490Y01259477I-00010000J00000000D01*
G01*
X01770490Y01254477D02*
G03*
X01760490Y01264477I-00010000J00000000D01*
G01*
X01775490Y01004487D02*
G03*
X01775490Y01004487I-00005000J00000000D01*
G01*
Y00991987D02*
G03*
X01775490Y00991987I-00005000J00000000D01*
G01*
Y01041987D02*
G03*
X01775490Y01041987I-00005000J00000000D01*
G01*
Y01029487D02*
G03*
X01775490Y01029487I-00005000J00000000D01*
G01*
Y01016987D02*
G03*
X01775490Y01016987I-00005000J00000000D01*
G01*
Y01079487D02*
G03*
X01775490Y01079487I-00005000J00000000D01*
G01*
Y01066987D02*
G03*
X01775490Y01066987I-00005000J00000000D01*
G01*
Y01054487D02*
G03*
X01775490Y01054487I-00005000J00000000D01*
G01*
Y01116987D02*
G03*
X01775490Y01116987I-00005000J00000000D01*
G01*
Y01104487D02*
G03*
X01775490Y01104487I-00005000J00000000D01*
G01*
Y01091987D02*
G03*
X01775490Y01091987I-00005000J00000000D01*
G01*
Y01129487D02*
G03*
X01775490Y01129487I-00005000J00000000D01*
G01*
Y01141987D02*
G03*
X01775490Y01141987I-00005000J00000000D01*
G01*
Y01154487D02*
G03*
X01775490Y01154487I-00005000J00000000D01*
G01*
Y01166987D02*
G03*
X01775490Y01166987I-00005000J00000000D01*
G01*
Y01179487D02*
G03*
X01775490Y01179487I-00005000J00000000D01*
G01*
Y01191987D02*
G03*
X01775490Y01191987I-00005000J00000000D01*
G01*
Y01204487D02*
G03*
X01775490Y01204487I-00005000J00000000D01*
G01*
Y01216987D02*
G03*
X01775490Y01216987I-00005000J00000000D01*
G01*
Y01229487D02*
G03*
X01775490Y01229487I-00005000J00000000D01*
G01*
Y01241987D02*
G03*
X01775490Y01241987I-00005000J00000000D01*
G01*
X01760490Y00964477D02*
G03*
X01770490Y00974477I00000000J00010000D01*
G01*
X01005490D02*
Y01254477D01*
X01765490Y00979487D02*
Y00991997D01*
X01500491Y00969487D02*
X01755490Y00969487D01*
X01490491Y00979487D02*
Y01249487D01*
X01500491Y01259477D02*
X01755490Y01259477D01*
X01765490Y01241987D02*
Y01249477D01*
X01770490Y00974477D02*
Y00986987D01*
Y01246987D02*
Y01254477D01*
X01015490Y01264477D02*
X01760490Y01264477D01*
X01015490Y00964477D02*
X01760490Y00964477D01*
D45*
X01180740Y00872787D02*
D03*
X01407790Y01499487D02*
D03*
X01610490Y01102687D02*
D03*
X01713990Y01240487D02*
D03*
X01825890Y01248987D02*
D03*
D46*
X01180740Y00898187D02*
D03*
X01800490Y01191587D02*
D03*
Y01216987D02*
D03*
X01745990Y01013787D02*
D03*
Y01064587D02*
D03*
X01610490Y01128087D02*
D03*
X01745990Y01039187D02*
D03*
Y01139787D02*
D03*
Y01114387D02*
D03*
Y01089987D02*
D03*
X01800490Y01013787D02*
D03*
Y01064587D02*
D03*
Y01039187D02*
D03*
Y01089987D02*
D03*
Y01115387D02*
D03*
Y01140787D02*
D03*
Y01166187D02*
D03*
X01745990Y01215987D02*
D03*
Y01165187D02*
D03*
Y01190587D02*
D03*
D47*
X01259320Y01363487D02*
D03*
X01359320D02*
D03*
X01036990D02*
D03*
X01136990D02*
D03*
X01703990D02*
D03*
X01803990D02*
D03*
X01481660D02*
D03*
X01581660D02*
D03*
D48*
X01284320Y01294487D02*
D03*
X01334320D02*
D03*
X01309320D02*
D03*
X01061990D02*
D03*
X01111990D02*
D03*
X01086990D02*
D03*
X01728990D02*
D03*
X01778990D02*
D03*
X01753990D02*
D03*
X01506660D02*
D03*
X01556660D02*
D03*
X01531660D02*
D03*
D49*
X01005490Y01619987D02*
D03*
Y01557487D02*
D03*
Y01494987D02*
D03*
X01168490D02*
D03*
Y01557487D02*
D03*
Y01619987D02*
D03*
X01672490D02*
D03*
Y01557487D02*
D03*
Y01494987D02*
D03*
X01835490D02*
D03*
Y01557487D02*
D03*
Y01619987D02*
D03*
D50*
X01433190Y01499487D02*
D03*
X01688590Y01240487D02*
D03*
X01800490Y01248987D02*
D03*
D51*
X01548773Y01030440D02*
D03*
X01510629Y01082940D02*
D03*
Y01147833D02*
D03*
X01548773Y01200333D02*
D03*
X01610490Y01220387D02*
D03*
X01672208Y01200333D02*
D03*
X01710351Y01147833D02*
D03*
Y01082940D02*
D03*
X01672208Y01030440D02*
D03*
D52*
X01616990Y01245487D02*
D03*
X00987990Y01274487D02*
D03*
Y01249487D02*
D03*
Y01224487D02*
D03*
Y01199487D02*
D03*
Y01174487D02*
D03*
Y01149487D02*
D03*
Y01124487D02*
D03*
Y01099487D02*
D03*
X01442990Y01364487D02*
D03*
X01402990D02*
D03*
X01462990Y01454487D02*
D03*
X01457990Y01504487D02*
D03*
X01482990D02*
D03*
X01357640Y01499449D02*
D03*
X01382640D02*
D03*
X01616721Y01539135D02*
D03*
Y01564135D02*
D03*
X01960838Y01188681D02*
D03*
Y01163681D02*
D03*
Y01138681D02*
D03*
Y01113681D02*
D03*
X01925700Y01115276D02*
D03*
X01827002Y01102925D02*
D03*
X01843990Y01049487D02*
D03*
X01792990Y00984487D02*
D03*
X01907990Y00974487D02*
D03*
X01932990D02*
D03*
X01957990D02*
D03*
X01857990Y01189487D02*
D03*
X01882990D02*
D03*
X01907990D02*
D03*
X01386990Y01331737D02*
D03*
X01647807Y01319487D02*
D03*
X01612990Y01364487D02*
D03*
X01652990D02*
D03*
X01547990Y01624487D02*
D03*
Y01649487D02*
D03*
X01522990D02*
D03*
Y01624487D02*
D03*
X01197990Y01399487D02*
D03*
Y01374487D02*
D03*
Y01349487D02*
D03*
Y01324487D02*
D03*
X01172990Y01399487D02*
D03*
Y01374487D02*
D03*
Y01349487D02*
D03*
Y01324487D02*
D03*
X00997990Y01399487D02*
D03*
Y01374487D02*
D03*
Y01349487D02*
D03*
Y01324487D02*
D03*
X00947990Y01649487D02*
D03*
Y01624487D02*
D03*
X00922990D02*
D03*
Y01524487D02*
D03*
Y01549487D02*
D03*
Y01574487D02*
D03*
Y01424487D02*
D03*
Y01449487D02*
D03*
Y01474487D02*
D03*
Y01499487D02*
D03*
Y01324487D02*
D03*
Y01349487D02*
D03*
Y01374487D02*
D03*
Y01399487D02*
D03*
Y01099487D02*
D03*
Y01124487D02*
D03*
Y01149487D02*
D03*
Y01174487D02*
D03*
X00872990Y01599487D02*
D03*
Y01574487D02*
D03*
Y01549487D02*
D03*
Y01374487D02*
D03*
Y01399487D02*
D03*
Y01424487D02*
D03*
Y01449487D02*
D03*
Y01474487D02*
D03*
Y01499487D02*
D03*
Y01524487D02*
D03*
Y01349487D02*
D03*
Y01324487D02*
D03*
Y01299487D02*
D03*
Y01274487D02*
D03*
Y01249487D02*
D03*
Y01224487D02*
D03*
Y01199487D02*
D03*
Y01174487D02*
D03*
Y01149487D02*
D03*
Y01124487D02*
D03*
Y01099487D02*
D03*
Y01074487D02*
D03*
Y01049487D02*
D03*
Y01024487D02*
D03*
Y00999487D02*
D03*
Y00974487D02*
D03*
Y00949487D02*
D03*
X01172990D02*
D03*
Y00924487D02*
D03*
Y00824487D02*
D03*
Y00849487D02*
D03*
X01647990Y00824487D02*
D03*
X01622990D02*
D03*
X01597990D02*
D03*
Y00849487D02*
D03*
Y00874487D02*
D03*
Y00899487D02*
D03*
Y00924487D02*
D03*
Y00949487D02*
D03*
X01972990Y00874487D02*
D03*
Y00924487D02*
D03*
X01947990Y00874487D02*
D03*
Y00924487D02*
D03*
X01897990Y01349487D02*
D03*
Y01374487D02*
D03*
Y01399487D02*
D03*
Y01424487D02*
D03*
Y01449487D02*
D03*
Y01474487D02*
D03*
Y01499487D02*
D03*
Y01524487D02*
D03*
Y01549487D02*
D03*
Y01574487D02*
D03*
Y01599487D02*
D03*
X01947990Y01374487D02*
D03*
Y01399487D02*
D03*
Y01424487D02*
D03*
Y01449487D02*
D03*
Y01474487D02*
D03*
Y01499487D02*
D03*
Y01524487D02*
D03*
Y01549487D02*
D03*
Y01574487D02*
D03*
Y01599487D02*
D03*
X01685389Y01089221D02*
D03*
X01666240Y01147987D02*
D03*
X01286490Y01461487D02*
D03*
X01870240Y01300487D02*
D03*
X01835740Y01381237D02*
D03*
X01299990Y01513237D02*
D03*
Y01584987D02*
D03*
X01478240Y01488987D02*
D03*
X00965740Y00911237D02*
D03*
X01258490Y01515487D02*
D03*
X01258490Y01586987D02*
D03*
X01562740Y01463237D02*
D03*
X01529740Y01453237D02*
D03*
X01386990Y01319487D02*
D03*
X01628240Y01319487D02*
D03*
X01949990Y01043987D02*
D03*
X01927990Y01025487D02*
D03*
X01501990Y01546237D02*
D03*
X01199173Y01570737D02*
D03*
X01226990Y01535737D02*
D03*
X01328990Y01526237D02*
D03*
X01136240Y00869237D02*
D03*
X00955740Y00846737D02*
D03*
Y00924737D02*
D03*
X01446240Y01445987D02*
D03*
X01869240Y00832737D02*
D03*
X01660990Y00848937D02*
D03*
X01596990Y01500737D02*
D03*
X01510741Y01524237D02*
D03*
X00904240Y01059237D02*
D03*
X01213990Y01570737D02*
D03*
Y01623237D02*
D03*
X01683490Y00842987D02*
D03*
X01769990Y00906237D02*
D03*
X01741890Y00911437D02*
D03*
X01636091Y00886037D02*
D03*
X01685890Y00873337D02*
D03*
X01636091Y00936837D02*
D03*
X01769990Y00818237D02*
D03*
X01907990Y00840237D02*
D03*
Y00884237D02*
D03*
Y00928237D02*
D03*
M02*
