M48
;Layer_Color=9474304
;FILE_FORMAT=4:4
METRIC
;TYPE=PLATED
T01F00S00C0.3000
T02F00S00C0.9000
T03F00S00C1.0000
T04F00S00C1.5000
;TYPE=NON_PLATED
%
T01
X00955740Y00846737
X00965740Y00911237
X00955740Y00924737
X00872990Y00949487
Y00974487
Y00999487
Y01024487
Y01049487
Y01074487
Y01099487
Y01124487
Y01149487
Y01174487
X00922990
Y01149487
Y01124487
Y01099487
X00904240Y01059237
X00987990Y01099487
Y01124487
Y01149487
Y01174487
X01172990Y00949487
Y00924487
Y00849487
Y00824487
X01136240Y00869237
X01597990Y00874487
Y00849487
Y00824487
X01622990
X01647990
X01660990Y00848937
X01683490Y00842987
X01685890Y00873337
X01636091Y00886037
Y00936837
X01597990Y00924487
Y00899487
Y00949487
X01741890Y00911437
X01769990Y00906237
X01769990Y00818237
X01869240Y00832737
X01907990Y00840237
Y00884237
Y00928237
X01947990Y00924487
X01972990
Y00874487
X01947990
X01957990Y00974487
X01932990
X01907990
X01927990Y01025487
X01949990Y01043987
X01960838Y01113681
Y01138681
Y01163681
Y01188681
X01907990Y01189487
X01882990
X01857990
X01827002Y01102925
X01843990Y01049487
X01792990Y00984487
X01685389Y01089221
X01666240Y01147987
X01925700Y01115276
X01870240Y01300487
X01897990Y01349487
Y01374487
Y01399487
Y01424487
Y01449487
Y01474487
Y01499487
Y01524487
Y01549487
Y01574487
X01947990
Y01549487
Y01524487
Y01499487
Y01474487
Y01449487
Y01424487
Y01399487
Y01374487
X01835740Y01381237
X01652990Y01364487
X01612990
X01628240Y01319487
X01647807
X01616990Y01245487
X01596990Y01500737
X01616721Y01539135
Y01564135
X01501990Y01546237
X01510741Y01524237
X01482990Y01504487
X01478240Y01488987
X01457990Y01504487
X01462990Y01454487
X01446240Y01445987
X01442990Y01364487
X01402990
X01386990Y01331737
Y01319487
X01382640Y01499449
X01357640
X01328990Y01526237
X01299990Y01513237
X01258490Y01515487
X01226990Y01535737
X01213990Y01570737
X01199173
X01258490Y01586987
X01299990Y01584987
X01286490Y01461487
X01197990Y01399487
Y01374487
Y01349487
Y01324487
X01529740Y01453237
X01562740Y01463237
X01172990Y01399487
Y01374487
Y01349487
Y01324487
X00997990
Y01349487
Y01374487
Y01399487
X00922990Y01399487
Y01374487
Y01349487
Y01324487
X00872990
Y01349487
Y01374487
Y01399487
Y01424487
Y01449487
Y01474487
Y01499487
Y01524487
Y01549487
Y01574487
X00922990
Y01549487
Y01524487
Y01499487
Y01474487
Y01449487
Y01424487
X00872990Y01299487
Y01274487
Y01249487
Y01224487
Y01199487
X00987990
Y01224487
Y01249487
Y01274487
X00947990Y01624487
Y01649487
X00922990Y01624487
X00872990Y01599487
X01213990Y01623237
X01522990Y01624487
X01547990
Y01649487
X01522990
X01897990Y01599487
X01947990
T02
X01728990Y01294487
X01753990
X01778990
X01556660
X01531660
X01506660
X01334320
X01309320
X01284320
X01111990
X01086990
X01061990
T03
X01180740Y00872787
Y00898187
X01610490Y01102687
Y01128087
X01745990Y01139787
Y01114387
Y01089987
Y01064587
Y01039187
Y01013787
X01800490Y01013787
Y01039187
Y01064587
Y01089987
Y01115387
Y01140787
Y01166187
X01745990Y01165187
Y01190587
Y01215987
X01800490Y01216987
Y01191587
Y01248987
X01825890
X01713990Y01240487
X01688590
X01433190Y01499487
X01407790
T04
X01548773Y01030440
X01510629Y01082940
Y01147833
X01710351
Y01082940
X01672208Y01030440
Y01200333
X01610490Y01220387
X01672490Y01494987
Y01557487
X01835490
Y01494987
X01548773Y01200333
X01168490Y01494987
Y01557487
X01005490
Y01494987
Y01619987
X01168490
X01672490
X01835490
M30
